{
.appVersion = "3309";
.formatVersion = 3;
axes = (
{
name = Width;
tag = wdth;
},
{
name = Weight;
tag = wght;
}
);
customParameters = (
{
disabled = 1;
name = glyphOrder;
value = (
.notdef,
a,
b,
c,
d,
e,
f,
g,
h,
i,
j,
k,
l,
m,
n,
o,
p,
q,
r,
s,
t,
u,
v,
w,
x,
y,
z,
A,
B,
C,
D,
E,
F,
G,
H,
I,
J,
K,
L,
M,
N,
O,
P,
Q,
R,
S,
T,
U,
V,
W,
X,
Y,
Z,
germandbls,
Thorn,
uni0237,
Delta,
one,
two,
three,
four,
five,
six,
seven,
eight,
nine,
zero,
space,
CR,
NULL,
paragraph,
exclam,
quotedbl,
numbersign,
dollar,
percent,
ampersand,
quotesingle,
parenleft,
parenright,
asterisk,
plus,
comma,
hyphen,
period,
slash,
colon,
semicolon,
less,
equal,
greater,
question,
at,
bracketleft,
backslash,
asciicircum,
underscore,
grave,
bracketright,
braceleft,
bar,
asciitilde,
braceright,
exclamdown,
cent,
sterling,
yen,
brokenbar,
section,
copyright,
registered,
degree,
guilsinglleft,
guilsinglright,
fraction,
uni2215,
Euro,
minus,
summation,
perthousand,
ellipsis,
endash,
emdash,
periodcentered,
bullet,
approxequal,
uni2219,
infinity,
mu,
notequal,
trademark,
guillemotleft,
guillemotright,
logicalnot,
questiondown,
pi,
ordmasculine,
ordfeminine,
onesuperior,
twosuperior,
threesuperior,
multiply,
divide,
onequarter,
onehalf,
threequarters,
cedilla,
dieresis,
acute,
circumflex,
caron,
uni02C9,
breve,
dotaccent,
ring,
ogonek,
tilde,
uni0326,
uni00AF,
hungarumlaut,
product,
quotedblbase,
quotesinglbase,
quoteleft,
quoteright,
quotedblleft,
quotedblright,
dagger,
daggerdbl,
lozenge,
dotlessi,
thorn,
f_f,
fi,
f_f_i,
lira,
franc,
longs,
eth,
AE,
ae,
OE,
oe,
Agrave,
Aacute,
Acircumflex,
Atilde,
Adieresis,
Aring,
Ccedilla,
Egrave,
Eacute,
Ecircumflex,
Edieresis,
Igrave,
Iacute,
Icircumflex,
Idieresis,
Eth,
Ntilde,
Ograve,
Oacute,
Ocircumflex,
Otilde,
Odieresis,
Oslash,
Ugrave,
Uacute,
Ucircumflex,
Udieresis,
Yacute,
agrave,
aacute,
acircumflex,
atilde,
adieresis,
aring,
ccedilla,
egrave,
eacute,
ecircumflex,
edieresis,
igrave,
iacute,
icircumflex,
idieresis,
ntilde,
ograve,
oacute,
ocircumflex,

glyphs = (
{
glyphname = A;
kernLeft = A1;
kernRight = A;
lastChange = "2024-07-18 13:22:01 +0000";
layers = (
{
anchors = (
{
name = bottom;
pos = (718,76);
},
{
name = top;
pos = (455,643);
}
);
background = {
anchors = (
{
name = bottom;
pos = (718,76);
},
{
name = top;
pos = (455,643);
}
);
shapes = (
{
closed = 1;
nodes = (
(46,98,o),
(40,12,o),
(190,-1,cs),
(320,-12,o),
(338,60,o),
(338,60,c),
(355,155,o),
(353,147,o),
(383,249,c),
(401,297,o),
(443,366,o),
(463,409,c),
(487,359,o),
(506,309,o),
(535,235,cs),
(547,205,o),
(557,152,o),
(583,76,c),
(583,76,o),
(613,-5,o),
(742,-5,cs),
(871,-5,o),
(865,68,o),
(865,68,c),
(842,241,o),
(758,404,o),
(718,480,c),
(673,588,o),
(526,651,o),
(460,643,c),
(368,642,o),
(283,649,o),
(149,417,c),
(97,307,o),
(50,200,o),
(46,98,c)
);
},
{
closed = 1;
nodes = (
(218,87,l),
(343,110,o),
(544,104,o),
(685,87,c),
(659,239,l),
(500,248,o),
(380,239,o),
(241,217,c)
);
}
);
};
layerId = "1EECF98D-35CB-4836-8875-A967ACEC66D2";
shapes = (
{
closed = 1;
nodes = (
(871,-5,o),
(865,68,o),
(865,68,c),
(842,241,o),
(758,404,o),
(718,480,c),
(673,588,o),
(526,651,o),
(460,643,c),
(368,642,o),
(283,649,o),
(149,417,c),
(97,307,o),
(50,200,o),
(46,98,c),
(46,98,o),
(40,12,o),
(190,-1,cs),
(320,-12,o),
(338,60,o),
(338,60,c),
(355,155,o),
(353,147,o),
(383,249,c),
(401,297,o),
(443,366,o),
(463,409,c),
(487,359,o),
(506,309,o),
(535,235,cs),
(547,205,o),
(557,152,o),
(583,76,c),
(583,76,o),
(613,-5,o),
(742,-5,cs)
);
},
{
closed = 1;
nodes = (
(343,110,o),
(544,104,o),
(685,87,c),
(659,239,l),
(500,248,o),
(380,239,o),
(241,217,c),
(218,87,l)
);
}
);
width = 911;
},
{
anchors = (
{
name = bottom;
pos = (639,43);
},
{
name = top;
pos = (381,643);
}
);
background = {
anchors = (
{
name = bottom;
pos = (639,43);
},
{
name = top;
pos = (381,643);
}
);
shapes = (
{
closed = 1;
nodes = (
(75,23,o),
(77,2,o),
(111,-1,cs),
(146,-4,o),
(149,15,o),
(149,15,c),
(156,136,o),
(197,270,o),
(258,413,c),
(287,484,o),
(329,547,o),
(392,598,c),
(431,550,o),
(467,491,o),
(495,418,cs),
(542,304,o),
(579,164,o),
(611,15,c),
(611,15,o),
(618,-2,o),
(650,-1,cs),
(681,0,o),
(680,15,o),
(680,15,c),
(656,189,o),
(585,396,o),
(545,472,c),
(500,581,o),
(447,651,o),
(381,643,c),
(290,642,o),
(233,533,o),
(179,417,c),
(122,282,o),
(84,150,o),
(75,23,c)
);
},
{
closed = 1;
nodes = (
(140,95,l),
(264,117,o),
(465,122,o),
(606,105,c),
(597,146,l),
(440,154,o),
(290,149,o),
(150,127,c)
);
}
);
};
layerId = "1C3422F9-BFDE-4FE8-A46C-291A8D4071B9";
shapes = (
{
closed = 1;
nodes = (
(146,-4,o),
(149,15,o),
(149,15,c),
(156,136,o),
(197,270,o),
(258,413,c),
(287,484,o),
(329,547,o),
(392,598,c),
(431,550,o),
(467,491,o),
(495,418,cs),
(542,304,o),
(579,164,o),
(611,15,c),
(611,15,o),
(618,-2,o),
(650,-1,cs),
(681,0,o),
(680,15,o),
(680,15,c),
(656,189,o),
(585,396,o),
(545,472,c),
(500,581,o),
(447,651,o),
(381,643,c),
(290,642,o),
(233,533,o),
(179,417,c),
(122,282,o),
(84,150,o),
(75,23,c),
(75,23,o),
(77,2,o),
(111,-1,cs)
);
},
{
closed = 1;
nodes = (
(264,117,o),
(465,122,o),
(606,105,c),
(597,146,l),
(440,154,o),
(290,149,o),
(150,127,c),
(140,95,l)
);
}
);
width = 756;
},
{
anchors = (
{
name = bottom;
pos = (479,76);
},
{
name = top;
pos = (304,643);
}
);
background = {
anchors = (
{
name = bottom;
pos = (479,76);
},
{
name = top;
pos = (304,643);
}
);
shapes = (
{
closed = 1;
nodes = (
(31,98,o),
(27,12,o),
(127,-1,cs),
(214,-12,o),
(226,60,o),
(226,60,c),
(237,155,o),
(236,147,o),
(256,249,c),
(268,297,o),
(296,366,o),
(309,409,c),
(325,359,o),
(338,309,o),
(357,235,cs),
(365,205,o),
(372,152,o),
(389,76,c),
(389,76,o),
(409,-5,o),
(495,-5,cs),
(581,-5,o),
(577,68,o),
(577,68,c),
(562,241,o),
(506,404,o),
(479,480,c),
(449,588,o),
(351,651,o),
(307,643,c),
(246,642,o),
(189,649,o),
(100,417,c),
(65,307,o),
(34,200,o),
(31,98,c)
);
},
{
closed = 1;
nodes = (
(146,87,l),
(229,110,o),
(363,104,o),
(457,87,c),
(440,239,l),
(334,248,o),
(254,239,o),
(161,217,c)
);
}
);
};
layerId = "EE7B1B97-935D-491C-911D-EA8B82785AFC";
shapes = (
{
closed = 1;
nodes = (
(581,-5,o),
(577,68,o),
(577,68,c),
(562,241,o),
(506,404,o),
(479,480,c),
(449,588,o),
(351,651,o),
(307,643,c),
(246,642,o),
(189,649,o),
(100,417,c),
(65,307,o),
(34,200,o),
(31,98,c),
(31,98,o),
(27,12,o),
(127,-1,cs),
(214,-12,o),
(226,60,o),
(226,60,c),
(237,155,o),
(236,147,o),
(256,249,c),
(268,297,o),
(296,366,o),
(309,409,c),
(325,359,o),
(338,309,o),
(357,235,cs),
(365,205,o),
(372,152,o),
(389,76,c),
(389,76,o),
(409,-5,o),
(495,-5,cs)
);
},
{
closed = 1;
nodes = (
(229,110,o),
(363,104,o),
(457,87,c),
(440,239,l),
(334,248,o),
(254,239,o),
(161,217,c),
(146,87,l)
);
}
);
width = 608;
},
{
anchors = (
{
name = bottom;
pos = (426,43);
},
{
name = top;
pos = (254,643);
}
);
background = {
anchors = (
{
name = bottom;
pos = (426,43);
},
{
name = top;
pos = (254,643);
}
);
shapes = (
{
closed = 1;
nodes = (
(50,23,o),
(51,2,o),
(74,-1,cs),
(97,-4,o),
(99,15,o),
(99,15,c),
(104,136,o),
(131,270,o),
(172,413,c),
(191,484,o),
(219,547,o),
(261,598,c),
(287,550,o),
(311,491,o),
(330,418,cs),
(361,304,o),
(386,164,o),
(407,15,c),
(407,15,o),
(412,-2,o),
(433,-1,cs),
(454,0,o),
(453,15,o),
(453,15,c),
(437,189,o),
(390,396,o),
(363,472,c),
(333,581,o),
(298,651,o),
(254,643,c),
(193,642,o),
(155,533,o),
(119,417,c),
(81,282,o),
(56,150,o),
(50,23,c)
);
},
{
closed = 1;
nodes = (
(93,95,l),
(176,117,o),
(310,122,o),
(404,105,c),
(398,146,l),
(293,154,o),
(193,149,o),
(100,127,c)
);
}
);
};
layerId = "6B947F8E-B64D-4F43-8779-746217178CEC";
shapes = (
{
closed = 1;
nodes = (
(97,-4,o),
(99,15,o),
(99,15,c),
(104,136,o),
(131,270,o),
(172,413,c),
(191,484,o),
(219,547,o),
(261,598,c),
(287,550,o),
(311,491,o),
(330,418,cs),
(361,304,o),
(386,164,o),
(407,15,c),
(407,15,o),
(412,-2,o),
(433,-1,cs),
(454,0,o),
(453,15,o),
(453,15,c),
(437,189,o),
(390,396,o),
(363,472,c),
(333,581,o),
(298,651,o),
(254,643,c),
(193,642,o),
(155,533,o),
(119,417,c),
(81,282,o),
(56,150,o),
(50,23,c),
(50,23,o),
(51,2,o),
(74,-1,cs)
);
},
{
closed = 1;
nodes = (
(176,117,o),
(310,122,o),
(404,105,c),
(398,146,l),
(293,154,o),
(193,149,o),
(100,127,c),
(93,95,l)
);
}
);
width = 504;
}
);
unicode = 65;
},
{
glyphname = Aacute;
kernLeft = A1;
kernRight = A;
lastChange = "2024-07-18 12:46:04 +0000";
layers = (
{
anchors = (
{
name = bottom;
pos = (718,76);
}
);
background = {
anchors = (
{
name = bottom;
pos = (718,76);
},
{
name = top;
pos = (455,643);
}
);
shapes = (
{
closed = 1;
nodes = (
(46,98,o),
(40,12,o),
(190,-1,cs),
(320,-12,o),
(338,60,o),
(338,60,c),
(355,155,o),
(353,147,o),
(383,249,c),
(401,297,o),
(443,366,o),
(463,409,c),
(487,359,o),
(506,309,o),
(535,235,cs),
(547,205,o),
(557,152,o),
(583,76,c),
(583,76,o),
(613,-5,o),
(742,-5,cs),
(871,-5,o),
(865,68,o),
(865,68,c),
(842,241,o),
(758,404,o),
(718,480,c),
(673,588,o),
(526,651,o),
(460,643,c),
(368,642,o),
(283,649,o),
(149,417,c),
(97,307,o),
(50,200,o),
(46,98,c)
);
},
{
closed = 1;
nodes = (
(218,87,l),
(343,110,o),
(544,104,o),
(685,87,c),
(659,239,l),
(500,248,o),
(380,239,o),
(241,217,c)
);
},
{
closed = 1;
nodes = (
(518,832,o),
(602,843,o),
(635,809,cs),
(672,769,o),
(617,738,o),
(617,738,c),
(554,695,o),
(432,674,o),
(390,669,c),
(390,669,o),
(306,660,o),
(278,695,cs),
(228,757,o),
(333,792,o),
(333,792,c),
(431,822,o),
(480,828,o),
(518,832,c)
);
}
);
};
layerId = "1EECF98D-35CB-4836-8875-A967ACEC66D2";
shapes = (
{
alignment = -1;
ref = A;
},
{
alignment = -1;
pos = (219,183);
ref = acute;
}
);
width = 911;
},
{
anchors = (
{
name = bottom;
pos = (639,43);
}
);
background = {
anchors = (
{
name = bottom;
pos = (639,43);
},
{
name = top;
pos = (381,643);
}
);
shapes = (
{
closed = 1;
nodes = (
(75,23,o),
(77,2,o),
(111,-1,cs),
(146,-4,o),
(149,15,o),
(149,15,c),
(156,136,o),
(197,270,o),
(258,413,c),
(287,484,o),
(329,547,o),
(392,598,c),
(431,550,o),
(467,491,o),
(495,418,cs),
(542,304,o),
(579,164,o),
(611,15,c),
(611,15,o),
(618,-2,o),
(650,-1,cs),
(681,0,o),
(680,15,o),
(680,15,c),
(656,189,o),
(585,396,o),
(545,472,c),
(500,581,o),
(447,651,o),
(381,643,c),
(290,642,o),
(233,533,o),
(179,417,c),
(122,282,o),
(84,150,o),
(75,23,c)
);
},
{
closed = 1;
nodes = (
(140,95,l),
(264,117,o),
(465,122,o),
(606,105,c),
(597,146,l),
(440,154,o),
(290,149,o),
(150,127,c)
);
},
{
closed = 1;
nodes = (
(505,811,o),
(526,820,o),
(538,806,cs),
(550,792,o),
(528,785,o),
(528,785,c),
(444,750,o),
(349,718,o),
(244,689,c),
(244,689,o),
(219,682,o),
(208,696,cs),
(199,709,o),
(223,720,o),
(223,720,c),
(321,749,o),
(415,780,o),
(505,811,c)
);
}
);
};
layerId = "1C3422F9-BFDE-4FE8-A46C-291A8D4071B9";
shapes = (
{
alignment = -1;
ref = A;
},
{
alignment = -1;
pos = (130,183);
ref = acute;
}
);
width = 756;
},
{
anchors = (
{
name = bottom;
pos = (479,76);
}
);
background = {
anchors = (
{
name = bottom;
pos = (479,76);
},
{
name = top;
pos = (304,643);
}
);
shapes = (
{
closed = 1;
nodes = (
(31,98,o),
(27,12,o),
(127,-1,cs),
(214,-12,o),
(226,60,o),
(226,60,c),
(237,155,o),
(236,147,o),
(256,249,c),
(268,297,o),
(296,366,o),
(309,409,c),
(325,359,o),
(338,309,o),
(357,235,cs),
(365,205,o),
(372,152,o),
(389,76,c),
(389,76,o),
(409,-5,o),
(495,-5,cs),
(581,-5,o),
(577,68,o),
(577,68,c),
(562,241,o),
(506,404,o),
(479,480,c),
(449,588,o),
(351,651,o),
(307,643,c),
(246,642,o),
(189,649,o),
(100,417,c),
(65,307,o),
(34,200,o),
(31,98,c)
);
},
{
closed = 1;
nodes = (
(146,87,l),
(229,110,o),
(363,104,o),
(457,87,c),
(440,239,l),
(334,248,o),
(254,239,o),
(161,217,c)
);
},
{
closed = 1;
nodes = (
(346,832,o),
(402,843,o),
(424,809,cs),
(449,769,o),
(412,738,o),
(412,738,c),
(370,695,o),
(289,674,o),
(261,669,c),
(261,669,o),
(205,660,o),
(186,695,cs),
(153,757,o),
(223,792,o),
(223,792,c),
(288,822,o),
(321,828,o),
(346,832,c)
);
}
);
};
layerId = "EE7B1B97-935D-491C-911D-EA8B82785AFC";
shapes = (
{
alignment = -1;
ref = A;
},
{
alignment = -1;
pos = (147,183);
ref = acute;
}
);
width = 608;
},
{
anchors = (
{
name = bottom;
pos = (426,43);
}
);
background = {
anchors = (
{
name = bottom;
pos = (426,43);
},
{
name = top;
pos = (254,643);
}
);
shapes = (
{
closed = 1;
nodes = (
(50,23,o),
(51,2,o),
(74,-1,cs),
(97,-4,o),
(99,15,o),
(99,15,c),
(104,136,o),
(131,270,o),
(172,413,c),
(191,484,o),
(219,547,o),
(261,598,c),
(287,550,o),
(311,491,o),
(330,418,cs),
(361,304,o),
(386,164,o),
(407,15,c),
(407,15,o),
(412,-2,o),
(433,-1,cs),
(454,0,o),
(453,15,o),
(453,15,c),
(437,189,o),
(390,396,o),
(363,472,c),
(333,581,o),
(298,651,o),
(254,643,c),
(193,642,o),
(155,533,o),
(119,417,c),
(81,282,o),
(56,150,o),
(50,23,c)
);
},
{
closed = 1;
nodes = (
(93,95,l),
(176,117,o),
(310,122,o),
(404,105,c),
(398,146,l),
(293,154,o),
(193,149,o),
(100,127,c)
);
},
{
closed = 1;
nodes = (
(337,811,o),
(351,820,o),
(359,806,cs),
(367,792,o),
(352,785,o),
(352,785,c),
(296,750,o),
(233,718,o),
(163,689,c),
(163,689,o),
(146,682,o),
(139,696,cs),
(133,709,o),
(149,720,o),
(149,720,c),
(214,749,o),
(277,780,o),
(337,811,c)
);
}
);
};
layerId = "6B947F8E-B64D-4F43-8779-746217178CEC";
shapes = (
{
alignment = -1;
ref = A;
},
{
alignment = -1;
pos = (87,183);
ref = acute;
}
);
width = 504;
}
);
unicode = 193;
},
{
glyphname = Abreve;
kernLeft = A1;
kernRight = A;
lastChange = "2024-07-18 12:46:04 +0000";
layers = (
{
anchors = (
{
name = bottom;
pos = (718,76);
}
);
background = {
anchors = (
{
name = bottom;
pos = (718,76);
},
{
name = top;
pos = (455,643);
}
);
shapes = (
{
closed = 1;
nodes = (
(46,98,o),
(40,12,o),
(190,-1,cs),
(320,-12,o),
(338,60,o),
(338,60,c),
(355,155,o),
(353,147,o),
(383,249,c),
(401,297,o),
(443,366,o),
(463,409,c),
(487,359,o),
(506,309,o),
(535,235,cs),
(547,205,o),
(557,152,o),
(583,76,c),
(583,76,o),
(613,-5,o),
(742,-5,cs),
(871,-5,o),
(865,68,o),
(865,68,c),
(842,241,o),
(758,404,o),
(718,480,c),
(673,588,o),
(526,651,o),
(460,643,c),
(368,642,o),
(283,649,o),
(149,417,c),
(97,307,o),
(50,200,o),
(46,98,c)
);
},
{
closed = 1;
nodes = (
(218,87,l),
(343,110,o),
(544,104,o),
(685,87,c),
(659,239,l),
(500,248,o),
(380,239,o),
(241,217,c)
);
},
{
closed = 1;
nodes = (
(251,857,o),
(285,882,o),
(345,875,cs),
(432,866,o),
(438,818,o),
(438,818,c),
(440,813,o),
(440,808,o),
(438,802,c),
(438,796,o),
(444,793,o),
(459,797,cs),
(471,800,o),
(468,807,o),
(468,811,cs),
(468,816,o),
(470,825,o),
(474,834,c),
(474,834,o),
(495,870,o),
(572,870,cs),
(663,869,o),
(698,822,o),
(698,822,c),
(710,800,o),
(705,768,o),
(696,752,c),
(657,703,o),
(597,670,o),
(494,667,c),
(431,661,o),
(320,675,o),
(264,717,c),
(203,756,o),
(195,824,o),
(251,857,c)
);
}
);
};
layerId = "1EECF98D-35CB-4836-8875-A967ACEC66D2";
shapes = (
{
alignment = -1;
ref = A;
},
{
alignment = -1;
pos = (168,183);
ref = breve;
}
);
width = 911;
},
{
anchors = (
{
name = bottom;
pos = (639,43);
}
);
background = {
anchors = (
{
name = bottom;
pos = (639,43);
},
{
name = top;
pos = (381,643);
}
);
shapes = (
{
closed = 1;
nodes = (
(75,23,o),
(77,2,o),
(111,-1,cs),
(146,-4,o),
(149,15,o),
(149,15,c),
(156,136,o),
(197,270,o),
(258,413,c),
(287,484,o),
(329,547,o),
(392,598,c),
(431,550,o),
(467,491,o),
(495,418,cs),
(542,304,o),
(579,164,o),
(611,15,c),
(611,15,o),
(618,-2,o),
(650,-1,cs),
(681,0,o),
(680,15,o),
(680,15,c),
(656,189,o),
(585,396,o),
(545,472,c),
(500,581,o),
(447,651,o),
(381,643,c),
(290,642,o),
(233,533,o),
(179,417,c),
(122,282,o),
(84,150,o),
(75,23,c)
);
},
{
closed = 1;
nodes = (
(140,95,l),
(264,117,o),
(465,122,o),
(606,105,c),
(597,146,l),
(440,154,o),
(290,149,o),
(150,127,c)
);
},
{
closed = 1;
nodes = (
(208,852,o),
(231,862,o),
(249,853,cs),
(264,845,o),
(247,834,o),
(247,834,c),
(213,801,o),
(219,775,o),
(250,751,cs),
(285,725,o),
(360,715,o),
(429,719,c),
(483,721,o),
(550,742,o),
(577,777,cs),
(585,788,o),
(588,800,o),
(586,816,c),
(586,816,o),
(583,827,o),
(609,829,cs),
(634,831,o),
(643,814,o),
(643,814,c),
(648,801,o),
(646,787,o),
(637,771,c),
(600,722,o),
(538,689,o),
(435,687,c),
(373,681,o),
(261,695,o),
(207,736,c),
(162,766,o),
(153,818,o),
(208,852,c)
);
}
);
};
layerId = "1C3422F9-BFDE-4FE8-A46C-291A8D4071B9";
shapes = (
{
alignment = -1;
ref = A;
},
{
alignment = -1;
pos = (94,183);
ref = breve;
}
);
width = 756;
},
{
anchors = (
{
name = bottom;
pos = (479,76);
}
);
background = {
anchors = (
{
name = bottom;
pos = (479,76);
},
{
name = top;
pos = (304,643);
}
);
shapes = (
{
closed = 1;
nodes = (
(31,98,o),
(27,12,o),
(127,-1,cs),
(214,-12,o),
(226,60,o),
(226,60,c),
(237,155,o),
(236,147,o),
(256,249,c),
(268,297,o),
(296,366,o),
(309,409,c),
(325,359,o),
(338,309,o),
(357,235,cs),
(365,205,o),
(372,152,o),
(389,76,c),
(389,76,o),
(409,-5,o),
(495,-5,cs),
(581,-5,o),
(577,68,o),
(577,68,c),
(562,241,o),
(506,404,o),
(479,480,c),
(449,588,o),
(351,651,o),
(307,643,c),
(246,642,o),
(189,649,o),
(100,417,c),
(65,307,o),
(34,200,o),
(31,98,c)
);
},
{
closed = 1;
nodes = (
(146,87,l),
(229,110,o),
(363,104,o),
(457,87,c),
(440,239,l),
(334,248,o),
(254,239,o),
(161,217,c)
);
},
{
closed = 1;
nodes = (
(168,857,o),
(191,882,o),
(231,875,cs),
(289,866,o),
(293,818,o),
(293,818,c),
(294,813,o),
(294,808,o),
(293,802,c),
(293,796,o),
(297,793,o),
(307,797,cs),
(315,800,o),
(313,807,o),
(313,811,cs),
(313,816,o),
(314,825,o),
(317,834,c),
(317,834,o),
(331,870,o),
(382,870,cs),
(443,869,o),
(466,822,o),
(466,822,c),
(474,800,o),
(471,768,o),
(465,752,c),
(439,703,o),
(399,670,o),
(330,667,c),
(288,661,o),
(214,675,o),
(177,717,c),
(136,756,o),
(131,824,o),
(168,857,c)
);
}
);
};
layerId = "EE7B1B97-935D-491C-911D-EA8B82785AFC";
shapes = (
{
alignment = -1;
ref = A;
},
{
alignment = -1;
pos = (113,183);
ref = breve;
}
);
width = 608;
},
{
anchors = (
{
name = bottom;
pos = (426,43);
}
);
background = {
anchors = (
{
name = bottom;
pos = (426,43);
},
{
name = top;
pos = (254,643);
}
);
shapes = (
{
closed = 1;
nodes = (
(50,23,o),
(51,2,o),
(74,-1,cs),
(97,-4,o),
(99,15,o),
(99,15,c),
(104,136,o),
(131,270,o),
(172,413,c),
(191,484,o),
(219,547,o),
(261,598,c),
(287,550,o),
(311,491,o),
(330,418,cs),
(361,304,o),
(386,164,o),
(407,15,c),
(407,15,o),
(412,-2,o),
(433,-1,cs),
(454,0,o),
(453,15,o),
(453,15,c),
(437,189,o),
(390,396,o),
(363,472,c),
(333,581,o),
(298,651,o),
(254,643,c),
(193,642,o),
(155,533,o),
(119,417,c),
(81,282,o),
(56,150,o),
(50,23,c)
);
},
{
closed = 1;
nodes = (
(93,95,l),
(176,117,o),
(310,122,o),
(404,105,c),
(398,146,l),
(293,154,o),
(193,149,o),
(100,127,c)
);
},
{
closed = 1;
nodes = (
(139,852,o),
(154,862,o),
(166,853,cs),
(176,845,o),
(165,834,o),
(165,834,c),
(142,801,o),
(146,775,o),
(167,751,cs),
(190,725,o),
(240,715,o),
(286,719,c),
(322,721,o),
(367,742,o),
(385,777,cs),
(390,788,o),
(392,800,o),
(391,816,c),
(391,816,o),
(389,827,o),
(406,829,cs),
(423,831,o),
(429,814,o),
(429,814,c),
(432,801,o),
(431,787,o),
(425,771,c),
(400,722,o),
(359,689,o),
(290,687,c),
(249,681,o),
(174,695,o),
(138,736,c),
(108,766,o),
(102,818,o),
(139,852,c)
);
}
);
};
layerId = "6B947F8E-B64D-4F43-8779-746217178CEC";
shapes = (
{
alignment = -1;
ref = A;
},
{
alignment = -1;
pos = (63,183);
ref = breve;
}
);
width = 504;
}
);
unicode = 258;
},
{
glyphname = Acircumflex;
kernLeft = A1;
kernRight = A;
lastChange = "2024-07-18 12:46:04 +0000";
layers = (
{
anchors = (
{
name = bottom;
pos = (718,76);
}
);
background = {
anchors = (
{
name = bottom;
pos = (718,76);
},
{
name = top;
pos = (455,643);
}
);
shapes = (
{
closed = 1;
nodes = (
(46,98,o),
(40,12,o),
(190,-1,cs),
(320,-12,o),
(338,60,o),
(338,60,c),
(355,155,o),
(353,147,o),
(383,249,c),
(401,297,o),
(443,366,o),
(463,409,c),
(487,359,o),
(506,309,o),
(535,235,cs),
(547,205,o),
(557,152,o),
(583,76,c),
(583,76,o),
(613,-5,o),
(742,-5,cs),
(871,-5,o),
(865,68,o),
(865,68,c),
(842,241,o),
(758,404,o),
(718,480,c),
(673,588,o),
(526,651,o),
(460,643,c),
(368,642,o),
(283,649,o),
(149,417,c),
(97,307,o),
(50,200,o),
(46,98,c)
);
},
{
closed = 1;
nodes = (
(218,87,l),
(343,110,o),
(544,104,o),
(685,87,c),
(659,239,l),
(500,248,o),
(380,239,o),
(241,217,c)
);
},
{
closed = 1;
nodes = (
(237,753,o),
(204,715,o),
(275,681,cs),
(326,657,o),
(380,674,o),
(380,674,c),
(402,686,o),
(432,703,o),
(456,716,c),
(518,683,l),
(518,683,o),
(596,658,o),
(648,689,cs),
(725,733,o),
(641,780,o),
(641,780,c),
(519,832,l),
(471,857,o),
(392,852,o),
(365,837,c),
(299,805,o),
(276,789,o),
(237,753,c)
);
}
);
};
layerId = "1EECF98D-35CB-4836-8875-A967ACEC66D2";
shapes = (
{
alignment = -1;
ref = A;
},
{
alignment = -1;
pos = (184,183);
ref = circumflex;
}
);
width = 911;
},
{
anchors = (
{
name = bottom;
pos = (639,43);
}
);
background = {
anchors = (
{
name = bottom;
pos = (639,43);
},
{
name = top;
pos = (381,643);
}
);
shapes = (
{
closed = 1;
nodes = (
(75,23,o),
(77,2,o),
(111,-1,cs),
(146,-4,o),
(149,15,o),
(149,15,c),
(156,136,o),
(197,270,o),
(258,413,c),
(287,484,o),
(329,547,o),
(392,598,c),
(431,550,o),
(467,491,o),
(495,418,cs),
(542,304,o),
(579,164,o),
(611,15,c),
(611,15,o),
(618,-2,o),
(650,-1,cs),
(681,0,o),
(680,15,o),
(680,15,c),
(656,189,o),
(585,396,o),
(545,472,c),
(500,581,o),
(447,651,o),
(381,643,c),
(290,642,o),
(233,533,o),
(179,417,c),
(122,282,o),
(84,150,o),
(75,23,c)
);
},
{
closed = 1;
nodes = (
(140,95,l),
(264,117,o),
(465,122,o),
(606,105,c),
(597,146,l),
(440,154,o),
(290,149,o),
(150,127,c)
);
},
{
closed = 1;
nodes = (
(190,714,o),
(177,700,o),
(195,693,cs),
(213,685,o),
(229,695,o),
(229,695,c),
(307,751,o),
(355,784,o),
(397,795,c),
(550,720,l),
(550,720,o),
(577,709,o),
(589,721,cs),
(601,733,o),
(586,743,o),
(586,743,c),
(430,817,l),
(399,831,o),
(370,828,o),
(345,814,cs),
(283,782,o),
(228,749,o),
(190,714,c)
);
}
);
};
layerId = "1C3422F9-BFDE-4FE8-A46C-291A8D4071B9";
shapes = (
{
alignment = -1;
ref = A;
},
{
alignment = -1;
pos = (110,183);
ref = circumflex;
}
);
width = 756;
},
{
anchors = (
{
name = bottom;
pos = (479,76);
}
);
background = {
anchors = (
{
name = bottom;
pos = (479,76);
},
{
name = top;
pos = (304,643);
}
);
shapes = (
{
closed = 1;
nodes = (
(31,98,o),
(27,12,o),
(127,-1,cs),
(214,-12,o),
(226,60,o),
(226,60,c),
(237,155,o),
(236,147,o),
(256,249,c),
(268,297,o),
(296,366,o),
(309,409,c),
(325,359,o),
(338,309,o),
(357,235,cs),
(365,205,o),
(372,152,o),
(389,76,c),
(389,76,o),
(409,-5,o),
(495,-5,cs),
(581,-5,o),
(577,68,o),
(577,68,c),
(562,241,o),
(506,404,o),
(479,480,c),
(449,588,o),
(351,651,o),
(307,643,c),
(246,642,o),
(189,649,o),
(100,417,c),
(65,307,o),
(34,200,o),
(31,98,c)
);
},
{
closed = 1;
nodes = (
(146,87,l),
(229,110,o),
(363,104,o),
(457,87,c),
(440,239,l),
(334,248,o),
(254,239,o),
(161,217,c)
);
},
{
closed = 1;
nodes = (
(159,753,o),
(137,715,o),
(184,681,cs),
(218,657,o),
(254,674,o),
(254,674,c),
(269,686,o),
(289,703,o),
(305,716,c),
(346,683,l),
(346,683,o),
(398,658,o),
(433,689,cs),
(484,733,o),
(428,780,o),
(428,780,c),
(347,832,l),
(315,857,o),
(262,852,o),
(244,837,c),
(200,805,o),
(185,789,o),
(159,753,c)
);
}
);
};
layerId = "EE7B1B97-935D-491C-911D-EA8B82785AFC";
shapes = (
{
alignment = -1;
ref = A;
},
{
alignment = -1;
pos = (123,183);
ref = circumflex;
}
);
width = 608;
},
{
anchors = (
{
name = bottom;
pos = (426,43);
}
);
background = {
anchors = (
{
name = bottom;
pos = (426,43);
},
{
name = top;
pos = (254,643);
}
);
shapes = (
{
closed = 1;
nodes = (
(50,23,o),
(51,2,o),
(74,-1,cs),
(97,-4,o),
(99,15,o),
(99,15,c),
(104,136,o),
(131,270,o),
(172,413,c),
(191,484,o),
(219,547,o),
(261,598,c),
(287,550,o),
(311,491,o),
(330,418,cs),
(361,304,o),
(386,164,o),
(407,15,c),
(407,15,o),
(412,-2,o),
(433,-1,cs),
(454,0,o),
(453,15,o),
(453,15,c),
(437,189,o),
(390,396,o),
(363,472,c),
(333,581,o),
(298,651,o),
(254,643,c),
(193,642,o),
(155,533,o),
(119,417,c),
(81,282,o),
(56,150,o),
(50,23,c)
);
},
{
closed = 1;
nodes = (
(93,95,l),
(176,117,o),
(310,122,o),
(404,105,c),
(398,146,l),
(293,154,o),
(193,149,o),
(100,127,c)
);
},
{
closed = 1;
nodes = (
(127,714,o),
(118,700,o),
(130,693,cs),
(142,685,o),
(153,695,o),
(153,695,c),
(205,751,o),
(237,784,o),
(265,795,c),
(367,720,l),
(367,720,o),
(385,709,o),
(393,721,cs),
(401,733,o),
(391,743,o),
(391,743,c),
(287,817,l),
(266,831,o),
(247,828,o),
(230,814,cs),
(189,782,o),
(152,749,o),
(127,714,c)
);
}
);
};
layerId = "6B947F8E-B64D-4F43-8779-746217178CEC";
shapes = (
{
alignment = -1;
ref = A;
},
{
alignment = -1;
pos = (73,183);
ref = circumflex;
}
);
width = 504;
}
);
unicode = 194;
},
{
glyphname = Adieresis;
kernLeft = A1;
kernRight = A;
lastChange = "2024-07-18 12:46:04 +0000";
layers = (
{
anchors = (
{
name = bottom;
pos = (718,76);
}
);
background = {
anchors = (
{
name = bottom;
pos = (718,76);
},
{
name = top;
pos = (455,643);
}
);
shapes = (
{
closed = 1;
nodes = (
(46,98,o),
(40,12,o),
(190,-1,cs),
(320,-12,o),
(338,60,o),
(338,60,c),
(355,155,o),
(353,147,o),
(383,249,c),
(401,297,o),
(443,366,o),
(463,409,c),
(487,359,o),
(506,309,o),
(535,235,cs),
(547,205,o),
(557,152,o),
(583,76,c),
(583,76,o),
(613,-5,o),
(742,-5,cs),
(871,-5,o),
(865,68,o),
(865,68,c),
(842,241,o),
(758,404,o),
(718,480,c),
(673,588,o),
(526,651,o),
(460,643,c),
(368,642,o),
(283,649,o),
(149,417,c),
(97,307,o),
(50,200,o),
(46,98,c)
);
},
{
closed = 1;
nodes = (
(218,87,l),
(343,110,o),
(544,104,o),
(685,87,c),
(659,239,l),
(500,248,o),
(380,239,o),
(241,217,c)
);
},
{
closed = 1;
nodes = (
(454,683,o),
(386,661,o),
(301,661,cs),
(217,661,o),
(149,699,o),
(149,747,cs),
(149,795,o),
(217,834,o),
(301,834,cs),
(386,834,o),
(454,795,o),
(454,747,cs)
);
},
{
closed = 1;
nodes = (
(770,683,o),
(703,661,o),
(619,661,cs),
(535,661,o),
(466,699,o),
(466,747,cs),
(466,795,o),
(535,834,o),
(619,834,cs),
(703,834,o),
(770,795,o),
(770,747,cs)
);
}
);
};
layerId = "1EECF98D-35CB-4836-8875-A967ACEC66D2";
shapes = (
{
alignment = -1;
ref = A;
},
{
alignment = -1;
pos = (104,183);
ref = dieresis;
}
);
width = 911;
},
{
anchors = (
{
name = bottom;
pos = (639,43);
}
);
background = {
anchors = (
{
name = bottom;
pos = (639,43);
},
{
name = top;
pos = (381,643);
}
);
shapes = (
{
closed = 1;
nodes = (
(75,23,o),
(77,2,o),
(111,-1,cs),
(146,-4,o),
(149,15,o),
(149,15,c),
(156,136,o),
(197,270,o),
(258,413,c),
(287,484,o),
(329,547,o),
(392,598,c),
(431,550,o),
(467,491,o),
(495,418,cs),
(542,304,o),
(579,164,o),
(611,15,c),
(611,15,o),
(618,-2,o),
(650,-1,cs),
(681,0,o),
(680,15,o),
(680,15,c),
(656,189,o),
(585,396,o),
(545,472,c),
(500,581,o),
(447,651,o),
(381,643,c),
(290,642,o),
(233,533,o),
(179,417,c),
(122,282,o),
(84,150,o),
(75,23,c)
);
},
{
closed = 1;
nodes = (
(140,95,l),
(264,117,o),
(465,122,o),
(606,105,c),
(597,146,l),
(440,154,o),
(290,149,o),
(150,127,c)
);
},
{
closed = 1;
nodes = (
(260,728,o),
(237,715,o),
(210,715,cs),
(183,715,o),
(162,728,o),
(162,744,cs),
(162,759,o),
(183,772,o),
(210,772,cs),
(237,772,o),
(260,759,o),
(260,744,cs)
);
},
{
closed = 1;
nodes = (
(576,728,o),
(554,715,o),
(528,715,cs),
(501,715,o),
(479,728,o),
(479,744,cs),
(479,759,o),
(501,772,o),
(528,772,cs),
(554,772,o),
(576,759,o),
(576,744,cs)
);
}
);
};
layerId = "1C3422F9-BFDE-4FE8-A46C-291A8D4071B9";
shapes = (
{
alignment = -1;
ref = A;
},
{
alignment = -1;
pos = (87,183);
ref = dieresis;
}
);
width = 756;
},
{
anchors = (
{
name = bottom;
pos = (479,76);
}
);
background = {
anchors = (
{
name = bottom;
pos = (479,76);
},
{
name = top;
pos = (304,643);
}
);
shapes = (
{
closed = 1;
nodes = (
(31,98,o),
(27,12,o),
(127,-1,cs),
(214,-12,o),
(226,60,o),
(226,60,c),
(237,155,o),
(236,147,o),
(256,249,c),
(268,297,o),
(296,366,o),
(309,409,c),
(325,359,o),
(338,309,o),
(357,235,cs),
(365,205,o),
(372,152,o),
(389,76,c),
(389,76,o),
(409,-5,o),
(495,-5,cs),
(581,-5,o),
(577,68,o),
(577,68,c),
(562,241,o),
(506,404,o),
(479,480,c),
(449,588,o),
(351,651,o),
(307,643,c),
(246,642,o),
(189,649,o),
(100,417,c),
(65,307,o),
(34,200,o),
(31,98,c)
);
},
{
closed = 1;
nodes = (
(146,87,l),
(229,110,o),
(363,104,o),
(457,87,c),
(440,239,l),
(334,248,o),
(254,239,o),
(161,217,c)
);
},
{
closed = 1;
nodes = (
(303,683,o),
(258,661,o),
(201,661,cs),
(145,661,o),
(100,699,o),
(100,747,cs),
(100,795,o),
(145,834,o),
(201,834,cs),
(258,834,o),
(303,795,o),
(303,747,cs)
);
},
{
closed = 1;
nodes = (
(514,683,o),
(469,661,o),
(413,661,cs),
(357,661,o),
(311,699,o),
(311,747,cs),
(311,795,o),
(357,834,o),
(413,834,cs),
(469,834,o),
(514,795,o),
(514,747,cs)
);
}
);
};
layerId = "EE7B1B97-935D-491C-911D-EA8B82785AFC";
shapes = (
{
alignment = -1;
ref = A;
},
{
alignment = -1;
pos = (70,183);
ref = dieresis;
}
);
width = 608;
},
{
anchors = (
{
name = bottom;
pos = (426,43);
}
);
background = {
anchors = (
{
name = bottom;
pos = (426,43);
},
{
name = top;
pos = (254,643);
}
);
shapes = (
{
closed = 1;
nodes = (
(50,23,o),
(51,2,o),
(74,-1,cs),
(97,-4,o),
(99,15,o),
(99,15,c),
(104,136,o),
(131,270,o),
(172,413,c),
(191,484,o),
(219,547,o),
(261,598,c),
(287,550,o),
(311,491,o),
(330,418,cs),
(361,304,o),
(386,164,o),
(407,15,c),
(407,15,o),
(412,-2,o),
(433,-1,cs),
(454,0,o),
(453,15,o),
(453,15,c),
(437,189,o),
(390,396,o),
(363,472,c),
(333,581,o),
(298,651,o),
(254,643,c),
(193,642,o),
(155,533,o),
(119,417,c),
(81,282,o),
(56,150,o),
(50,23,c)
);
},
{
closed = 1;
nodes = (
(93,95,l),
(176,117,o),
(310,122,o),
(404,105,c),
(398,146,l),
(293,154,o),
(193,149,o),
(100,127,c)
);
},
{
closed = 1;
nodes = (
(173,728,o),
(158,715,o),
(140,715,cs),
(122,715,o),
(108,728,o),
(108,744,cs),
(108,759,o),
(122,772,o),
(140,772,cs),
(158,772,o),
(173,759,o),
(173,744,cs)
);
},
{
closed = 1;
nodes = (
(384,728,o),
(369,715,o),
(352,715,cs),
(334,715,o),
(319,728,o),
(319,744,cs),
(319,759,o),
(334,772,o),
(352,772,cs),
(369,772,o),
(384,759,o),
(384,744,cs)
);
}
);
};
layerId = "6B947F8E-B64D-4F43-8779-746217178CEC";
shapes = (
{
alignment = -1;
ref = A;
},
{
alignment = -1;
pos = (58,183);
ref = dieresis;
}
);
width = 504;
}
);
unicode = 196;
},
{
glyphname = Agrave;
kernLeft = A1;
kernRight = A;
lastChange = "2024-07-18 12:46:04 +0000";
layers = (
{
anchors = (
{
name = bottom;
pos = (718,76);
}
);
background = {
anchors = (
{
name = bottom;
pos = (718,76);
},
{
name = top;
pos = (455,643);
}
);
shapes = (
{
closed = 1;
nodes = (
(46,98,o),
(40,12,o),
(190,-1,cs),
(320,-12,o),
(338,60,o),
(338,60,c),
(355,155,o),
(353,147,o),
(383,249,c),
(401,297,o),
(443,366,o),
(463,409,c),
(487,359,o),
(506,309,o),
(535,235,cs),
(547,205,o),
(557,152,o),
(583,76,c),
(583,76,o),
(613,-5,o),
(742,-5,cs),
(871,-5,o),
(865,68,o),
(865,68,c),
(842,241,o),
(758,404,o),
(718,480,c),
(673,588,o),
(526,651,o),
(460,643,c),
(368,642,o),
(283,649,o),
(149,417,c),
(97,307,o),
(50,200,o),
(46,98,c)
);
},
{
closed = 1;
nodes = (
(218,87,l),
(343,110,o),
(544,104,o),
(685,87,c),
(659,239,l),
(500,248,o),
(380,239,o),
(241,217,c)
);
},
{
closed = 1;
nodes = (
(392,837,o),
(310,848,o),
(277,813,cs),
(239,774,o),
(293,742,o),
(293,742,c),
(358,700,o),
(478,678,o),
(520,674,c),
(520,674,o),
(604,664,o),
(632,700,cs),
(683,761,o),
(578,797,o),
(578,797,c),
(479,826,o),
(431,832,o),
(392,837,c)
);
}
);
};
layerId = "1EECF98D-35CB-4836-8875-A967ACEC66D2";
shapes = (
{
alignment = -1;
ref = A;
},
{
alignment = -1;
pos = (218,183);
ref = grave;
}
);
width = 911;
},
{
anchors = (
{
name = bottom;
pos = (639,43);
}
);
background = {
anchors = (
{
name = bottom;
pos = (639,43);
},
{
name = top;
pos = (381,643);
}
);
shapes = (
{
closed = 1;
nodes = (
(75,23,o),
(77,2,o),
(111,-1,cs),
(146,-4,o),
(149,15,o),
(149,15,c),
(156,136,o),
(197,270,o),
(258,413,c),
(287,484,o),
(329,547,o),
(392,598,c),
(431,550,o),
(467,491,o),
(495,418,cs),
(542,304,o),
(579,164,o),
(611,15,c),
(611,15,o),
(618,-2,o),
(650,-1,cs),
(681,0,o),
(680,15,o),
(680,15,c),
(656,189,o),
(585,396,o),
(545,472,c),
(500,581,o),
(447,651,o),
(381,643,c),
(290,642,o),
(233,533,o),
(179,417,c),
(122,282,o),
(84,150,o),
(75,23,c)
);
},
{
closed = 1;
nodes = (
(140,95,l),
(264,117,o),
(465,122,o),
(606,105,c),
(597,146,l),
(440,154,o),
(290,149,o),
(150,127,c)
);
},
{
closed = 1;
nodes = (
(258,815,o),
(236,825,o),
(224,811,cs),
(212,797,o),
(236,790,o),
(236,790,c),
(320,755,o),
(414,723,o),
(518,693,c),
(518,693,o),
(545,687,o),
(554,700,cs),
(563,714,o),
(540,724,o),
(540,724,c),
(441,754,o),
(348,784,o),
(258,815,c)
);
}
);
};
layerId = "1C3422F9-BFDE-4FE8-A46C-291A8D4071B9";
shapes = (
{
alignment = -1;
ref = A;
},
{
alignment = -1;
pos = (145,183);
ref = grave;
}
);
width = 756;
},
{
anchors = (
{
name = bottom;
pos = (479,76);
}
);
background = {
anchors = (
{
name = bottom;
pos = (479,76);
},
{
name = top;
pos = (304,643);
}
);
shapes = (
{
closed = 1;
nodes = (
(31,98,o),
(27,12,o),
(127,-1,cs),
(214,-12,o),
(226,60,o),
(226,60,c),
(237,155,o),
(236,147,o),
(256,249,c),
(268,297,o),
(296,366,o),
(309,409,c),
(325,359,o),
(338,309,o),
(357,235,cs),
(365,205,o),
(372,152,o),
(389,76,c),
(389,76,o),
(409,-5,o),
(495,-5,cs),
(581,-5,o),
(577,68,o),
(577,68,c),
(562,241,o),
(506,404,o),
(479,480,c),
(449,588,o),
(351,651,o),
(307,643,c),
(246,642,o),
(189,649,o),
(100,417,c),
(65,307,o),
(34,200,o),
(31,98,c)
);
},
{
closed = 1;
nodes = (
(146,87,l),
(229,110,o),
(363,104,o),
(457,87,c),
(440,239,l),
(334,248,o),
(254,239,o),
(161,217,c)
);
},
{
closed = 1;
nodes = (
(262,837,o),
(207,848,o),
(185,813,cs),
(160,774,o),
(196,742,o),
(196,742,c),
(239,700,o),
(319,678,o),
(347,674,c),
(347,674,o),
(403,664,o),
(422,700,cs),
(456,761,o),
(386,797,o),
(386,797,c),
(320,826,o),
(288,832,o),
(262,837,c)
);
}
);
};
layerId = "EE7B1B97-935D-491C-911D-EA8B82785AFC";
shapes = (
{
alignment = -1;
ref = A;
},
{
alignment = -1;
pos = (146,183);
ref = grave;
}
);
width = 608;
},
{
anchors = (
{
name = bottom;
pos = (426,43);
}
);
background = {
anchors = (
{
name = bottom;
pos = (426,43);
},
{
name = top;
pos = (254,643);
}
);
shapes = (
{
closed = 1;
nodes = (
(50,23,o),
(51,2,o),
(74,-1,cs),
(97,-4,o),
(99,15,o),
(99,15,c),
(104,136,o),
(131,270,o),
(172,413,c),
(191,484,o),
(219,547,o),
(261,598,c),
(287,550,o),
(311,491,o),
(330,418,cs),
(361,304,o),
(386,164,o),
(407,15,c),
(407,15,o),
(412,-2,o),
(433,-1,cs),
(454,0,o),
(453,15,o),
(453,15,c),
(437,189,o),
(390,396,o),
(363,472,c),
(333,581,o),
(298,651,o),
(254,643,c),
(193,642,o),
(155,533,o),
(119,417,c),
(81,282,o),
(56,150,o),
(50,23,c)
);
},
{
closed = 1;
nodes = (
(93,95,l),
(176,117,o),
(310,122,o),
(404,105,c),
(398,146,l),
(293,154,o),
(193,149,o),
(100,127,c)
);
},
{
closed = 1;
nodes = (
(172,815,o),
(157,825,o),
(149,811,cs),
(141,797,o),
(157,790,o),
(157,790,c),
(213,755,o),
(276,723,o),
(345,693,c),
(345,693,o),
(363,687,o),
(369,700,cs),
(375,714,o),
(360,724,o),
(360,724,c),
(294,754,o),
(232,784,o),
(172,815,c)
);
}
);
};
layerId = "6B947F8E-B64D-4F43-8779-746217178CEC";
shapes = (
{
alignment = -1;
ref = A;
},
{
alignment = -1;
pos = (96,183);
ref = grave;
}
);
width = 504;
}
);
unicode = 192;
},
{
glyphname = Amacron;
kernLeft = A1;
kernRight = A;
lastChange = "2024-07-18 12:46:04 +0000";
layers = (
{
anchors = (
{
name = bottom;
pos = (718,76);
}
);
background = {
anchors = (
{
name = bottom;
pos = (718,76);
},
{
name = top;
pos = (455,643);
}
);
shapes = (
{
closed = 1;
nodes = (
(46,98,o),
(40,12,o),
(190,-1,cs),
(320,-12,o),
(338,60,o),
(338,60,c),
(355,155,o),
(353,147,o),
(383,249,c),
(401,297,o),
(443,366,o),
(463,409,c),
(487,359,o),
(506,309,o),
(535,235,cs),
(547,205,o),
(557,152,o),
(583,76,c),
(583,76,o),
(613,-5,o),
(742,-5,cs),
(871,-5,o),
(865,68,o),
(865,68,c),
(842,241,o),
(758,404,o),
(718,480,c),
(673,588,o),
(526,651,o),
(460,643,c),
(368,642,o),
(283,649,o),
(149,417,c),
(97,307,o),
(50,200,o),
(46,98,c)
);
},
{
closed = 1;
nodes = (
(218,87,l),
(343,110,o),
(544,104,o),
(685,87,c),
(659,239,l),
(500,248,o),
(380,239,o),
(241,217,c)
);
},
{
closed = 1;
nodes = (
(219,807,o),
(141,791,o),
(173,728,cs),
(201,668,o),
(303,673,o),
(303,673,c),
(476,680,o),
(425,677,o),
(635,668,c),
(635,668,o),
(744,672,o),
(744,744,cs),
(744,799,o),
(629,826,o),
(629,826,c),
(428,848,o),
(336,825,o),
(219,807,c)
);
}
);
};
layerId = "1EECF98D-35CB-4836-8875-A967ACEC66D2";
shapes = (
{
alignment = -1;
ref = A;
},
{
alignment = -1;
pos = (90,183);
ref = macron;
}
);
width = 911;
},
{
anchors = (
{
name = bottom;
pos = (639,43);
}
);
background = {
anchors = (
{
name = bottom;
pos = (639,43);
},
{
name = top;
pos = (381,643);
}
);
shapes = (
{
closed = 1;
nodes = (
(75,23,o),
(77,2,o),
(111,-1,cs),
(146,-4,o),
(149,15,o),
(149,15,c),
(156,136,o),
(197,270,o),
(258,413,c),
(287,484,o),
(329,547,o),
(392,598,c),
(431,550,o),
(467,491,o),
(495,418,cs),
(542,304,o),
(579,164,o),
(611,15,c),
(611,15,o),
(618,-2,o),
(650,-1,cs),
(681,0,o),
(680,15,o),
(680,15,c),
(656,189,o),
(585,396,o),
(545,472,c),
(500,581,o),
(447,651,o),
(381,643,c),
(290,642,o),
(233,533,o),
(179,417,c),
(122,282,o),
(84,150,o),
(75,23,c)
);
},
{
closed = 1;
nodes = (
(140,95,l),
(264,117,o),
(465,122,o),
(606,105,c),
(597,146,l),
(440,154,o),
(290,149,o),
(150,127,c)
);
},
{
closed = 1;
nodes = (
(115,760,o),
(85,755,o),
(93,739,cs),
(99,724,o),
(133,726,o),
(133,726,c),
(331,737,o),
(415,737,o),
(625,728,c),
(625,728,o),
(658,726,o),
(663,744,cs),
(667,762,o),
(624,768,o),
(624,768,c),
(405,781,o),
(315,780,o),
(115,760,c)
);
}
);
};
layerId = "1C3422F9-BFDE-4FE8-A46C-291A8D4071B9";
shapes = (
{
alignment = -1;
ref = A;
},
{
alignment = -1;
pos = (16,183);
ref = macron;
}
);
width = 756;
},
{
anchors = (
{
name = bottom;
pos = (479,76);
}
);
background = {
anchors = (
{
name = bottom;
pos = (479,76);
},
{
name = top;
pos = (304,643);
}
);
shapes = (
{
closed = 1;
nodes = (
(31,98,o),
(27,12,o),
(127,-1,cs),
(214,-12,o),
(226,60,o),
(226,60,c),
(237,155,o),
(236,147,o),
(256,249,c),
(268,297,o),
(296,366,o),
(309,409,c),
(325,359,o),
(338,309,o),
(357,235,cs),
(365,205,o),
(372,152,o),
(389,76,c),
(389,76,o),
(409,-5,o),
(495,-5,cs),
(581,-5,o),
(577,68,o),
(577,68,c),
(562,241,o),
(506,404,o),
(479,480,c),
(449,588,o),
(351,651,o),
(307,643,c),
(246,642,o),
(189,649,o),
(100,417,c),
(65,307,o),
(34,200,o),
(31,98,c)
);
},
{
closed = 1;
nodes = (
(146,87,l),
(229,110,o),
(363,104,o),
(457,87,c),
(440,239,l),
(334,248,o),
(254,239,o),
(161,217,c)
);
},
{
closed = 1;
nodes = (
(147,807,o),
(95,791,o),
(116,728,cs),
(135,668,o),
(203,673,o),
(203,673,c),
(318,680,o),
(284,677,o),
(424,668,c),
(424,668,o),
(497,672,o),
(497,744,cs),
(497,799,o),
(420,826,o),
(420,826,c),
(286,848,o),
(225,825,o),
(147,807,c)
);
}
);
};
layerId = "EE7B1B97-935D-491C-911D-EA8B82785AFC";
shapes = (
{
alignment = -1;
ref = A;
},
{
alignment = -1;
pos = (61,183);
ref = macron;
}
);
width = 608;
},
{
anchors = (
{
name = bottom;
pos = (426,43);
}
);
background = {
anchors = (
{
name = bottom;
pos = (426,43);
},
{
name = top;
pos = (254,643);
}
);
shapes = (
{
closed = 1;
nodes = (
(50,23,o),
(51,2,o),
(74,-1,cs),
(97,-4,o),
(99,15,o),
(99,15,c),
(104,136,o),
(131,270,o),
(172,413,c),
(191,484,o),
(219,547,o),
(261,598,c),
(287,550,o),
(311,491,o),
(330,418,cs),
(361,304,o),
(386,164,o),
(407,15,c),
(407,15,o),
(412,-2,o),
(433,-1,cs),
(454,0,o),
(453,15,o),
(453,15,c),
(437,189,o),
(390,396,o),
(363,472,c),
(333,581,o),
(298,651,o),
(254,643,c),
(193,642,o),
(155,533,o),
(119,417,c),
(81,282,o),
(56,150,o),
(50,23,c)
);
},
{
closed = 1;
nodes = (
(93,95,l),
(176,117,o),
(310,122,o),
(404,105,c),
(398,146,l),
(293,154,o),
(193,149,o),
(100,127,c)
);
},
{
closed = 1;
nodes = (
(77,760,o),
(57,755,o),
(62,739,cs),
(66,724,o),
(89,726,o),
(89,726,c),
(221,737,o),
(277,737,o),
(417,728,c),
(417,728,o),
(439,726,o),
(442,744,cs),
(445,762,o),
(416,768,o),
(416,768,c),
(270,781,o),
(210,780,o),
(77,760,c)
);
}
);
};
layerId = "6B947F8E-B64D-4F43-8779-746217178CEC";
shapes = (
{
alignment = -1;
ref = A;
},
{
alignment = -1;
pos = (11,183);
ref = macron;
}
);
width = 504;
}
);
unicode = 256;
},
{
glyphname = Aogonek;
kernLeft = A1;
kernRight = A;
lastChange = "2024-07-19 09:42:31 +0000";
layers = (
{
background = {
shapes = (
{
closed = 1;
nodes = (
(46,98,o),
(40,12,o),
(190,-1,cs),
(320,-12,o),
(338,60,o),
(338,60,c),
(355,155,o),
(353,147,o),
(383,249,c),
(401,297,o),
(443,366,o),
(463,409,c),
(487,359,o),
(506,309,o),
(535,235,cs),
(547,205,o),
(557,152,o),
(583,76,c),
(583,76,o),
(613,-5,o),
(742,-5,cs),
(871,-5,o),
(865,68,o),
(865,68,c),
(842,241,o),
(758,404,o),
(718,480,c),
(673,588,o),
(526,651,o),
(460,643,c),
(368,642,o),
(283,649,o),
(149,417,c),
(97,307,o),
(50,200,o),
(46,98,c)
);
},
{
closed = 1;
nodes = (
(218,87,l),
(343,110,o),
(544,104,o),
(685,87,c),
(659,239,l),
(500,248,o),
(380,239,o),
(241,217,c)
);
},
{
closed = 1;
nodes = (
(557,18,o),
(544,-36,o),
(542,-63,c),
(542,-106,o),
(598,-173,o),
(740,-168,c),
(805,-169,o),
(853,-141,o),
(884,-111,c),
(884,-111,o),
(911,-77,o),
(866,-60,cs),
(823,-43,o),
(790,-58,o),
(790,-58,c),
(773,-65,o),
(757,-71,o),
(731,-78,cs),
(715,-82,o),
(730,-59,o),
(730,-57,c),
(740,-40,o),
(751,-35,o),
(782,-13,c),
(782,-13,o),
(826,20,o),
(773,48,cs),
(728,71,o),
(671,54,o),
(671,54,c)
);
}
);
};
layerId = "1EECF98D-35CB-4836-8875-A967ACEC66D2";
shapes = (
{
closed = 1;
nodes = (
(871,-5,o),
(865,68,o),
(865,68,c),
(842,241,o),
(758,404,o),
(718,480,c),
(673,588,o),
(526,651,o),
(460,643,c),
(368,642,o),
(283,649,o),
(149,417,c),
(97,307,o),
(50,200,o),
(46,98,c),
(46,98,o),
(40,12,o),
(190,-1,cs),
(320,-12,o),
(338,60,o),
(338,60,c),
(355,155,o),
(353,147,o),
(383,249,c),
(401,297,o),
(443,366,o),
(463,409,c),
(487,359,o),
(506,309,o),
(535,235,cs),
(547,205,o),
(557,152,o),
(583,76,c),
(583,76,o),
(613,-5,o),
(742,-5,cs)
);
},
{
closed = 1;
nodes = (
(343,110,o),
(544,104,o),
(685,87,c),
(659,239,l),
(500,248,o),
(380,239,o),
(241,217,c),
(218,87,l)
);
},
{
closed = 1;
nodes = (
(805,-169,o),
(853,-141,o),
(884,-111,c),
(884,-111,o),
(911,-77,o),
(866,-60,cs),
(823,-43,o),
(790,-58,o),
(790,-58,c),
(773,-65,o),
(757,-71,o),
(731,-78,cs),
(715,-82,o),
(730,-59,o),
(730,-57,c),
(740,-40,o),
(751,-35,o),
(782,-13,c),
(782,-13,o),
(826,20,o),
(773,48,cs),
(728,71,o),
(671,54,o),
(671,54,c),
(557,18,o),
(544,-36,o),
(542,-63,c),
(542,-106,o),
(598,-173,o),
(740,-168,c)
);
}
);
width = 911;
},
{
background = {
shapes = (
{
closed = 1;
nodes = (
(75,23,o),
(77,2,o),
(111,-1,cs),
(146,-4,o),
(149,15,o),
(149,15,c),
(156,136,o),
(197,270,o),
(258,413,cs),
(287,484,o),
(329,547,o),
(392,598,c),
(431,550,o),
(467,491,o),
(495,418,cs),
(542,304,o),
(579,164,o),
(611,15,c),
(611,15,o),
(618,-2,o),
(650,-1,cs),
(681,0,o),
(680,15,o),
(680,15,c),
(656,189,o),
(585,396,o),
(545,472,c),
(500,581,o),
(447,651,o),
(381,643,c),
(290,642,o),
(233,533,o),
(179,417,c),
(122,282,o),
(84,150,o),
(75,23,c)
);
},
{
closed = 1;
nodes = (
(140,95,l),
(264,117,o),
(465,122,o),
(606,105,c),
(597,146,l),
(440,154,o),
(290,149,o),
(150,127,c)
);
},
{
closed = 1;
nodes = (
(523,-21,o),
(495,-71,o),
(493,-107,c),
(493,-166,o),
(556,-208,o),
(660,-201,cs),
(711,-197,o),
(757,-178,o),
(799,-137,c),
(799,-137,o),
(805,-130,o),
(790,-124,cs),
(775,-118,o),
(768,-125,o),
(768,-125,c),
(739,-143,o),
(705,-161,o),
(654,-171,c),
(589,-173,o),
(550,-156,o),
(552,-108,c),
(559,-68,o),
(606,-30,o),
(666,3,c),
(666,3,o),
(684,13,o),
(673,22,c),
(663,32,o),
(630,20,o),
(630,20,c)
);
}
);
};
layerId = "1C3422F9-BFDE-4FE8-A46C-291A8D4071B9";
shapes = (
{
closed = 1;
nodes = (
(681,0,o),
(680,15,o),
(680,15,c),
(656,189,o),
(585,396,o),
(545,472,c),
(500,581,o),
(447,651,o),
(381,643,c),
(290,642,o),
(233,533,o),
(179,417,c),
(122,282,o),
(84,150,o),
(75,23,c),
(75,23,o),
(77,2,o),
(111,-1,cs),
(146,-4,o),
(149,15,o),
(149,15,c),
(156,136,o),
(197,270,o),
(258,413,cs),
(287,484,o),
(329,547,o),
(392,598,c),
(431,550,o),
(467,491,o),
(495,418,cs),
(542,304,o),
(579,164,o),
(611,15,c),
(611,15,o),
(618,-2,o),
(650,-1,cs)
);
},
{
closed = 1;
nodes = (
(264,117,o),
(465,122,o),
(606,105,c),
(597,146,l),
(440,154,o),
(290,149,o),
(150,127,c),
(140,95,l)
);
},
{
closed = 1;
nodes = (
(711,-197,o),
(757,-178,o),
(799,-137,c),
(799,-137,o),
(805,-130,o),
(790,-124,cs),
(775,-118,o),
(768,-125,o),
(768,-125,c),
(739,-143,o),
(705,-161,o),
(654,-171,c),
(589,-173,o),
(550,-156,o),
(552,-108,c),
(559,-68,o),
(606,-30,o),
(666,3,c),
(666,3,o),
(684,13,o),
(673,22,c),
(663,32,o),
(630,20,o),
(630,20,c),
(523,-21,o),
(495,-71,o),
(493,-107,c),
(493,-166,o),
(556,-208,o),
(660,-201,cs)
);
}
);
width = 756;
},
{
background = {
shapes = (
{
closed = 1;
nodes = (
(31,98,o),
(27,12,o),
(127,-1,cs),
(214,-12,o),
(226,60,o),
(226,60,c),
(237,155,o),
(236,147,o),
(256,249,c),
(268,297,o),
(296,366,o),
(309,409,c),
(325,359,o),
(338,309,o),
(357,235,cs),
(365,205,o),
(372,152,o),
(389,76,c),
(389,76,o),
(409,-5,o),
(495,-5,cs),
(581,-5,o),
(577,68,o),
(577,68,c),
(562,241,o),
(506,404,o),
(479,480,c),
(449,588,o),
(351,651,o),
(307,643,c),
(246,642,o),
(189,649,o),
(100,417,c),
(65,307,o),
(34,200,o),
(31,98,c)
);
},
{
closed = 1;
nodes = (
(146,87,l),
(229,110,o),
(363,104,o),
(457,87,c),
(440,239,l),
(334,248,o),
(254,239,o),
(161,217,c)
);
},
{
closed = 1;
nodes = (
(372,18,o),
(363,-36,o),
(362,-63,c),
(362,-106,o),
(399,-173,o),
(494,-168,c),
(537,-169,o),
(569,-141,o),
(590,-111,c),
(590,-111,o),
(608,-77,o),
(578,-60,cs),
(549,-43,o),
(527,-58,o),
(527,-58,c),
(516,-65,o),
(505,-71,o),
(488,-78,cs),
(477,-82,o),
(487,-59,o),
(487,-57,c),
(494,-40,o),
(501,-35,o),
(522,-13,c),
(522,-13,o),
(551,20,o),
(516,48,cs),
(486,71,o),
(448,54,o),
(448,54,c)
);
}
);
};
layerId = "EE7B1B97-935D-491C-911D-EA8B82785AFC";
shapes = (
{
closed = 1;
nodes = (
(581,-5,o),
(577,68,o),
(577,68,c),
(562,241,o),
(506,404,o),
(479,480,c),
(449,588,o),
(351,651,o),
(307,643,c),
(246,642,o),
(189,649,o),
(100,417,c),
(65,307,o),
(34,200,o),
(31,98,c),
(31,98,o),
(27,12,o),
(127,-1,cs),
(214,-12,o),
(226,60,o),
(226,60,c),
(237,155,o),
(236,147,o),
(256,249,c),
(268,297,o),
(296,366,o),
(309,409,c),
(325,359,o),
(338,309,o),
(357,235,cs),
(365,205,o),
(372,152,o),
(389,76,c),
(389,76,o),
(409,-5,o),
(495,-5,cs)
);
},
{
closed = 1;
nodes = (
(229,110,o),
(363,104,o),
(457,87,c),
(440,239,l),
(334,248,o),
(254,239,o),
(161,217,c),
(146,87,l)
);
},
{
closed = 1;
nodes = (
(537,-169,o),
(569,-141,o),
(590,-111,c),
(590,-111,o),
(608,-77,o),
(578,-60,cs),
(549,-43,o),
(527,-58,o),
(527,-58,c),
(516,-65,o),
(505,-71,o),
(488,-78,cs),
(477,-82,o),
(487,-59,o),
(487,-57,c),
(494,-40,o),
(501,-35,o),
(522,-13,c),
(522,-13,o),
(551,20,o),
(516,48,cs),
(486,71,o),
(448,54,o),
(448,54,c),
(372,18,o),
(363,-36,o),
(362,-63,c),
(362,-106,o),
(399,-173,o),
(494,-168,c)
);
}
);
width = 608;
},
{
background = {
shapes = (
{
closed = 1;
nodes = (
(50,23,o),
(51,2,o),
(74,-1,cs),
(97,-4,o),
(99,15,o),
(99,15,c),
(104,136,o),
(131,270,o),
(172,413,c),
(191,484,o),
(219,547,o),
(261,598,c),
(287,550,o),
(311,491,o),
(330,418,cs),
(361,304,o),
(386,164,o),
(407,15,c),
(407,15,o),
(412,-2,o),
(433,-1,cs),
(454,0,o),
(453,15,o),
(453,15,c),
(437,189,o),
(390,396,o),
(363,472,c),
(333,581,o),
(298,651,o),
(254,643,c),
(193,642,o),
(155,533,o),
(119,417,c),
(81,282,o),
(56,150,o),
(50,23,c)
);
},
{
closed = 1;
nodes = (
(93,95,l),
(176,117,o),
(310,122,o),
(404,105,c),
(398,146,l),
(293,154,o),
(193,149,o),
(100,127,c)
);
},
{
closed = 1;
nodes = (
(349,-21,o),
(330,-71,o),
(329,-107,c),
(329,-166,o),
(371,-208,o),
(440,-201,cs),
(474,-197,o),
(505,-178,o),
(533,-137,c),
(533,-137,o),
(537,-130,o),
(527,-124,cs),
(517,-118,o),
(512,-125,o),
(512,-125,c),
(493,-143,o),
(470,-161,o),
(436,-171,c),
(393,-173,o),
(367,-156,o),
(368,-108,c),
(373,-68,o),
(404,-30,o),
(444,3,c),
(444,3,o),
(456,13,o),
(449,22,cs),
(442,32,o),
(420,20,o),
(420,20,c)
);
}
);
};
layerId = "6B947F8E-B64D-4F43-8779-746217178CEC";
shapes = (
{
closed = 1;
nodes = (
(454,0,o),
(453,15,o),
(453,15,c),
(437,189,o),
(390,396,o),
(363,472,c),
(333,581,o),
(298,651,o),
(254,643,c),
(193,642,o),
(155,533,o),
(119,417,c),
(81,282,o),
(56,150,o),
(50,23,c),
(50,23,o),
(51,2,o),
(74,-1,cs),
(97,-4,o),
(99,15,o),
(99,15,c),
(104,136,o),
(131,270,o),
(172,413,c),
(191,484,o),
(219,547,o),
(261,598,c),
(287,550,o),
(311,491,o),
(330,418,cs),
(361,304,o),
(386,164,o),
(407,15,c),
(407,15,o),
(412,-2,o),
(433,-1,cs)
);
},
{
closed = 1;
nodes = (
(176,117,o),
(310,122,o),
(404,105,c),
(398,146,l),
(293,154,o),
(193,149,o),
(100,127,c),
(93,95,l)
);
},
{
closed = 1;
nodes = (
(474,-197,o),
(505,-178,o),
(533,-137,c),
(533,-137,o),
(537,-130,o),
(527,-124,cs),
(517,-118,o),
(512,-125,o),
(512,-125,c),
(493,-143,o),
(470,-161,o),
(436,-171,c),
(393,-173,o),
(367,-156,o),
(368,-108,c),
(373,-68,o),
(404,-30,o),
(444,3,c),
(444,3,o),
(456,13,o),
(449,22,cs),
(442,32,o),
(420,20,o),
(420,20,c),
(349,-21,o),
(330,-71,o),
(329,-107,c),
(329,-166,o),
(371,-208,o),
(440,-201,cs)
);
}
);
width = 504;
}
);
unicode = 260;
},
{
glyphname = Aring;
kernLeft = A1;
kernRight = A;
lastChange = "2024-07-18 12:46:04 +0000";
layers = (
{
anchors = (
{
name = bottom;
pos = (718,76);
}
);
background = {
anchors = (
{
name = bottom;
pos = (718,76);
},
{
name = top;
pos = (455,643);
}
);
shapes = (
{
closed = 1;
nodes = (
(46,98,o),
(40,12,o),
(190,-1,cs),
(320,-12,o),
(338,60,o),
(338,60,c),
(355,155,o),
(353,147,o),
(383,249,c),
(401,297,o),
(443,366,o),
(463,409,c),
(487,359,o),
(506,309,o),
(535,235,cs),
(547,205,o),
(557,152,o),
(583,76,c),
(583,76,o),
(613,-5,o),
(742,-5,cs),
(871,-5,o),
(865,68,o),
(865,68,c),
(842,241,o),
(758,404,o),
(718,480,c),
(673,588,o),
(526,651,o),
(460,643,c),
(368,642,o),
(283,649,o),
(149,417,c),
(97,307,o),
(50,200,o),
(46,98,c)
);
},
{
closed = 1;
nodes = (
(218,87,l),
(343,110,o),
(544,104,o),
(685,87,c),
(659,239,l),
(500,248,o),
(380,239,o),
(241,217,c)
);
},
{
closed = 1;
nodes = (
(349,885,o),
(263,837,o),
(263,776,cs),
(263,715,o),
(337,657,o),
(445,657,cs),
(565,657,o),
(635,719,o),
(635,780,cs),
(635,846,o),
(541,885,o),
(445,885,cs)
);
},
{
closed = 1;
nodes = (
(430,751,o),
(416,761,o),
(416,772,cs),
(416,783,o),
(431,791,o),
(448,791,cs),
(466,791,o),
(482,784,o),
(482,773,cs),
(482,762,o),
(470,751,o),
(448,751,cs)
);
}
);
};
layerId = "1EECF98D-35CB-4836-8875-A967ACEC66D2";
shapes = (
{
alignment = -1;
ref = A;
},
{
alignment = -1;
pos = (218,183);
ref = ring;
}
);
width = 911;
},
{
anchors = (
{
name = bottom;
pos = (639,43);
}
);
background = {
anchors = (
{
name = bottom;
pos = (639,43);
},
{
name = top;
pos = (381,643);
}
);
shapes = (
{
closed = 1;
nodes = (
(75,23,o),
(77,2,o),
(111,-1,cs),
(146,-4,o),
(149,15,o),
(149,15,c),
(156,136,o),
(197,270,o),
(258,413,c),
(287,484,o),
(329,547,o),
(392,598,c),
(431,550,o),
(467,491,o),
(495,418,cs),
(542,304,o),
(579,164,o),
(611,15,c),
(611,15,o),
(618,-2,o),
(650,-1,cs),
(681,0,o),
(680,15,o),
(680,15,c),
(656,189,o),
(585,396,o),
(545,472,c),
(500,581,o),
(447,651,o),
(381,643,c),
(290,642,o),
(233,533,o),
(179,417,c),
(122,282,o),
(84,150,o),
(75,23,c)
);
},
{
closed = 1;
nodes = (
(140,95,l),
(264,117,o),
(465,122,o),
(606,105,c),
(597,146,l),
(440,154,o),
(290,149,o),
(150,127,c)
);
},
{
closed = 1;
nodes = (
(318,851,o),
(258,818,o),
(258,775,cs),
(258,732,o),
(311,691,o),
(386,691,cs),
(470,691,o),
(519,735,o),
(519,777,cs),
(519,823,o),
(453,851,o),
(386,851,cs)
);
},
{
closed = 1;
nodes = (
(333,715,o),
(297,744,o),
(297,774,cs),
(297,804,o),
(339,827,o),
(387,827,cs),
(434,827,o),
(480,808,o),
(480,775,cs),
(480,746,o),
(446,715,o),
(386,715,cs)
);
}
);
};
layerId = "1C3422F9-BFDE-4FE8-A46C-291A8D4071B9";
shapes = (
{
alignment = -1;
ref = A;
},
{
alignment = -1;
pos = (183,183);
ref = ring;
}
);
width = 756;
},
{
anchors = (
{
name = bottom;
pos = (479,76);
}
);
background = {
anchors = (
{
name = bottom;
pos = (479,76);
},
{
name = top;
pos = (304,643);
}
);
shapes = (
{
closed = 1;
nodes = (
(31,98,o),
(27,12,o),
(127,-1,cs),
(214,-12,o),
(226,60,o),
(226,60,c),
(237,155,o),
(236,147,o),
(256,249,c),
(268,297,o),
(296,366,o),
(309,409,c),
(325,359,o),
(338,309,o),
(357,235,cs),
(365,205,o),
(372,152,o),
(389,76,c),
(389,76,o),
(409,-5,o),
(495,-5,cs),
(581,-5,o),
(577,68,o),
(577,68,c),
(562,241,o),
(506,404,o),
(479,480,c),
(449,588,o),
(351,651,o),
(307,643,c),
(246,642,o),
(189,649,o),
(100,417,c),
(65,307,o),
(34,200,o),
(31,98,c)
);
},
{
closed = 1;
nodes = (
(146,87,l),
(229,110,o),
(363,104,o),
(457,87,c),
(440,239,l),
(334,248,o),
(254,239,o),
(161,217,c)
);
},
{
closed = 1;
nodes = (
(233,885,o),
(176,837,o),
(176,776,cs),
(176,715,o),
(225,657,o),
(297,657,cs),
(377,657,o),
(424,719,o),
(424,780,cs),
(424,846,o),
(361,885,o),
(297,885,cs)
);
},
{
closed = 1;
nodes = (
(287,751,o),
(278,761,o),
(278,772,cs),
(278,783,o),
(288,791,o),
(299,791,cs),
(311,791,o),
(322,784,o),
(322,773,cs),
(322,762,o),
(314,751,o),
(299,751,cs)
);
}
);
};
layerId = "EE7B1B97-935D-491C-911D-EA8B82785AFC";
shapes = (
{
alignment = -1;
ref = A;
},
{
alignment = -1;
pos = (146,183);
ref = ring;
}
);
width = 608;
},
{
anchors = (
{
name = bottom;
pos = (426,43);
}
);
background = {
anchors = (
{
name = bottom;
pos = (426,43);
},
{
name = top;
pos = (254,643);
}
);
shapes = (
{
closed = 1;
nodes = (
(50,23,o),
(51,2,o),
(74,-1,cs),
(97,-4,o),
(99,15,o),
(99,15,c),
(104,136,o),
(131,270,o),
(172,413,c),
(191,484,o),
(219,547,o),
(261,598,c),
(287,550,o),
(311,491,o),
(330,418,cs),
(361,304,o),
(386,164,o),
(407,15,c),
(407,15,o),
(412,-2,o),
(433,-1,cs),
(454,0,o),
(453,15,o),
(453,15,c),
(437,189,o),
(390,396,o),
(363,472,c),
(333,581,o),
(298,651,o),
(254,643,c),
(193,642,o),
(155,533,o),
(119,417,c),
(81,282,o),
(56,150,o),
(50,23,c)
);
},
{
closed = 1;
nodes = (
(93,95,l),
(176,117,o),
(310,122,o),
(404,105,c),
(398,146,l),
(293,154,o),
(193,149,o),
(100,127,c)
);
},
{
closed = 1;
nodes = (
(212,851,o),
(172,818,o),
(172,775,cs),
(172,732,o),
(207,691,o),
(257,691,cs),
(313,691,o),
(346,735,o),
(346,777,cs),
(346,823,o),
(302,851,o),
(257,851,cs)
);
},
{
closed = 1;
nodes = (
(222,715,o),
(198,744,o),
(198,774,cs),
(198,804,o),
(226,827,o),
(258,827,cs),
(289,827,o),
(320,808,o),
(320,775,cs),
(320,746,o),
(297,715,o),
(257,715,cs)
);
}
);
};
layerId = "6B947F8E-B64D-4F43-8779-746217178CEC";
shapes = (
{
alignment = -1;
ref = A;
},
{
alignment = -1;
pos = (122,183);
ref = ring;
}
);
width = 504;
}
);
unicode = 197;
},
{
glyphname = Atilde;
kernLeft = A1;
kernRight = A;
lastChange = "2024-07-18 12:46:04 +0000";
layers = (
{
anchors = (
{
name = bottom;
pos = (718,76);
}
);
background = {
anchors = (
{
name = bottom;
pos = (718,76);
},
{
name = top;
pos = (455,643);
}
);
shapes = (
{
closed = 1;
nodes = (
(46,98,o),
(40,12,o),
(190,-1,cs),
(320,-12,o),
(338,60,o),
(338,60,c),
(355,155,o),
(353,147,o),
(383,249,c),
(401,297,o),
(443,366,o),
(463,409,c),
(487,359,o),
(506,309,o),
(535,235,cs),
(547,205,o),
(557,152,o),
(583,76,c),
(583,76,o),
(613,-5,o),
(742,-5,cs),
(871,-5,o),
(865,68,o),
(865,68,c),
(842,241,o),
(758,404,o),
(718,480,c),
(673,588,o),
(526,651,o),
(460,643,c),
(368,642,o),
(283,649,o),
(149,417,c),
(97,307,o),
(50,200,o),
(46,98,c)
);
},
{
closed = 1;
nodes = (
(218,87,l),
(343,110,o),
(544,104,o),
(685,87,c),
(659,239,l),
(500,248,o),
(380,239,o),
(241,217,c)
);
},
{
closed = 1;
nodes = (
(218,685,o),
(270,657,o),
(320,672,cs),
(368,687,o),
(362,718,o),
(362,718,c),
(377,712,o),
(414,693,o),
(452,685,c),
(516,666,o),
(572,662,o),
(633,674,cs),
(696,686,o),
(734,728,o),
(737,750,c),
(737,750,o),
(758,806,o),
(650,826,cs),
(573,840,o),
(540,808,o),
(540,808,c),
(533,801,o),
(531,792,o),
(525,792,c),
(452,818,o),
(407,842,o),
(290,833,cs),
(192,826,o),
(123,737,o),
(218,685,c)
);
}
);
};
layerId = "1EECF98D-35CB-4836-8875-A967ACEC66D2";
shapes = (
{
alignment = -1;
ref = A;
},
{
alignment = -1;
pos = (127,183);
ref = tilde;
}
);
width = 911;
},
{
anchors = (
{
name = bottom;
pos = (639,43);
}
);
background = {
anchors = (
{
name = bottom;
pos = (639,43);
},
{
name = top;
pos = (381,643);
}
);
shapes = (
{
closed = 1;
nodes = (
(75,23,o),
(77,2,o),
(111,-1,cs),
(146,-4,o),
(149,15,o),
(149,15,c),
(156,136,o),
(197,270,o),
(258,413,c),
(287,484,o),
(329,547,o),
(392,598,c),
(431,550,o),
(467,491,o),
(495,418,cs),
(542,304,o),
(579,164,o),
(611,15,c),
(611,15,o),
(618,-2,o),
(650,-1,cs),
(681,0,o),
(680,15,o),
(680,15,c),
(656,189,o),
(585,396,o),
(545,472,c),
(500,581,o),
(447,651,o),
(381,643,c),
(290,642,o),
(233,533,o),
(179,417,c),
(122,282,o),
(84,150,o),
(75,23,c)
);
},
{
closed = 1;
nodes = (
(140,95,l),
(264,117,o),
(465,122,o),
(606,105,c),
(597,146,l),
(440,154,o),
(290,149,o),
(150,127,c)
);
},
{
closed = 1;
nodes = (
(147,709,o),
(168,693,o),
(184,701,cs),
(199,708,o),
(181,721,o),
(181,721,c),
(160,753,o),
(226,772,o),
(283,764,c),
(363,748,o),
(483,709,o),
(547,713,cs),
(622,717,o),
(657,737,o),
(669,764,c),
(669,764,o),
(673,785,o),
(646,788,cs),
(619,790,o),
(613,771,o),
(613,771,c),
(598,752,o),
(571,745,o),
(538,745,c),
(432,749,o),
(345,802,o),
(237,795,cs),
(153,790,o),
(99,745,o),
(147,709,c)
);
}
);
};
layerId = "1C3422F9-BFDE-4FE8-A46C-291A8D4071B9";
shapes = (
{
alignment = -1;
ref = A;
},
{
alignment = -1;
pos = (53,183);
ref = tilde;
}
);
width = 756;
},
{
anchors = (
{
name = bottom;
pos = (479,76);
}
);
background = {
anchors = (
{
name = bottom;
pos = (479,76);
},
{
name = top;
pos = (304,643);
}
);
shapes = (
{
closed = 1;
nodes = (
(31,98,o),
(27,12,o),
(127,-1,cs),
(214,-12,o),
(226,60,o),
(226,60,c),
(237,155,o),
(236,147,o),
(256,249,c),
(268,297,o),
(296,366,o),
(309,409,c),
(325,359,o),
(338,309,o),
(357,235,cs),
(365,205,o),
(372,152,o),
(389,76,c),
(389,76,o),
(409,-5,o),
(495,-5,cs),
(581,-5,o),
(577,68,o),
(577,68,c),
(562,241,o),
(506,404,o),
(479,480,c),
(449,588,o),
(351,651,o),
(307,643,c),
(246,642,o),
(189,649,o),
(100,417,c),
(65,307,o),
(34,200,o),
(31,98,c)
);
},
{
closed = 1;
nodes = (
(146,87,l),
(229,110,o),
(363,104,o),
(457,87,c),
(440,239,l),
(334,248,o),
(254,239,o),
(161,217,c)
);
},
{
closed = 1;
nodes = (
(146,685,o),
(181,657,o),
(214,672,cs),
(246,687,o),
(242,718,o),
(242,718,c),
(252,712,o),
(277,693,o),
(302,685,c),
(345,666,o),
(382,662,o),
(423,674,cs),
(465,686,o),
(490,728,o),
(492,750,c),
(492,750,o),
(506,806,o),
(434,826,cs),
(383,840,o),
(361,808,o),
(361,808,c),
(356,801,o),
(355,792,o),
(351,792,c),
(302,818,o),
(272,842,o),
(194,833,cs),
(129,826,o),
(83,737,o),
(146,685,c)
);
}
);
};
layerId = "EE7B1B97-935D-491C-911D-EA8B82785AFC";
shapes = (
{
alignment = -1;
ref = A;
},
{
alignment = -1;
pos = (85,183);
ref = tilde;
}
);
width = 608;
},
{
anchors = (
{
name = bottom;
pos = (426,43);
}
);
background = {
anchors = (
{
name = bottom;
pos = (426,43);
},
{
name = top;
pos = (254,643);
}
);
shapes = (
{
closed = 1;
nodes = (
(50,23,o),
(51,2,o),
(74,-1,cs),
(97,-4,o),
(99,15,o),
(99,15,c),
(104,136,o),
(131,270,o),
(172,413,c),
(191,484,o),
(219,547,o),
(261,598,c),
(287,550,o),
(311,491,o),
(330,418,cs),
(361,304,o),
(386,164,o),
(407,15,c),
(407,15,o),
(412,-2,o),
(433,-1,cs),
(454,0,o),
(453,15,o),
(453,15,c),
(437,189,o),
(390,396,o),
(363,472,c),
(333,581,o),
(298,651,o),
(254,643,c),
(193,642,o),
(155,533,o),
(119,417,c),
(81,282,o),
(56,150,o),
(50,23,c)
);
},
{
closed = 1;
nodes = (
(93,95,l),
(176,117,o),
(310,122,o),
(404,105,c),
(398,146,l),
(293,154,o),
(193,149,o),
(100,127,c)
);
},
{
closed = 1;
nodes = (
(98,709,o),
(112,693,o),
(123,701,cs),
(133,708,o),
(121,721,o),
(121,721,c),
(107,753,o),
(151,772,o),
(189,764,c),
(242,748,o),
(322,709,o),
(365,713,cs),
(415,717,o),
(438,737,o),
(446,764,c),
(446,764,o),
(449,785,o),
(431,788,cs),
(413,790,o),
(409,771,o),
(409,771,c),
(399,752,o),
(381,745,o),
(359,745,c),
(288,749,o),
(230,802,o),
(158,795,cs),
(102,790,o),
(66,745,o),
(98,709,c)
);
}
);
};
layerId = "6B947F8E-B64D-4F43-8779-746217178CEC";
shapes = (
{
alignment = -1;
ref = A;
},
{
alignment = -1;
pos = (35,183);
ref = tilde;
}
);
width = 504;
}
);
unicode = 195;
},
{
color = (153,255,154,255);
glyphname = AE;
kernLeft = A1;
kernRight = E;
lastChange = "2024-07-19 09:42:31 +0000";
layers = (
{
anchors = (
{
name = bottom;
pos = (1155,82);
},
{
name = top;
pos = (823,643);
}
);
associatedMasterId = "6B947F8E-B64D-4F43-8779-746217178CEC";
layerId = "FC2E0489-11A5-440C-8B4C-71CFB6149F63";
name = "#instance";
shapes = (
{
closed = 1;
nodes = (
(51.181,96,o),
(28.398,12,o),
(172.8,-1,cs),
(298.602,-12,o),
(329.788,59,o),
(329.788,59,c),
(365.969,155,o),
(363.97,150,o),
(415.549,253,c),
(443.34,302,o),
(499.126,371,o),
(528.717,414,c),
(543.727,364,o),
(552.737,314,o),
(566.952,240,cs),
(573.359,207,o),
(573.37,152,o),
(583.785,74,c),
(583.785,74,o),
(597.001,-5,o),
(724.001,-5,cs),
(850.001,-5,o),
(858.387,67,o),
(858.387,67,c),
(869.952,240,o),
(819.719,404,o),
(794.904,480,c),
(771.482,588,o),
(639.07,651,o),
(571.471,643,c),
(479.272,642,o),
(396.071,646,o),
(218.317,417,c),
(144.139,306,o),
(75.76,199,o),
(51.181,96,c)
);
},
{
closed = 1;
nodes = (
(218.383,87,l),
(347.978,110,o),
(547.779,104,o),
(685.383,87,c),
(689.353,237,l),
(533.151,246,o),
(410.353,237,o),
(266.957,215,c)
);
},
{
closed = 1;
nodes = (
(619.924,380,o),
(610.941,295,o),
(585.979,105,c),
(586.384,82,o),
(567.399,7,o),
(732.201,-4,c),
(925.202,-9,o),
(1024.399,7,o),
(1212.793,34,c),
(1212.793,34,o),
(1313.99,50,o),
(1297.375,127,c),
(1283.561,193,o),
(1137.762,189,o),
(1137.762,189,c),
(986.766,169,o),
(1018.765,174,o),
(864.568,158,c),
(891.537,313,o),
(893.734,329,o),
(937.9,500,c),
(1259.902,490,l),
(1259.902,490,o),
(1372.901,495,o),
(1384.087,566,c),
(1396.669,654,o),
(1218.07,651,o),
(1218.07,651,c),
(815.671,644,l),
(736.472,638,o),
(700.478,608,o),
(690.882,590,c)
);
},
{
closed = 1;
nodes = (
(685.518,408,l),
(669.351,247,l),
(1100.548,258,l),
(1100.548,258,o),
(1210.748,259,o),
(1225.533,333,cs),
(1239.519,403,o),
(1106.716,419,o),
(1106.716,419,c)
);
}
);
width = 1309;
},
{
anchors = (
{
name = bottom;
pos = (1134,82);
},
{
name = top;
pos = (684,643);
}
);
background = {
anchors = (
{
name = bottom;
pos = (1134,82);
},
{
name = top;
pos = (684,643);
}
);
shapes = (
{
closed = 1;
nodes = (
(31,98,o),
(25,12,o),
(175,-1,cs),
(305,-12,o),
(323,60,o),
(323,60,c),
(340,155,o),
(338,147,o),
(368,249,c),
(386,297,o),
(428,366,o),
(448,409,c),
(472,359,o),
(491,309,o),
(520,235,cs),
(532,205,o),
(542,152,o),
(568,76,c),
(568,76,o),
(598,-5,o),
(727,-5,cs),
(856,-5,o),
(850,68,o),
(850,68,c),
(827,241,o),
(743,404,o),
(703,480,c),
(658,588,o),
(511,651,o),
(445,643,c),
(353,642,o),
(268,649,o),
(134,417,c),
(82,307,o),
(35,200,o),
(31,98,c)
);
},
{
closed = 1;
nodes = (
(203,87,l),
(328,110,o),
(529,104,o),
(670,87,c),
(644,239,l),
(485,248,o),
(365,239,o),
(226,217,c)
);
},
{
closed = 1;
nodes = (
(543,379,o),
(551,297,o),
(564,107,c),
(569,84,o),
(564,7,o),
(734,-4,c),
(929,-9,o),
(1022,7,o),
(1205,34,c),
(1205,34,o),
(1305,50,o),
(1272,128,cs),
(1245,196,o),
(1097,192,o),
(1097,192,c),
(950,172,o),
(987,177,o),
(837,161,c),
(834,315,o),
(833,326,o),
(842,497,c),
(1160,487,l),
(1160,487,o),
(1274,492,o),
(1271,564,cs),
(1266,654,o),
(1085,651,o),
(1085,651,c),
(687,644,l),
(608,638,o),
(578,607,o),
(572,589,c)
);
},
{
closed = 1;
nodes = (
(603,409,l),
(620,245,l),
(1049,256,l),
(1049,256,o),
(1160,257,o),
(1160,333,cs),
(1160,404,o),
(1022,420,o),
(1022,420,c)
);
}
);
};
layerId = "1EECF98D-35CB-4836-8875-A967ACEC66D2";
shapes = (
{
closed = 1;
nodes = (
(305,-12,o),
(323,60,o),
(323,60,c),
(340,155,o),
(338,147,o),
(368,249,c),
(386,297,o),
(428,366,o),
(448,409,c),
(472,359,o),
(491,309,o),
(520,235,cs),
(532,205,o),
(542,152,o),
(568,76,c),
(568,76,o),
(598,-5,o),
(727,-5,cs),
(856,-5,o),
(850,68,o),
(850,68,c),
(827,241,o),
(743,404,o),
(703,480,c),
(658,588,o),
(511,651,o),
(445,643,c),
(353,642,o),
(268,649,o),
(134,417,c),
(82,307,o),
(35,200,o),
(31,98,c),
(31,98,o),
(25,12,o),
(175,-1,cs)
);
},
{
closed = 1;
nodes = (
(328,110,o),
(529,104,o),
(670,87,c),
(644,239,l),
(485,248,o),
(365,239,o),
(226,217,c),
(203,87,l)
);
},
{
closed = 1;
nodes = (
(929,-9,o),
(1022,7,o),
(1205,34,c),
(1205,34,o),
(1305,50,o),
(1272,128,cs),
(1245,196,o),
(1097,192,o),
(1097,192,c),
(950,172,o),
(987,177,o),
(837,161,c),
(834,315,o),
(833,326,o),
(842,497,c),
(1160,487,l),
(1160,487,o),
(1274,492,o),
(1271,564,cs),
(1266,654,o),
(1085,651,o),
(1085,651,c),
(687,644,l),
(608,638,o),
(578,607,o),
(572,589,c),
(543,379,o),
(551,297,o),
(564,107,c),
(569,84,o),
(564,7,o),
(734,-4,c)
);
},
{
closed = 1;
nodes = (
(1049,256,l),
(1049,256,o),
(1160,257,o),
(1160,333,cs),
(1160,404,o),
(1022,420,o),
(1022,420,c),
(603,409,l),
(620,245,l)
);
}
);
width = 1309;
},
{
anchors = (
{
name = bottom;
pos = (1317,82);
},
{
name = top;
pos = (1122,643);
}
);
background = {
anchors = (
{
name = bottom;
pos = (1317,82);
},
{
name = top;
pos = (1122,643);
}
);
shapes = (
{
closed = 1;
nodes = (
(50,23,o),
(52,2,o),
(86,-1,cs),
(121,-4,o),
(124,15,o),
(124,15,c),
(131,136,o),
(172,270,o),
(233,413,cs),
(262,484,o),
(304,547,o),
(367,598,c),
(406,550,o),
(442,491,o),
(470,418,cs),
(517,304,o),
(554,164,o),
(586,15,c),
(586,15,o),
(593,-2,o),
(625,-1,cs),
(656,0,o),
(655,15,o),
(655,15,c),
(631,189,o),
(560,396,o),
(520,472,c),
(475,581,o),
(422,651,o),
(356,643,c),
(265,642,o),
(208,533,o),
(154,417,c),
(97,282,o),
(59,150,o),
(50,23,c)
);
},
{
closed = 1;
nodes = (
(115,95,l),
(239,117,o),
(440,122,o),
(581,105,c),
(572,146,l),
(415,154,o),
(265,149,o),
(125,127,c)
);
},
{
closed = 1;
nodes = (
(562,415,o),
(573,218,o),
(586,23,c),
(594,6,o),
(622,-2,o),
(672,-1,cs),
(859,6,o),
(1050,23,o),
(1243,49,c),
(1243,49,o),
(1269,53,o),
(1261,73,c),
(1254,94,o),
(1218,88,o),
(1218,88,c),
(1071,67,o),
(871,51,o),
(655,37,c),
(637,244,o),
(633,442,o),
(658,620,c),
(1213,606,l),
(1213,606,o),
(1251,603,o),
(1252,624,c),
(1252,645,o),
(1212,647,o),
(1212,647,c),
(667,654,l),
(622,656,o),
(597,648,o),
(591,630,c)
);
},
{
closed = 1;
nodes = (
(616,356,l),
(616,313,l),
(1044,324,l),
(1044,324,o),
(1096,323,o),
(1096,343,cs),
(1096,368,o),
(1035,367,o),
(1035,367,c)
);
}
);
};
layerId = "1C3422F9-BFDE-4FE8-A46C-291A8D4071B9";
shapes = (
{
closed = 1;
nodes = (
(121,-4,o),
(124,15,o),
(124,15,c),
(131,136,o),
(172,270,o),
(233,413,cs),
(262,484,o),
(304,547,o),
(367,598,c),
(406,550,o),
(442,491,o),
(470,418,cs),
(517,304,o),
(554,164,o),
(586,15,c),
(586,15,o),
(593,-2,o),
(625,-1,cs),
(656,0,o),
(655,15,o),
(655,15,c),
(631,189,o),
(560,396,o),
(520,472,c),
(475,581,o),
(422,651,o),
(356,643,c),
(265,642,o),
(208,533,o),
(154,417,c),
(97,282,o),
(59,150,o),
(50,23,c),
(50,23,o),
(52,2,o),
(86,-1,cs)
);
},
{
closed = 1;
nodes = (
(239,117,o),
(440,122,o),
(581,105,c),
(572,146,l),
(415,154,o),
(265,149,o),
(125,127,c),
(115,95,l)
);
},
{
closed = 1;
nodes = (
(859,6,o),
(1050,23,o),
(1243,49,c),
(1243,49,o),
(1269,53,o),
(1261,73,c),
(1254,94,o),
(1218,88,o),
(1218,88,c),
(1071,67,o),
(871,51,o),
(655,37,c),
(637,244,o),
(633,442,o),
(658,620,c),
(1213,606,l),
(1213,606,o),
(1251,603,o),
(1252,624,c),
(1252,645,o),
(1212,647,o),
(1212,647,c),
(667,654,l),
(622,656,o),
(597,648,o),
(591,630,c),
(562,415,o),
(573,218,o),
(586,23,c),
(594,6,o),
(622,-2,o),
(672,-1,cs)
);
},
{
closed = 1;
nodes = (
(1044,324,l),
(1044,324,o),
(1096,323,o),
(1096,343,cs),
(1096,368,o),
(1035,367,o),
(1035,367,c),
(616,356,l),
(616,313,l)
);
}
);
width = 1313;
},
{
anchors = (
{
name = bottom;
pos = (766,82);
},
{
name = top;
pos = (535,643);
}
);
background = {
anchors = (
{
name = bottom;
pos = (766,82);
},
{
name = top;
pos = (535,643);
}
);
shapes = (
{
closed = 1;
nodes = (
(31,98,o),
(27,12,o),
(127,-1,cs),
(214,-12,o),
(226,60,o),
(226,60,c),
(237,155,o),
(236,147,o),
(256,249,c),
(268,297,o),
(296,366,o),
(309,409,c),
(325,359,o),
(338,309,o),
(357,235,cs),
(365,205,o),
(372,152,o),
(389,76,c),
(389,76,o),
(409,-5,o),
(495,-5,cs),
(581,-5,o),
(577,68,o),
(577,68,c),
(562,241,o),
(506,404,o),
(479,480,c),
(449,588,o),
(351,651,o),
(307,643,c),
(246,642,o),
(189,649,o),
(100,417,c),
(65,307,o),
(34,200,o),
(31,98,c)
);
},
{
closed = 1;
nodes = (
(146,87,l),
(229,110,o),
(363,104,o),
(457,87,c),
(440,239,l),
(334,248,o),
(254,239,o),
(161,217,c)
);
},
{
closed = 1;
nodes = (
(374,383,o),
(379,301,o),
(388,111,c),
(391,88,o),
(388,11,o),
(501,0,c),
(631,-5,o),
(693,11,o),
(815,38,c),
(815,38,o),
(882,54,o),
(860,132,cs),
(842,200,o),
(743,196,o),
(743,196,c),
(645,176,o),
(670,181,o),
(570,165,c),
(568,319,o),
(567,330,o),
(573,501,c),
(785,491,l),
(785,491,o),
(861,496,o),
(859,568,cs),
(856,658,o),
(735,655,o),
(735,655,c),
(470,648,l),
(417,642,o),
(397,611,o),
(393,593,c)
);
},
{
closed = 1;
nodes = (
(414,413,l),
(425,249,l),
(711,260,l),
(711,260,o),
(785,261,o),
(785,337,cs),
(785,408,o),
(693,424,o),
(693,424,c)
);
}
);
};
layerId = "EE7B1B97-935D-491C-911D-EA8B82785AFC";
shapes = (
{
closed = 1;
nodes = (
(214,-12,o),
(226,60,o),
(226,60,c),
(237,155,o),
(236,147,o),
(256,249,c),
(268,297,o),
(296,366,o),
(309,409,c),
(325,359,o),
(338,309,o),
(357,235,cs),
(365,205,o),
(372,152,o),
(389,76,c),
(389,76,o),
(409,-5,o),
(495,-5,cs),
(581,-5,o),
(577,68,o),
(577,68,c),
(562,241,o),
(506,404,o),
(479,480,c),
(449,588,o),
(351,651,o),
(307,643,c),
(246,642,o),
(189,649,o),
(100,417,c),
(65,307,o),
(34,200,o),
(31,98,c),
(31,98,o),
(27,12,o),
(127,-1,cs)
);
},
{
closed = 1;
nodes = (
(229,110,o),
(363,104,o),
(457,87,c),
(440,239,l),
(334,248,o),
(254,239,o),
(161,217,c),
(146,87,l)
);
},
{
closed = 1;
nodes = (
(631,-5,o),
(693,11,o),
(815,38,c),
(815,38,o),
(882,54,o),
(860,132,cs),
(842,200,o),
(743,196,o),
(743,196,c),
(645,176,o),
(670,181,o),
(570,165,c),
(568,319,o),
(567,330,o),
(573,501,c),
(785,491,l),
(785,491,o),
(861,496,o),
(859,568,cs),
(856,658,o),
(735,655,o),
(735,655,c),
(470,648,l),
(417,642,o),
(397,611,o),
(393,593,c),
(374,383,o),
(379,301,o),
(388,111,c),
(391,88,o),
(388,11,o),
(501,0,c)
);
},
{
closed = 1;
nodes = (
(711,260,l),
(711,260,o),
(785,261,o),
(785,337,cs),
(785,408,o),
(693,424,o),
(693,424,c),
(414,413,l),
(425,249,l)
);
}
);
width = 895;
},
{
anchors = (
{
name = bottom;
pos = (882,82);
},
{
name = top;
pos = (752,643);
}
);
background = {
anchors = (
{
name = bottom;
pos = (882,82);
},
{
name = top;
pos = (752,643);
}
);
shapes = (
{
closed = 1;
nodes = (
(50,23,o),
(51,2,o),
(74,-1,cs),
(97,-4,o),
(99,15,o),
(99,15,c),
(104,136,o),
(131,270,o),
(172,413,c),
(191,484,o),
(219,547,o),
(261,598,c),
(287,550,o),
(311,491,o),
(330,418,cs),
(361,304,o),
(386,164,o),
(407,15,c),
(407,15,o),
(412,-2,o),
(433,-1,cs),
(454,0,o),
(453,15,o),
(453,15,c),
(437,189,o),
(390,396,o),
(363,472,c),
(333,581,o),
(298,651,o),
(254,643,c),
(193,642,o),
(155,533,o),
(119,417,c),
(81,282,o),
(56,150,o),
(50,23,c)
);
},
{
closed = 1;
nodes = (
(93,95,l),
(176,117,o),
(310,122,o),
(404,105,c),
(398,146,l),
(293,154,o),
(193,149,o),
(100,127,c)
);
},
{
closed = 1;
nodes = (
(391,415,o),
(398,218,o),
(407,23,c),
(412,6,o),
(431,-2,o),
(464,-1,c),
(589,6,o),
(716,23,o),
(845,49,c),
(845,49,o),
(862,53,o),
(857,73,cs),
(852,94,o),
(828,88,o),
(828,88,c),
(730,67,o),
(597,51,o),
(453,37,c),
(441,244,o),
(438,442,o),
(455,620,c),
(825,606,l),
(825,606,o),
(850,603,o),
(851,624,c),
(851,645,o),
(824,647,o),
(824,647,c),
(461,654,l),
(431,656,o),
(414,648,o),
(410,630,c)
);
},
{
closed = 1;
nodes = (
(427,356,l),
(427,313,l),
(712,324,l),
(712,324,o),
(747,323,o),
(747,343,cs),
(747,368,o),
(706,367,o),
(706,367,c)
);
}
);
};
layerId = "6B947F8E-B64D-4F43-8779-746217178CEC";
shapes = (
{
closed = 1;
nodes = (
(97,-4,o),
(99,15,o),
(99,15,c),
(104,136,o),
(131,270,o),
(172,413,c),
(191,484,o),
(219,547,o),
(261,598,c),
(287,550,o),
(311,491,o),
(330,418,cs),
(361,304,o),
(386,164,o),
(407,15,c),
(407,15,o),
(412,-2,o),
(433,-1,cs),
(454,0,o),
(453,15,o),
(453,15,c),
(437,189,o),
(390,396,o),
(363,472,c),
(333,581,o),
(298,651,o),
(254,643,c),
(193,642,o),
(155,533,o),
(119,417,c),
(81,282,o),
(56,150,o),
(50,23,c),
(50,23,o),
(51,2,o),
(74,-1,cs)
);
},
{
closed = 1;
nodes = (
(176,117,o),
(310,122,o),
(404,105,c),
(398,146,l),
(293,154,o),
(193,149,o),
(100,127,c),
(93,95,l)
);
},
{
closed = 1;
nodes = (
(589,6,o),
(716,23,o),
(845,49,c),
(845,49,o),
(862,53,o),
(857,73,cs),
(852,94,o),
(828,88,o),
(828,88,c),
(730,67,o),
(597,51,o),
(453,37,c),
(441,244,o),
(438,442,o),
(455,620,c),
(825,606,l),
(825,606,o),
(850,603,o),
(851,624,c),
(851,645,o),
(824,647,o),
(824,647,c),
(461,654,l),
(431,656,o),
(414,648,o),
(410,630,c),
(391,415,o),
(398,218,o),
(407,23,c),
(412,6,o),
(431,-2,o),
(464,-1,c)
);
},
{
closed = 1;
nodes = (
(712,324,l),
(712,324,o),
(747,323,o),
(747,343,cs),
(747,368,o),
(706,367,o),
(706,367,c),
(427,356,l),
(427,313,l)
);
}
);
width = 908;
}
);
unicode = 198;
},
{
glyphname = B;
kernLeft = H1;
kernRight = B;
lastChange = "2024-07-18 13:22:01 +0000";
layers = (
{
associatedMasterId = "6B947F8E-B64D-4F43-8779-746217178CEC";
layerId = "FC2E0489-11A5-440C-8B4C-71CFB6149F63";
name = "#instance";
shapes = (
{
closed = 1;
nodes = (
(792,345,o),
(857,440,o),
(801,511,c),
(762,579,o),
(635,637,o),
(503,649,c),
(185,649,ls),
(80,649,o),
(66,599,o),
(63,582,c),
(41,421,o),
(39,219,o),
(62,74,c),
(108,-17,o),
(347,-7,o),
(554,5,c),
(725,34,o),
(821,85,o),
(825,168,c),
(836,218,o),
(771,296,o),
(716,319,c)
);
},
{
closed = 1;
nodes = (
(345,503,l),
(389,503,o),
(432,502,o),
(452,501,c),
(498,496,o),
(519,484,o),
(522,467,c),
(521,451,o),
(501,442,o),
(471,435,c),
(428,430,o),
(384,429,o),
(341,431,c)
);
},
{
closed = 1;
nodes = (
(468,165,o),
(407,163,o),
(338,164,c),
(333,187,o),
(332,210,o),
(333,233,c),
(437,234,l),
(476,233,o),
(515,226,o),
(528,207,cs),
(537,195,o),
(528,184,o),
(501,175,cs)
);
}
);
width = 872;
},
{
background = {
shapes = (
{
closed = 1;
nodes = (
(792,345,o),
(857,440,o),
(801,511,c),
(762,579,o),
(635,637,o),
(503,649,c),
(185,649,ls),
(80,649,o),
(66,599,o),
(63,582,cs),
(41,421,o),
(39,219,o),
(62,74,c),
(108,-17,o),
(347,-7,o),
(554,5,c),
(725,34,o),
(821,85,o),
(825,168,c),
(836,218,o),
(771,296,o),
(716,319,c)
);
},
{
closed = 1;
nodes = (
(345,503,l),
(389,503,o),
(432,502,o),
(452,501,c),
(498,496,o),
(519,484,o),
(522,467,c),
(521,451,o),
(501,442,o),
(471,435,c),
(428,430,o),
(384,429,o),
(341,431,c)
);
},
{
closed = 1;
nodes = (
(468,165,o),
(407,163,o),
(338,164,c),
(333,187,o),
(332,210,o),
(333,233,c),
(437,234,l),
(476,233,o),
(515,226,o),
(528,207,cs),
(537,195,o),
(528,184,o),
(501,175,cs)
);
}
);
};
layerId = "1EECF98D-35CB-4836-8875-A967ACEC66D2";
shapes = (
{
closed = 1;
nodes = (
(725,34,o),
(821,85,o),
(825,168,c),
(836,218,o),
(771,296,o),
(716,319,c),
(792,345,o),
(857,440,o),
(801,511,c),
(762,579,o),
(635,637,o),
(503,649,c),
(185,649,ls),
(80,649,o),
(66,599,o),
(63,582,cs),
(41,421,o),
(39,219,o),
(62,74,c),
(108,-17,o),
(347,-7,o),
(554,5,c)
);
},
{
closed = 1;
nodes = (
(333,187,o),
(332,210,o),
(333,233,c),
(437,234,l),
(476,233,o),
(515,226,o),
(528,207,cs),
(537,195,o),
(528,184,o),
(501,175,cs),
(468,165,o),
(407,163,o),
(338,164,c)
);
},
{
closed = 1;
nodes = (
(345,503,l),
(389,503,o),
(432,502,o),
(452,501,c),
(498,496,o),
(519,484,o),
(522,467,c),
(521,451,o),
(501,442,o),
(471,435,c),
(428,430,o),
(384,429,o),
(341,431,c)
);
}
);
width = 872;
},
{
background = {
shapes = (
{
closed = 1;
nodes = (
(716,385,o),
(779,443,o),
(746,524,c),
(707,592,o),
(612,635,o),
(480,647,c),
(146,649,ls),
(117,649,o),
(98,643,o),
(93,627,c),
(72,466,o),
(68,172,o),
(90,28,c),
(104,-11,o),
(306,-7,o),
(524,16,c),
(695,45,o),
(756,109,o),
(759,192,c),
(743,263,o),
(681,315,o),
(570,348,c)
);
},
{
closed = 1;
nodes = (
(159,616,l),
(287,615,o),
(416,615,o),
(474,609,c),
(608,593,o),
(672,552,o),
(681,493,c),
(677,438,o),
(617,405,o),
(530,383,c),
(402,367,o),
(275,363,o),
(146,369,c)
);
},
{
closed = 1;
nodes = (
(513,45,o),
(345,38,o),
(156,41,c),
(146,136,o),
(143,231,o),
(146,326,c),
(428,328,l),
(534,322,o),
(642,295,o),
(678,220,cs),
(702,170,o),
(678,126,o),
(603,87,c)
);
}
);
};
layerId = "1C3422F9-BFDE-4FE8-A46C-291A8D4071B9";
shapes = (
{
closed = 1;
nodes = (
(695,45,o),
(756,109,o),
(759,192,c),
(743,263,o),
(681,315,o),
(570,348,c),
(716,385,o),
(779,443,o),
(746,524,c),
(707,592,o),
(612,635,o),
(480,647,c),
(146,649,ls),
(117,649,o),
(98,643,o),
(93,627,c),
(72,466,o),
(68,172,o),
(90,28,c),
(104,-11,o),
(306,-7,o),
(524,16,c)
);
},
{
closed = 1;
nodes = (
(146,136,o),
(143,231,o),
(146,326,c),
(428,328,l),
(534,322,o),
(642,295,o),
(678,220,cs),
(702,170,o),
(678,126,o),
(603,87,c),
(513,45,o),
(345,38,o),
(156,41,c)
);
},
{
closed = 1;
nodes = (
(159,616,l),
(287,615,o),
(416,615,o),
(474,609,c),
(608,593,o),
(672,552,o),
(681,493,c),
(677,438,o),
(617,405,o),
(530,383,c),
(402,367,o),
(275,363,o),
(146,369,c)
);
}
);
width = 834;
},
{
background = {
shapes = (
{
closed = 1;
nodes = (
(528,345,o),
(571,440,o),
(534,511,c),
(508,579,o),
(423,637,o),
(335,649,c),
(123,649,ls),
(53,649,o),
(44,599,o),
(42,582,cs),
(27,421,o),
(26,219,o),
(41,74,c),
(72,-17,o),
(231,-7,o),
(369,5,c),
(483,34,o),
(547,85,o),
(550,168,c),
(557,218,o),
(514,296,o),
(477,319,c)
);
},
{
closed = 1;
nodes = (
(230,503,l),
(259,503,o),
(288,502,o),
(301,501,c),
(332,496,o),
(346,484,o),
(348,467,c),
(347,451,o),
(334,442,o),
(314,435,c),
(285,430,o),
(256,429,o),
(227,431,c)
);
},
{
closed = 1;
nodes = (
(312,165,o),
(271,163,o),
(225,164,c),
(222,187,o),
(221,210,o),
(222,233,c),
(291,234,l),
(317,233,o),
(343,226,o),
(352,207,cs),
(358,195,o),
(352,184,o),
(334,175,cs)
);
}
);
};
layerId = "EE7B1B97-935D-491C-911D-EA8B82785AFC";
shapes = (
{
closed = 1;
nodes = (
(483,34,o),
(547,85,o),
(550,168,c),
(557,218,o),
(514,296,o),
(477,319,c),
(528,345,o),
(571,440,o),
(534,511,c),
(508,579,o),
(423,637,o),
(335,649,c),
(123,649,ls),
(53,649,o),
(44,599,o),
(42,582,cs),
(27,421,o),
(26,219,o),
(41,74,c),
(72,-17,o),
(231,-7,o),
(369,5,c)
);
},
{
closed = 1;
nodes = (
(222,187,o),
(221,210,o),
(222,233,c),
(291,234,l),
(317,233,o),
(343,226,o),
(352,207,cs),
(358,195,o),
(352,184,o),
(334,175,cs),
(312,165,o),
(271,163,o),
(225,164,c)
);
},
{
closed = 1;
nodes = (
(230,503,l),
(259,503,o),
(288,502,o),
(301,501,c),
(332,496,o),
(346,484,o),
(348,467,c),
(347,451,o),
(334,442,o),
(314,435,c),
(285,430,o),
(256,429,o),
(227,431,c)
);
}
);
width = 581;
},
{
background = {
shapes = (
{
closed = 1;
nodes = (
(477,385,o),
(519,443,o),
(497,524,c),
(471,592,o),
(408,635,o),
(320,647,c),
(97,649,ls),
(78,649,o),
(65,643,o),
(62,627,c),
(48,466,o),
(45,172,o),
(60,28,c),
(69,-11,o),
(204,-7,o),
(349,16,c),
(463,45,o),
(504,109,o),
(506,192,c),
(495,263,o),
(454,315,o),
(380,348,c)
);
},
{
closed = 1;
nodes = (
(106,616,l),
(191,615,o),
(277,615,o),
(316,609,c),
(405,593,o),
(448,552,o),
(454,493,c),
(451,438,o),
(411,405,o),
(353,383,c),
(268,367,o),
(183,363,o),
(97,369,c)
);
},
{
closed = 1;
nodes = (
(342,45,o),
(230,38,o),
(104,41,c),
(97,136,o),
(95,231,o),
(97,326,c),
(285,328,l),
(356,322,o),
(428,295,o),
(452,220,cs),
(468,170,o),
(452,126,o),
(402,87,c)
);
}
);
};
layerId = "6B947F8E-B64D-4F43-8779-746217178CEC";
shapes = (
{
closed = 1;
nodes = (
(463,45,o),
(504,109,o),
(506,192,c),
(495,263,o),
(454,315,o),
(380,348,c),
(477,385,o),
(519,443,o),
(497,524,c),
(471,592,o),
(408,635,o),
(320,647,c),
(97,649,ls),
(78,649,o),
(65,643,o),
(62,627,c),
(48,466,o),
(45,172,o),
(60,28,c),
(69,-11,o),
(204,-7,o),
(349,16,c)
);
},
{
closed = 1;
nodes = (
(97,136,o),
(95,231,o),
(97,326,c),
(285,328,l),
(356,322,o),
(428,295,o),
(452,220,cs),
(468,170,o),
(452,126,o),
(402,87,c),
(342,45,o),
(230,38,o),
(104,41,c)
);
},
{
closed = 1;
nodes = (
(106,616,l),
(191,615,o),
(277,615,o),
(316,609,c),
(405,593,o),
(448,552,o),
(454,493,c),
(451,438,o),
(411,405,o),
(353,383,c),
(268,367,o),
(183,363,o),
(97,369,c)
);
}
);
width = 556;
}
);
unicode = 66;
},
{
glyphname = C;
kernLeft = C2;
kernRight = C;
lastChange = "2024-07-18 13:22:01 +0000";
layers = (
{
anchors = (
{
name = bottom;
pos = (465,25);
},
{
name = top;
pos = (513,643);
}
);
background = {
anchors = (
{
name = bottom;
pos = (465,25);
},
{
name = top;
pos = (513,643);
}
);
shapes = (
{
closed = 1;
nodes = (
(593,214,o),
(648,286,o),
(783,246,cs),
(930,203,o),
(854,124,o),
(854,124,c),
(854,124,o),
(746,-34,o),
(417,5,cs),
(102,44,o),
(15,240,o),
(54,366,cs),
(90,483,o),
(209,651,o),
(513,651,cs),
(779,651,o),
(927,490,o),
(873,381,c),
(873,381,o),
(839,328,o),
(750,335,cs),
(657,343,o),
(636,405,o),
(636,405,c),
(636,405,o),
(630,486,o),
(542,486,cs),
(405,486,o),
(342,343,o),
(336,294,cs),
(332,248,o),
(363,181,o),
(446,165,cs),
(486,157,o),
(567,187,o),
(593,214,c)
);
}
);
};
layerId = "1EECF98D-35CB-4836-8875-A967ACEC66D2";
shapes = (
{
closed = 1;
nodes = (
(746,-34,o),
(854,124,o),
(854,124,c),
(854,124,o),
(930,203,o),
(783,246,cs),
(648,286,o),
(593,214,o),
(593,214,c),
(567,187,o),
(486,157,o),
(446,165,cs),
(363,181,o),
(332,248,o),
(336,294,cs),
(342,343,o),
(405,486,o),
(542,486,cs),
(630,486,o),
(636,405,o),
(636,405,c),
(636,405,o),
(657,343,o),
(750,335,cs),
(839,328,o),
(873,381,o),
(873,381,c),
(927,490,o),
(779,651,o),
(513,651,cs),
(209,651,o),
(90,483,o),
(54,366,cs),
(15,240,o),
(102,44,o),
(417,5,cs)
);
}
);
width = 930;
},
{
anchors = (
{
name = bottom;
pos = (465,25);
},
{
name = top;
pos = (513,643);
}
);
background = {
anchors = (
{
name = bottom;
pos = (465,25);
},
{
name = top;
pos = (513,643);
}
);
shapes = (
{
closed = 1;
nodes = (
(774,155,o),
(794,170,o),
(821,161,cs),
(848,152,o),
(842,137,o),
(842,137,c),
(842,137,o),
(740,-25,o),
(429,11,cs),
(119,46,o),
(50,248,o),
(83,366,cs),
(114,483,o),
(272,652,o),
(533,651,cs),
(794,649,o),
(918,508,o),
(866,408,c),
(866,408,o),
(860,399,o),
(839,402,cs),
(816,405,o),
(813,416,o),
(813,416,c),
(813,416,o),
(834,566,o),
(605,605,cs),
(375,643,o),
(120,432,o),
(149,275,cs),
(180,101,o),
(395,43,o),
(513,47,cs),
(632,50,o),
(743,103,o),
(774,155,c)
);
}
);
};
layerId = "1C3422F9-BFDE-4FE8-A46C-291A8D4071B9";
shapes = (
{
closed = 1;
nodes = (
(740,-25,o),
(842,137,o),
(842,137,c),
(842,137,o),
(848,152,o),
(821,161,cs),
(794,170,o),
(774,155,o),
(774,155,c),
(743,103,o),
(632,50,o),
(513,47,cs),
(395,43,o),
(180,101,o),
(149,275,cs),
(120,432,o),
(375,643,o),
(605,605,cs),
(834,566,o),
(813,416,o),
(813,416,c),
(813,416,o),
(816,405,o),
(839,402,cs),
(860,399,o),
(866,408,o),
(866,408,c),
(918,508,o),
(794,649,o),
(533,651,cs),
(272,652,o),
(114,483,o),
(83,366,cs),
(50,248,o),
(119,46,o),
(429,11,cs)
);
}
);
width = 953;
},
{
anchors = (
{
name = bottom;
pos = (310,25);
},
{
name = top;
pos = (342,643);
}
);
background = {
anchors = (
{
name = bottom;
pos = (310,25);
},
{
name = top;
pos = (342,643);
}
);
shapes = (
{
closed = 1;
nodes = (
(395,214,o),
(432,286,o),
(522,246,cs),
(620,203,o),
(569,124,o),
(569,124,c),
(569,124,o),
(497,-34,o),
(278,5,cs),
(68,44,o),
(10,240,o),
(36,366,cs),
(60,483,o),
(139,651,o),
(342,651,cs),
(519,651,o),
(618,490,o),
(582,381,c),
(582,381,o),
(559,328,o),
(500,335,cs),
(438,343,o),
(424,405,o),
(424,405,c),
(424,405,o),
(420,486,o),
(361,486,cs),
(270,486,o),
(228,343,o),
(224,294,cs),
(221,248,o),
(242,181,o),
(297,165,cs),
(324,157,o),
(378,187,o),
(395,214,c)
);
}
);
};
layerId = "EE7B1B97-935D-491C-911D-EA8B82785AFC";
shapes = (
{
closed = 1;
nodes = (
(497,-34,o),
(569,124,o),
(569,124,c),
(569,124,o),
(620,203,o),
(522,246,cs),
(432,286,o),
(395,214,o),
(395,214,c),
(378,187,o),
(324,157,o),
(297,165,cs),
(242,181,o),
(221,248,o),
(224,294,cs),
(228,343,o),
(270,486,o),
(361,486,cs),
(420,486,o),
(424,405,o),
(424,405,c),
(424,405,o),
(438,343,o),
(500,335,cs),
(559,328,o),
(582,381,o),
(582,381,c),
(618,490,o),
(519,651,o),
(342,651,cs),
(139,651,o),
(60,483,o),
(36,366,cs),
(10,240,o),
(68,44,o),
(278,5,cs)
);
}
);
width = 620;
},
{
anchors = (
{
name = bottom;
pos = (310,25);
},
{
name = top;
pos = (342,643);
}
);
background = {
anchors = (
{
name = bottom;
pos = (310,25);
},
{
name = top;
pos = (342,643);
}
);
shapes = (
{
closed = 1;
nodes = (
(516,155,o),
(529,170,o),
(547,161,cs),
(565,152,o),
(561,137,o),
(561,137,c),
(561,137,o),
(493,-25,o),
(286,11,cs),
(79,46,o),
(33,248,o),
(55,366,cs),
(76,483,o),
(181,652,o),
(355,651,cs),
(529,649,o),
(612,508,o),
(577,408,c),
(577,408,o),
(573,399,o),
(559,402,cs),
(544,405,o),
(542,416,o),
(542,416,c),
(542,416,o),
(556,566,o),
(403,605,cs),
(250,643,o),
(80,432,o),
(99,275,cs),
(120,101,o),
(263,43,o),
(342,47,cs),
(421,50,o),
(495,103,o),
(516,155,c)
);
}
);
};
layerId = "6B947F8E-B64D-4F43-8779-746217178CEC";
shapes = (
{
closed = 1;
nodes = (
(493,-25,o),
(561,137,o),
(561,137,c),
(561,137,o),
(565,152,o),
(547,161,cs),
(529,170,o),
(516,155,o),
(516,155,c),
(495,103,o),
(421,50,o),
(342,47,cs),
(263,43,o),
(120,101,o),
(99,275,cs),
(80,432,o),
(250,643,o),
(403,605,cs),
(556,566,o),
(542,416,o),
(542,416,c),
(542,416,o),
(544,405,o),
(559,402,cs),
(573,399,o),
(577,408,o),
(577,408,c),
(612,508,o),
(529,649,o),
(355,651,cs),
(181,652,o),
(76,483,o),
(55,366,cs),
(33,248,o),
(79,46,o),
(286,11,cs)
);
}
);
width = 635;
}
);
unicode = 67;
},
{
glyphname = Cacute;
kernLeft = C2;
kernRight = C;
lastChange = "2024-07-18 12:46:04 +0000";
layers = (
{
anchors = (
{
name = bottom;
pos = (465,25);
}
);
background = {
anchors = (
{
name = bottom;
pos = (465,25);
},
{
name = top;
pos = (513,643);
}
);
shapes = (
{
closed = 1;
nodes = (
(593,214,o),
(648,286,o),
(783,246,cs),
(930,203,o),
(854,124,o),
(854,124,c),
(854,124,o),
(746,-34,o),
(417,5,cs),
(102,44,o),
(15,240,o),
(54,366,cs),
(90,483,o),
(209,651,o),
(513,651,cs),
(779,651,o),
(927,490,o),
(873,381,c),
(873,381,o),
(839,328,o),
(750,335,cs),
(657,343,o),
(636,405,o),
(636,405,c),
(636,405,o),
(630,486,o),
(542,486,cs),
(405,486,o),
(342,343,o),
(336,294,cs),
(332,248,o),
(363,181,o),
(446,165,cs),
(486,157,o),
(567,187,o),
(593,214,c)
);
},
{
closed = 1;
nodes = (
(576,832,o),
(660,843,o),
(693,809,cs),
(730,769,o),
(675,738,o),
(675,738,c),
(612,695,o),
(490,674,o),
(448,669,c),
(448,669,o),
(364,660,o),
(336,695,cs),
(286,757,o),
(391,792,o),
(391,792,c),
(489,822,o),
(538,828,o),
(576,832,c)
);
}
);
};
layerId = "1EECF98D-35CB-4836-8875-A967ACEC66D2";
shapes = (
{
alignment = -1;
ref = C;
},
{
alignment = -1;
pos = (277,183);
ref = acute;
}
);
width = 930;
},
{
anchors = (
{
name = bottom;
pos = (465,25);
}
);
background = {
anchors = (
{
name = bottom;
pos = (465,25);
},
{
name = top;
pos = (513,643);
}
);
shapes = (
{
closed = 1;
nodes = (
(774,155,o),
(794,170,o),
(821,161,cs),
(848,152,o),
(842,137,o),
(842,137,c),
(842,137,o),
(740,-25,o),
(429,11,cs),
(119,46,o),
(50,248,o),
(83,366,cs),
(114,483,o),
(272,652,o),
(533,651,cs),
(794,649,o),
(918,508,o),
(866,408,c),
(866,408,o),
(860,399,o),
(839,402,cs),
(816,405,o),
(813,416,o),
(813,416,c),
(813,416,o),
(834,566,o),
(605,605,cs),
(375,643,o),
(120,432,o),
(149,275,cs),
(180,101,o),
(395,43,o),
(513,47,cs),
(632,50,o),
(743,103,o),
(774,155,c)
);
},
{
closed = 1;
nodes = (
(637,811,o),
(658,820,o),
(670,806,cs),
(682,792,o),
(660,785,o),
(660,785,c),
(576,750,o),
(481,718,o),
(376,689,c),
(376,689,o),
(351,682,o),
(340,696,cs),
(331,709,o),
(355,720,o),
(355,720,c),
(453,749,o),
(547,780,o),
(637,811,c)
);
}
);
};
layerId = "1C3422F9-BFDE-4FE8-A46C-291A8D4071B9";
shapes = (
{
alignment = -1;
ref = C;
},
{
alignment = -1;
pos = (262,183);
ref = acute;
}
);
width = 953;
},
{
anchors = (
{
name = bottom;
pos = (310,25);
}
);
background = {
anchors = (
{
name = bottom;
pos = (310,25);
},
{
name = top;
pos = (342,643);
}
);
shapes = (
{
closed = 1;
nodes = (
(395,214,o),
(432,286,o),
(522,246,cs),
(620,203,o),
(569,124,o),
(569,124,c),
(569,124,o),
(497,-34,o),
(278,5,cs),
(68,44,o),
(10,240,o),
(36,366,cs),
(60,483,o),
(139,651,o),
(342,651,cs),
(519,651,o),
(618,490,o),
(582,381,c),
(582,381,o),
(559,328,o),
(500,335,cs),
(438,343,o),
(424,405,o),
(424,405,c),
(424,405,o),
(420,486,o),
(361,486,cs),
(270,486,o),
(228,343,o),
(224,294,cs),
(221,248,o),
(242,181,o),
(297,165,cs),
(324,157,o),
(378,187,o),
(395,214,c)
);
},
{
closed = 1;
nodes = (
(384,832,o),
(440,843,o),
(462,809,cs),
(487,769,o),
(450,738,o),
(450,738,c),
(408,695,o),
(327,674,o),
(299,669,c),
(299,669,o),
(243,660,o),
(224,695,cs),
(191,757,o),
(261,792,o),
(261,792,c),
(326,822,o),
(359,828,o),
(384,832,c)
);
}
);
};
layerId = "EE7B1B97-935D-491C-911D-EA8B82785AFC";
shapes = (
{
alignment = -1;
ref = C;
},
{
alignment = -1;
pos = (185,183);
ref = acute;
}
);
width = 620;
},
{
anchors = (
{
name = bottom;
pos = (310,25);
}
);
background = {
anchors = (
{
name = bottom;
pos = (310,25);
},
{
name = top;
pos = (342,643);
}
);
shapes = (
{
closed = 1;
nodes = (
(516,155,o),
(529,170,o),
(547,161,cs),
(565,152,o),
(561,137,o),
(561,137,c),
(561,137,o),
(493,-25,o),
(286,11,cs),
(79,46,o),
(33,248,o),
(55,366,cs),
(76,483,o),
(181,652,o),
(355,651,cs),
(529,649,o),
(612,508,o),
(577,408,c),
(577,408,o),
(573,399,o),
(559,402,cs),
(544,405,o),
(542,416,o),
(542,416,c),
(542,416,o),
(556,566,o),
(403,605,cs),
(250,643,o),
(80,432,o),
(99,275,cs),
(120,101,o),
(263,43,o),
(342,47,cs),
(421,50,o),
(495,103,o),
(516,155,c)
);
},
{
closed = 1;
nodes = (
(425,811,o),
(439,820,o),
(447,806,cs),
(455,792,o),
(440,785,o),
(440,785,c),
(384,750,o),
(321,718,o),
(251,689,c),
(251,689,o),
(234,682,o),
(227,696,cs),
(221,709,o),
(237,720,o),
(237,720,c),
(302,749,o),
(365,780,o),
(425,811,c)
);
}
);
};
layerId = "6B947F8E-B64D-4F43-8779-746217178CEC";
shapes = (
{
alignment = -1;
ref = C;
},
{
alignment = -1;
pos = (175,183);
ref = acute;
}
);
width = 635;
}
);
unicode = 262;
},
{
glyphname = Ccaron;
kernLeft = C2;
kernRight = C;
lastChange = "2024-07-18 12:46:04 +0000";
layers = (
{
anchors = (
{
name = bottom;
pos = (465,25);
}
);
background = {
anchors = (
{
name = bottom;
pos = (465,25);
},
{
name = top;
pos = (513,643);
}
);
shapes = (
{
closed = 1;
nodes = (
(593,214,o),
(648,286,o),
(783,246,cs),
(930,203,o),
(854,124,o),
(854,124,c),
(854,124,o),
(746,-34,o),
(417,5,cs),
(102,44,o),
(15,240,o),
(54,366,cs),
(90,483,o),
(209,651,o),
(513,651,cs),
(779,651,o),
(927,490,o),
(873,381,c),
(873,381,o),
(839,328,o),
(750,335,cs),
(657,343,o),
(636,405,o),
(636,405,c),
(636,405,o),
(630,486,o),
(542,486,cs),
(405,486,o),
(342,343,o),
(336,294,cs),
(332,248,o),
(363,181,o),
(446,165,cs),
(486,157,o),
(567,187,o),
(593,214,c)
);
},
{
closed = 1;
nodes = (
(730,757,o),
(765,795,o),
(693,829,cs),
(643,853,o),
(589,836,o),
(589,836,c),
(567,824,o),
(535,808,o),
(513,794,c),
(450,827,l),
(450,827,o),
(373,852,o),
(319,821,cs),
(243,777,o),
(328,730,o),
(328,730,c),
(448,679,l),
(496,653,o),
(577,658,o),
(604,673,c),
(670,705,o),
(693,721,o),
(730,757,c)
);
}
);
};
layerId = "1EECF98D-35CB-4836-8875-A967ACEC66D2";
shapes = (
{
alignment = -1;
ref = C;
},
{
alignment = -1;
pos = (242,183);
ref = caron;
}
);
width = 930;
},
{
anchors = (
{
name = bottom;
pos = (465,25);
}
);
background = {
anchors = (
{
name = bottom;
pos = (465,25);
},
{
name = top;
pos = (513,643);
}
);
shapes = (
{
closed = 1;
nodes = (
(774,155,o),
(794,170,o),
(821,161,cs),
(848,152,o),
(842,137,o),
(842,137,c),
(842,137,o),
(740,-25,o),
(429,11,cs),
(119,46,o),
(50,248,o),
(83,366,cs),
(114,483,o),
(272,652,o),
(533,651,cs),
(794,649,o),
(918,508,o),
(866,408,c),
(866,408,o),
(860,399,o),
(839,402,cs),
(816,405,o),
(813,416,o),
(813,416,c),
(813,416,o),
(834,566,o),
(605,605,cs),
(375,643,o),
(120,432,o),
(149,275,cs),
(180,101,o),
(395,43,o),
(513,47,cs),
(632,50,o),
(743,103,o),
(774,155,c)
);
},
{
closed = 1;
nodes = (
(721,803,o),
(735,817,o),
(717,825,cs),
(699,832,o),
(682,822,o),
(682,822,c),
(604,766,o),
(556,733,o),
(514,722,c),
(361,798,l),
(361,798,o),
(334,808,o),
(322,796,cs),
(310,785,o),
(325,774,o),
(325,774,c),
(481,700,l),
(513,687,o),
(541,689,o),
(567,703,cs),
(628,736,o),
(684,769,o),
(721,803,c)
);
}
);
};
layerId = "1C3422F9-BFDE-4FE8-A46C-291A8D4071B9";
shapes = (
{
alignment = -1;
ref = C;
},
{
alignment = -1;
pos = (242,183);
ref = caron;
}
);
width = 953;
},
{
anchors = (
{
name = bottom;
pos = (310,25);
}
);
background = {
anchors = (
{
name = bottom;
pos = (310,25);
},
{
name = top;
pos = (342,643);
}
);
shapes = (
{
closed = 1;
nodes = (
(395,214,o),
(432,286,o),
(522,246,cs),
(620,203,o),
(569,124,o),
(569,124,c),
(569,124,o),
(497,-34,o),
(278,5,cs),
(68,44,o),
(10,240,o),
(36,366,cs),
(60,483,o),
(139,651,o),
(342,651,cs),
(519,651,o),
(618,490,o),
(582,381,c),
(582,381,o),
(559,328,o),
(500,335,cs),
(438,343,o),
(424,405,o),
(424,405,c),
(424,405,o),
(420,486,o),
(361,486,cs),
(270,486,o),
(228,343,o),
(224,294,cs),
(221,248,o),
(242,181,o),
(297,165,cs),
(324,157,o),
(378,187,o),
(395,214,c)
);
},
{
closed = 1;
nodes = (
(487,757,o),
(510,795,o),
(462,829,cs),
(429,853,o),
(393,836,o),
(393,836,c),
(378,824,o),
(357,808,o),
(342,794,c),
(300,827,l),
(300,827,o),
(249,852,o),
(213,821,cs),
(162,777,o),
(219,730,o),
(219,730,c),
(299,679,l),
(331,653,o),
(385,658,o),
(403,673,c),
(447,705,o),
(462,721,o),
(487,757,c)
);
}
);
};
layerId = "EE7B1B97-935D-491C-911D-EA8B82785AFC";
shapes = (
{
alignment = -1;
ref = C;
},
{
alignment = -1;
pos = (161,183);
ref = caron;
}
);
width = 620;
},
{
anchors = (
{
name = bottom;
pos = (310,25);
}
);
background = {
anchors = (
{
name = bottom;
pos = (310,25);
},
{
name = top;
pos = (342,643);
}
);
shapes = (
{
closed = 1;
nodes = (
(516,155,o),
(529,170,o),
(547,161,cs),
(565,152,o),
(561,137,o),
(561,137,c),
(561,137,o),
(493,-25,o),
(286,11,cs),
(79,46,o),
(33,248,o),
(55,366,cs),
(76,483,o),
(181,652,o),
(355,651,cs),
(529,649,o),
(612,508,o),
(577,408,c),
(577,408,o),
(573,399,o),
(559,402,cs),
(544,405,o),
(542,416,o),
(542,416,c),
(542,416,o),
(556,566,o),
(403,605,cs),
(250,643,o),
(80,432,o),
(99,275,cs),
(120,101,o),
(263,43,o),
(342,47,cs),
(421,50,o),
(495,103,o),
(516,155,c)
);
},
{
closed = 1;
nodes = (
(481,803,o),
(490,817,o),
(478,825,cs),
(466,832,o),
(455,822,o),
(455,822,c),
(403,766,o),
(371,733,o),
(343,722,c),
(241,798,l),
(241,798,o),
(223,808,o),
(215,796,cs),
(207,785,o),
(217,774,o),
(217,774,c),
(321,700,l),
(342,687,o),
(361,689,o),
(378,703,cs),
(419,736,o),
(456,769,o),
(481,803,c)
);
}
);
};
layerId = "6B947F8E-B64D-4F43-8779-746217178CEC";
shapes = (
{
alignment = -1;
ref = C;
},
{
alignment = -1;
pos = (161,183);
ref = caron;
}
);
width = 635;
}
);
unicode = 268;
},
{
glyphname = Ccedilla;
kernLeft = C2;
kernRight = C;
lastChange = "2024-07-18 13:22:01 +0000";
layers = (
{
anchors = (
{
name = bottom;
pos = (465,25);
},
{
name = top;
pos = (513,643);
}
);
background = {
anchors = (
{
name = bottom;
pos = (465,25);
},
{
name = top;
pos = (513,643);
}
);
shapes = (
{
closed = 1;
nodes = (
(593,214,o),
(648,286,o),
(783,246,cs),
(930,203,o),
(854,124,o),
(854,124,c),
(854,124,o),
(746,-34,o),
(417,5,cs),
(102,44,o),
(15,240,o),
(54,366,cs),
(90,483,o),
(209,651,o),
(513,651,cs),
(779,651,o),
(927,490,o),
(873,381,c),
(873,381,o),
(839,328,o),
(750,335,cs),
(657,343,o),
(636,405,o),
(636,405,c),
(636,405,o),
(630,486,o),
(542,486,cs),
(405,486,o),
(342,343,o),
(336,294,c),
(332,248,o),
(363,181,o),
(446,165,cs),
(486,157,o),
(567,187,o),
(593,214,c)
);
},
{
closed = 1;
nodes = (
(396,11,o),
(403,46,o),
(466,45,cs),
(507,44,o),
(528,17,o),
(528,17,c),
(532,10,o),
(546,-8,o),
(547,-28,c),
(567,-35,o),
(646,-79,o),
(654,-123,cs),
(667,-201,o),
(588,-232,o),
(483,-228,cs),
(415,-225,o),
(366,-205,o),
(324,-179,c),
(324,-179,o),
(268,-144,o),
(316,-114,cs),
(351,-92,o),
(402,-105,o),
(402,-105,c),
(433,-113,o),
(444,-123,o),
(457,-130,c),
(480,-134,o),
(492,-127,o),
(492,-124,c),
(484,-115,o),
(472,-107,o),
(463,-99,c),
(451,-101,o),
(397,-83,o),
(399,-72,c),
(382,-46,o),
(388,-6,o),
(396,11,c)
);
}
);
};
layerId = "1EECF98D-35CB-4836-8875-A967ACEC66D2";
shapes = (
{
closed = 1;
nodes = (
(746,-34,o),
(854,124,o),
(854,124,c),
(854,124,o),
(930,203,o),
(783,246,cs),
(648,286,o),
(593,214,o),
(593,214,c),
(567,187,o),
(486,157,o),
(446,165,cs),
(363,181,o),
(332,248,o),
(336,294,c),
(342,343,o),
(405,486,o),
(542,486,cs),
(630,486,o),
(636,405,o),
(636,405,c),
(636,405,o),
(657,343,o),
(750,335,cs),
(839,328,o),
(873,381,o),
(873,381,c),
(927,490,o),
(779,651,o),
(513,651,cs),
(209,651,o),
(90,483,o),
(54,366,cs),
(15,240,o),
(102,44,o),
(417,5,cs)
);
},
{
closed = 1;
nodes = (
(588,-232,o),
(667,-201,o),
(654,-123,cs),
(646,-79,o),
(567,-35,o),
(547,-28,c),
(546,-8,o),
(532,10,o),
(528,17,c),
(528,17,o),
(507,44,o),
(466,45,cs),
(403,46,o),
(396,11,o),
(396,11,c),
(388,-6,o),
(382,-46,o),
(399,-72,c),
(397,-83,o),
(451,-101,o),
(463,-99,c),
(472,-107,o),
(484,-115,o),
(492,-124,c),
(492,-127,o),
(480,-134,o),
(457,-130,c),
(444,-123,o),
(433,-113,o),
(402,-105,c),
(402,-105,o),
(351,-92,o),
(316,-114,cs),
(268,-144,o),
(324,-179,o),
(324,-179,c),
(366,-205,o),
(415,-225,o),
(483,-228,cs)
);
}
);
width = 930;
},
{
anchors = (
{
name = bottom;
pos = (465,25);
},
{
name = top;
pos = (513,643);
}
);
background = {
anchors = (
{
name = bottom;
pos = (465,25);
},
{
name = top;
pos = (513,643);
}
);
shapes = (
{
closed = 1;
nodes = (
(774,155,o),
(794,170,o),
(821,161,cs),
(848,152,o),
(842,137,o),
(842,137,c),
(842,137,o),
(740,-25,o),
(429,11,cs),
(119,46,o),
(50,248,o),
(83,366,cs),
(114,483,o),
(272,652,o),
(533,651,cs),
(794,649,o),
(918,508,o),
(866,408,c),
(866,408,o),
(860,399,o),
(839,402,cs),
(816,405,o),
(813,416,o),
(813,416,c),
(813,416,o),
(834,566,o),
(605,605,cs),
(375,643,o),
(120,432,o),
(149,275,cs),
(180,101,o),
(395,43,o),
(513,47,cs),
(632,50,o),
(743,103,o),
(774,155,c)
);
},
{
closed = 1;
nodes = (
(448,28,o),
(448,45,o),
(463,45,cs),
(478,45,o),
(481,28,o),
(481,28,c),
(487,8,o),
(490,-16,o),
(493,-42,c),
(589,-53,o),
(634,-83,o),
(642,-128,cs),
(654,-206,o),
(583,-229,o),
(478,-228,c),
(411,-225,o),
(363,-205,o),
(321,-179,c),
(321,-179,o),
(312,-173,o),
(324,-166,cs),
(336,-160,o),
(351,-167,o),
(351,-167,c),
(391,-193,o),
(441,-207,o),
(502,-206,c),
(594,-201,o),
(609,-166,o),
(600,-122,c),
(592,-90,o),
(555,-73,o),
(495,-65,c),
(466,-66,o),
(451,-58,o),
(454,-48,c),
(450,-21,o),
(448,4,o),
(448,28,c)
);
}
);
};
layerId = "1C3422F9-BFDE-4FE8-A46C-291A8D4071B9";
shapes = (
{
closed = 1;
nodes = (
(740,-25,o),
(842,137,o),
(842,137,c),
(842,137,o),
(848,152,o),
(821,161,cs),
(794,170,o),
(774,155,o),
(774,155,c),
(743,103,o),
(632,50,o),
(513,47,cs),
(395,43,o),
(180,101,o),
(149,275,cs),
(120,432,o),
(375,643,o),
(605,605,cs),
(834,566,o),
(813,416,o),
(813,416,c),
(813,416,o),
(816,405,o),
(839,402,cs),
(860,399,o),
(866,408,o),
(866,408,c),
(918,508,o),
(794,649,o),
(533,651,cs),
(272,652,o),
(114,483,o),
(83,366,cs),
(50,248,o),
(119,46,o),
(429,11,cs)
);
},
{
closed = 1;
nodes = (
(583,-229,o),
(654,-206,o),
(642,-128,cs),
(634,-83,o),
(589,-53,o),
(493,-42,c),
(490,-16,o),
(487,8,o),
(481,28,c),
(481,28,o),
(478,45,o),
(463,45,cs),
(448,45,o),
(448,28,o),
(448,28,c),
(448,4,o),
(450,-21,o),
(454,-48,c),
(451,-58,o),
(466,-66,o),
(495,-65,c),
(555,-73,o),
(592,-90,o),
(600,-122,c),
(609,-166,o),
(594,-201,o),
(502,-206,c),
(441,-207,o),
(391,-193,o),
(351,-167,c),
(351,-167,o),
(336,-160,o),
(324,-166,cs),
(312,-173,o),
(321,-179,o),
(321,-179,c),
(363,-205,o),
(411,-225,o),
(478,-228,c)
);
}
);
width = 953;
},
{
anchors = (
{
name = bottom;
pos = (310,25);
},
{
name = top;
pos = (342,643);
}
);
background = {
anchors = (
{
name = bottom;
pos = (310,25);
},
{
name = top;
pos = (342,643);
}
);
shapes = (
{
closed = 1;
nodes = (
(395,214,o),
(432,286,o),
(522,246,cs),
(620,203,o),
(569,124,o),
(569,124,c),
(569,124,o),
(497,-34,o),
(278,5,cs),
(68,44,o),
(10,240,o),
(36,366,cs),
(60,483,o),
(139,651,o),
(342,651,cs),
(519,651,o),
(618,490,o),
(582,381,c),
(582,381,o),
(559,328,o),
(500,335,cs),
(438,343,o),
(424,405,o),
(424,405,c),
(424,405,o),
(420,486,o),
(361,486,cs),
(270,486,o),
(228,343,o),
(224,294,cs),
(221,248,o),
(242,181,o),
(297,165,cs),
(324,157,o),
(378,187,o),
(395,214,c)
);
},
{
closed = 1;
nodes = (
(264,11,o),
(269,46,o),
(311,45,cs),
(338,44,o),
(352,17,o),
(352,17,c),
(355,10,o),
(364,-8,o),
(365,-28,c),
(378,-35,o),
(431,-79,o),
(436,-123,cs),
(445,-201,o),
(392,-232,o),
(322,-228,cs),
(277,-225,o),
(244,-205,o),
(216,-179,c),
(216,-179,o),
(179,-144,o),
(211,-114,cs),
(234,-92,o),
(268,-105,o),
(268,-105,c),
(289,-113,o),
(296,-123,o),
(305,-130,c),
(320,-134,o),
(328,-127,o),
(328,-124,c),
(323,-115,o),
(315,-107,o),
(309,-99,c),
(301,-101,o),
(265,-83,o),
(266,-72,c),
(255,-46,o),
(259,-6,o),
(264,11,c)
);
}
);
};
layerId = "EE7B1B97-935D-491C-911D-EA8B82785AFC";
shapes = (
{
closed = 1;
nodes = (
(497,-34,o),
(569,124,o),
(569,124,c),
(569,124,o),
(620,203,o),
(522,246,cs),
(432,286,o),
(395,214,o),
(395,214,c),
(378,187,o),
(324,157,o),
(297,165,cs),
(242,181,o),
(221,248,o),
(224,294,cs),
(228,343,o),
(270,486,o),
(361,486,cs),
(420,486,o),
(424,405,o),
(424,405,c),
(424,405,o),
(438,343,o),
(500,335,cs),
(559,328,o),
(582,381,o),
(582,381,c),
(618,490,o),
(519,651,o),
(342,651,cs),
(139,651,o),
(60,483,o),
(36,366,cs),
(10,240,o),
(68,44,o),
(278,5,cs)
);
},
{
closed = 1;
nodes = (
(392,-232,o),
(445,-201,o),
(436,-123,cs),
(431,-79,o),
(378,-35,o),
(365,-28,c),
(364,-8,o),
(355,10,o),
(352,17,c),
(352,17,o),
(338,44,o),
(311,45,cs),
(269,46,o),
(264,11,o),
(264,11,c),
(259,-6,o),
(255,-46,o),
(266,-72,c),
(265,-83,o),
(301,-101,o),
(309,-99,c),
(315,-107,o),
(323,-115,o),
(328,-124,c),
(328,-127,o),
(320,-134,o),
(305,-130,c),
(296,-123,o),
(289,-113,o),
(268,-105,c),
(268,-105,o),
(234,-92,o),
(211,-114,cs),
(179,-144,o),
(216,-179,o),
(216,-179,c),
(244,-205,o),
(277,-225,o),
(322,-228,cs)
);
}
);
width = 620;
},
{
anchors = (
{
name = bottom;
pos = (310,25);
},
{
name = top;
pos = (342,643);
}
);
background = {
anchors = (
{
name = bottom;
pos = (310,25);
},
{
name = top;
pos = (342,643);
}
);
shapes = (
{
closed = 1;
nodes = (
(516,155,o),
(529,170,o),
(547,161,cs),
(565,152,o),
(561,137,o),
(561,137,c),
(561,137,o),
(493,-25,o),
(286,11,cs),
(79,46,o),
(33,248,o),
(55,366,cs),
(76,483,o),
(181,652,o),
(355,651,cs),
(529,649,o),
(612,508,o),
(577,408,c),
(577,408,o),
(573,399,o),
(559,402,cs),
(544,405,o),
(542,416,o),
(542,416,c),
(542,416,o),
(556,566,o),
(403,605,cs),
(250,643,o),
(80,432,o),
(99,275,cs),
(120,101,o),
(263,43,o),
(342,47,cs),
(421,50,o),
(495,103,o),
(516,155,c)
);
},
{
closed = 1;
nodes = (
(299,28,o),
(299,45,o),
(309,45,cs),
(319,45,o),
(321,28,o),
(321,28,c),
(325,8,o),
(327,-16,o),
(329,-42,c),
(393,-53,o),
(423,-83,o),
(428,-128,cs),
(436,-206,o),
(389,-229,o),
(319,-228,c),
(274,-225,o),
(242,-205,o),
(214,-179,c),
(214,-179,o),
(208,-173,o),
(216,-166,cs),
(224,-160,o),
(234,-167,o),
(234,-167,c),
(261,-193,o),
(294,-207,o),
(335,-206,c),
(396,-201,o),
(406,-166,o),
(400,-122,cs),
(395,-90,o),
(370,-73,o),
(330,-65,c),
(311,-66,o),
(301,-58,o),
(303,-48,c),
(300,-21,o),
(299,4,o),
(299,28,c)
);
}
);
};
layerId = "6B947F8E-B64D-4F43-8779-746217178CEC";
shapes = (
{
closed = 1;
nodes = (
(493,-25,o),
(561,137,o),
(561,137,c),
(561,137,o),
(565,152,o),
(547,161,cs),
(529,170,o),
(516,155,o),
(516,155,c),
(495,103,o),
(421,50,o),
(342,47,cs),
(263,43,o),
(120,101,o),
(99,275,cs),
(80,432,o),
(250,643,o),
(403,605,cs),
(556,566,o),
(542,416,o),
(542,416,c),
(542,416,o),
(544,405,o),
(559,402,cs),
(573,399,o),
(577,408,o),
(577,408,c),
(612,508,o),
(529,649,o),
(355,651,cs),
(181,652,o),
(76,483,o),
(55,366,cs),
(33,248,o),
(79,46,o),
(286,11,cs)
);
},
{
closed = 1;
nodes = (
(389,-229,o),
(436,-206,o),
(428,-128,cs),
(423,-83,o),
(393,-53,o),
(329,-42,c),
(327,-16,o),
(325,8,o),
(321,28,c),
(321,28,o),
(319,45,o),
(309,45,cs),
(299,45,o),
(299,28,o),
(299,28,c),
(299,4,o),
(300,-21,o),
(303,-48,c),
(301,-58,o),
(311,-66,o),
(330,-65,c),
(370,-73,o),
(395,-90,o),
(400,-122,cs),
(406,-166,o),
(396,-201,o),
(335,-206,c),
(294,-207,o),
(261,-193,o),
(234,-167,c),
(234,-167,o),
(224,-160,o),
(216,-166,cs),
(208,-173,o),
(214,-179,o),
(214,-179,c),
(242,-205,o),
(274,-225,o),
(319,-228,c)
);
}
);
width = 635;
}
);
unicode = 199;
},
{
glyphname = Ccircumflex;
kernLeft = C2;
kernRight = C;
lastChange = "2024-07-18 12:46:04 +0000";
layers = (
{
anchors = (
{
name = bottom;
pos = (465,25);
}
);
background = {
anchors = (
{
name = bottom;
pos = (465,25);
},
{
name = top;
pos = (513,643);
}
);
shapes = (
{
closed = 1;
nodes = (
(593,214,o),
(648,286,o),
(783,246,cs),
(930,203,o),
(854,124,o),
(854,124,c),
(854,124,o),
(746,-34,o),
(417,5,cs),
(102,44,o),
(15,240,o),
(54,366,cs),
(90,483,o),
(209,651,o),
(513,651,cs),
(779,651,o),
(927,490,o),
(873,381,c),
(873,381,o),
(839,328,o),
(750,335,cs),
(657,343,o),
(636,405,o),
(636,405,c),
(636,405,o),
(630,486,o),
(542,486,cs),
(405,486,o),
(342,343,o),
(336,294,cs),
(332,248,o),
(363,181,o),
(446,165,cs),
(486,157,o),
(567,187,o),
(593,214,c)
);
},
{
closed = 1;
nodes = (
(295,753,o),
(262,715,o),
(333,681,cs),
(384,657,o),
(438,674,o),
(438,674,c),
(460,686,o),
(490,703,o),
(514,716,c),
(576,683,l),
(576,683,o),
(654,658,o),
(706,689,cs),
(783,733,o),
(699,780,o),
(699,780,c),
(577,832,l),
(529,857,o),
(450,852,o),
(423,837,c),
(357,805,o),
(334,789,o),
(295,753,c)
);
}
);
};
layerId = "1EECF98D-35CB-4836-8875-A967ACEC66D2";
shapes = (
{
alignment = -1;
ref = C;
},
{
alignment = -1;
pos = (242,183);
ref = circumflex;
}
);
width = 930;
},
{
anchors = (
{
name = bottom;
pos = (465,25);
}
);
background = {
anchors = (
{
name = bottom;
pos = (465,25);
},
{
name = top;
pos = (513,643);
}
);
shapes = (
{
closed = 1;
nodes = (
(774,155,o),
(794,170,o),
(821,161,cs),
(848,152,o),
(842,137,o),
(842,137,c),
(842,137,o),
(740,-25,o),
(429,11,cs),
(119,46,o),
(50,248,o),
(83,366,cs),
(114,483,o),
(272,652,o),
(533,651,cs),
(794,649,o),
(918,508,o),
(866,408,c),
(866,408,o),
(860,399,o),
(839,402,cs),
(816,405,o),
(813,416,o),
(813,416,c),
(813,416,o),
(834,566,o),
(605,605,cs),
(375,643,o),
(120,432,o),
(149,275,cs),
(180,101,o),
(395,43,o),
(513,47,cs),
(632,50,o),
(743,103,o),
(774,155,c)
);
},
{
closed = 1;
nodes = (
(322,714,o),
(309,700,o),
(327,693,cs),
(345,685,o),
(361,695,o),
(361,695,c),
(439,751,o),
(487,784,o),
(529,795,c),
(682,720,l),
(682,720,o),
(709,709,o),
(721,721,cs),
(733,733,o),
(718,743,o),
(718,743,c),
(562,817,l),
(531,831,o),
(502,828,o),
(477,814,cs),
(415,782,o),
(360,749,o),
(322,714,c)
);
}
);
};
layerId = "1C3422F9-BFDE-4FE8-A46C-291A8D4071B9";
shapes = (
{
alignment = -1;
ref = C;
},
{
alignment = -1;
pos = (242,183);
ref = circumflex;
}
);
width = 953;
},
{
anchors = (
{
name = bottom;
pos = (310,25);
}
);
background = {
anchors = (
{
name = bottom;
pos = (310,25);
},
{
name = top;
pos = (342,643);
}
);
shapes = (
{
closed = 1;
nodes = (
(395,214,o),
(432,286,o),
(522,246,cs),
(620,203,o),
(569,124,o),
(569,124,c),
(569,124,o),
(497,-34,o),
(278,5,cs),
(68,44,o),
(10,240,o),
(36,366,cs),
(60,483,o),
(139,651,o),
(342,651,cs),
(519,651,o),
(618,490,o),
(582,381,c),
(582,381,o),
(559,328,o),
(500,335,cs),
(438,343,o),
(424,405,o),
(424,405,c),
(424,405,o),
(420,486,o),
(361,486,cs),
(270,486,o),
(228,343,o),
(224,294,cs),
(221,248,o),
(242,181,o),
(297,165,cs),
(324,157,o),
(378,187,o),
(395,214,c)
);
},
{
closed = 1;
nodes = (
(197,753,o),
(175,715,o),
(222,681,cs),
(256,657,o),
(292,674,o),
(292,674,c),
(307,686,o),
(327,703,o),
(343,716,c),
(384,683,l),
(384,683,o),
(436,658,o),
(471,689,cs),
(522,733,o),
(466,780,o),
(466,780,c),
(385,832,l),
(353,857,o),
(300,852,o),
(282,837,c),
(238,805,o),
(223,789,o),
(197,753,c)
);
}
);
};
layerId = "EE7B1B97-935D-491C-911D-EA8B82785AFC";
shapes = (
{
alignment = -1;
ref = C;
},
{
alignment = -1;
pos = (161,183);
ref = circumflex;
}
);
width = 620;
},
{
anchors = (
{
name = bottom;
pos = (310,25);
}
);
background = {
anchors = (
{
name = bottom;
pos = (310,25);
},
{
name = top;
pos = (342,643);
}
);
shapes = (
{
closed = 1;
nodes = (
(516,155,o),
(529,170,o),
(547,161,cs),
(565,152,o),
(561,137,o),
(561,137,c),
(561,137,o),
(493,-25,o),
(286,11,cs),
(79,46,o),
(33,248,o),
(55,366,cs),
(76,483,o),
(181,652,o),
(355,651,cs),
(529,649,o),
(612,508,o),
(577,408,c),
(577,408,o),
(573,399,o),
(559,402,cs),
(544,405,o),
(542,416,o),
(542,416,c),
(542,416,o),
(556,566,o),
(403,605,cs),
(250,643,o),
(80,432,o),
(99,275,cs),
(120,101,o),
(263,43,o),
(342,47,cs),
(421,50,o),
(495,103,o),
(516,155,c)
);
},
{
closed = 1;
nodes = (
(215,714,o),
(206,700,o),
(218,693,cs),
(230,685,o),
(241,695,o),
(241,695,c),
(293,751,o),
(325,784,o),
(353,795,c),
(455,720,l),
(455,720,o),
(473,709,o),
(481,721,cs),
(489,733,o),
(479,743,o),
(479,743,c),
(375,817,l),
(354,831,o),
(335,828,o),
(318,814,cs),
(277,782,o),
(240,749,o),
(215,714,c)
);
}
);
};
layerId = "6B947F8E-B64D-4F43-8779-746217178CEC";
shapes = (
{
alignment = -1;
ref = C;
},
{
alignment = -1;
pos = (161,183);
ref = circumflex;
}
);
width = 635;
}
);
unicode = 264;
},
{
glyphname = Cdotaccent;
kernLeft = C2;
kernRight = C;
lastChange = "2024-07-18 12:46:04 +0000";
layers = (
{
anchors = (
{
name = bottom;
pos = (465,25);
}
);
background = {
anchors = (
{
name = bottom;
pos = (465,25);
},
{
name = top;
pos = (513,643);
}
);
shapes = (
{
closed = 1;
nodes = (
(593,214,o),
(648,286,o),
(783,246,cs),
(930,203,o),
(854,124,o),
(854,124,c),
(854,124,o),
(746,-34,o),
(417,5,cs),
(102,44,o),
(15,240,o),
(54,366,cs),
(90,483,o),
(209,651,o),
(513,651,cs),
(779,651,o),
(927,490,o),
(873,381,c),
(873,381,o),
(839,328,o),
(750,335,cs),
(657,343,o),
(636,405,o),
(636,405,c),
(636,405,o),
(630,486,o),
(542,486,cs),
(405,486,o),
(342,343,o),
(336,294,cs),
(332,248,o),
(363,181,o),
(446,165,cs),
(486,157,o),
(567,187,o),
(593,214,c)
);
},
{
closed = 1;
nodes = (
(666,687,o),
(598,664,o),
(513,664,cs),
(429,664,o),
(361,703,o),
(361,751,cs),
(361,799,o),
(429,838,o),
(513,838,cs),
(598,838,o),
(666,799,o),
(666,751,cs)
);
}
);
};
layerId = "1EECF98D-35CB-4836-8875-A967ACEC66D2";
shapes = (
{
alignment = -1;
ref = C;
},
{
alignment = -1;
pos = (286,183);
ref = dotaccent;
}
);
width = 930;
},
{
anchors = (
{
name = bottom;
pos = (465,25);
}
);
background = {
anchors = (
{
name = bottom;
pos = (465,25);
},
{
name = top;
pos = (513,643);
}
);
shapes = (
{
closed = 1;
nodes = (
(774,155,o),
(794,170,o),
(821,161,cs),
(848,152,o),
(842,137,o),
(842,137,c),
(842,137,o),
(740,-25,o),
(429,11,cs),
(119,46,o),
(50,248,o),
(83,366,cs),
(114,483,o),
(272,652,o),
(533,651,cs),
(794,649,o),
(918,508,o),
(866,408,c),
(866,408,o),
(860,399,o),
(839,402,cs),
(816,405,o),
(813,416,o),
(813,416,c),
(813,416,o),
(834,566,o),
(605,605,cs),
(375,643,o),
(120,432,o),
(149,275,cs),
(180,101,o),
(395,43,o),
(513,47,cs),
(632,50,o),
(743,103,o),
(774,155,c)
);
},
{
closed = 1;
nodes = (
(564,732,o),
(541,719,o),
(514,719,cs),
(487,719,o),
(466,732,o),
(466,747,cs),
(466,763,o),
(487,776,o),
(514,776,cs),
(541,776,o),
(564,763,o),
(564,747,cs)
);
}
);
};
layerId = "1C3422F9-BFDE-4FE8-A46C-291A8D4071B9";
shapes = (
{
alignment = -1;
ref = C;
},
{
alignment = -1;
pos = (391,183);
ref = dotaccent;
}
);
width = 953;
},
{
anchors = (
{
name = bottom;
pos = (310,25);
}
);
background = {
anchors = (
{
name = bottom;
pos = (310,25);
},
{
name = top;
pos = (342,643);
}
);
shapes = (
{
closed = 1;
nodes = (
(395,214,o),
(432,286,o),
(522,246,cs),
(620,203,o),
(569,124,o),
(569,124,c),
(569,124,o),
(497,-34,o),
(278,5,cs),
(68,44,o),
(10,240,o),
(36,366,cs),
(60,483,o),
(139,651,o),
(342,651,cs),
(519,651,o),
(618,490,o),
(582,381,c),
(582,381,o),
(559,328,o),
(500,335,cs),
(438,343,o),
(424,405,o),
(424,405,c),
(424,405,o),
(420,486,o),
(361,486,cs),
(270,486,o),
(228,343,o),
(224,294,cs),
(221,248,o),
(242,181,o),
(297,165,cs),
(324,157,o),
(378,187,o),
(395,214,c)
);
},
{
closed = 1;
nodes = (
(444,687,o),
(399,664,o),
(342,664,cs),
(286,664,o),
(241,703,o),
(241,751,cs),
(241,799,o),
(286,838,o),
(342,838,cs),
(399,838,o),
(444,799,o),
(444,751,cs)
);
}
);
};
layerId = "EE7B1B97-935D-491C-911D-EA8B82785AFC";
shapes = (
{
alignment = -1;
ref = C;
},
{
alignment = -1;
pos = (191,183);
ref = dotaccent;
}
);
width = 620;
},
{
anchors = (
{
name = bottom;
pos = (310,25);
}
);
background = {
anchors = (
{
name = bottom;
pos = (310,25);
},
{
name = top;
pos = (342,643);
}
);
shapes = (
{
closed = 1;
nodes = (
(516,155,o),
(529,170,o),
(547,161,cs),
(565,152,o),
(561,137,o),
(561,137,c),
(561,137,o),
(493,-25,o),
(286,11,cs),
(79,46,o),
(33,248,o),
(55,366,cs),
(76,483,o),
(181,652,o),
(355,651,cs),
(529,649,o),
(612,508,o),
(577,408,c),
(577,408,o),
(573,399,o),
(559,402,cs),
(544,405,o),
(542,416,o),
(542,416,c),
(542,416,o),
(556,566,o),
(403,605,cs),
(250,643,o),
(80,432,o),
(99,275,cs),
(120,101,o),
(263,43,o),
(342,47,cs),
(421,50,o),
(495,103,o),
(516,155,c)
);
},
{
closed = 1;
nodes = (
(376,732,o),
(361,719,o),
(343,719,cs),
(325,719,o),
(311,732,o),
(311,747,cs),
(311,763,o),
(325,776,o),
(343,776,cs),
(361,776,o),
(376,763,o),
(376,747,cs)
);
}
);
};
layerId = "6B947F8E-B64D-4F43-8779-746217178CEC";
shapes = (
{
alignment = -1;
ref = C;
},
{
alignment = -1;
pos = (261,183);
ref = dotaccent;
}
);
width = 635;
}
);
unicode = 266;
},
{
glyphname = D;
kernLeft = H1;
kernRight = C;
lastChange = "2024-07-18 13:22:01 +0000";
layers = (
{
anchors = (
{
name = top;
pos = (319,643);
}
);
associatedMasterId = "6B947F8E-B64D-4F43-8779-746217178CEC";
layerId = "FC2E0489-11A5-440C-8B4C-71CFB6149F63";
name = "#instance";
shapes = (
{
closed = 1;
nodes = (
(506,571,o),
(436,652,o),
(233,651,c),
(114,651,o),
(43,635,o),
(40,564,c),
(27,413,o),
(29,252,o),
(40,85,c),
(53,41,o),
(90,2,o),
(166,-2,cs),
(308,-9,o),
(448,8,o),
(530,101,c),
(625,214,o),
(640,343,o),
(566,493,c)
);
},
{
closed = 1;
nodes = (
(221,285,o),
(221,386,o),
(225,483,c),
(333,496,o),
(406,464,o),
(413,332,c),
(408,231,o),
(361,169,o),
(224,180,c)
);
}
);
width = 643;
},
{
anchors = (
{
name = top;
pos = (478,643);
}
);
background = {
anchors = (
{
name = top;
pos = (478,643);
}
);
shapes = (
{
closed = 1;
nodes = (
(461,-9,o),
(671,8,o),
(794,101,c),
(937,214,o),
(959,343,o),
(848,493,c),
(758,571,o),
(653,652,o),
(349,651,c),
(170,651,o),
(64,635,o),
(59,564,c),
(40,413,o),
(43,252,o),
(59,85,c),
(79,41,o),
(134,2,o),
(248,-2,cs)
);
},
{
closed = 1;
nodes = (
(331,285,o),
(331,386,o),
(337,483,c),
(499,496,o),
(608,464,o),
(619,332,c),
(611,231,o),
(541,169,o),
(335,180,c)
);
}
);
};
layerId = "1EECF98D-35CB-4836-8875-A967ACEC66D2";
shapes = (
{
closed = 1;
nodes = (
(461,-9,o),
(671,8,o),
(794,101,c),
(937,214,o),
(959,343,o),
(848,493,c),
(758,571,o),
(653,652,o),
(349,651,c),
(170,651,o),
(64,635,o),
(59,564,c),
(40,413,o),
(43,252,o),
(59,85,c),
(79,41,o),
(134,2,o),
(248,-2,cs)
);
},
{
closed = 1;
nodes = (
(331,285,o),
(331,386,o),
(337,483,c),
(499,496,o),
(608,464,o),
(619,332,c),
(611,231,o),
(541,169,o),
(335,180,c)
);
}
);
width = 964;
},
{
anchors = (
{
name = top;
pos = (478,643);
}
);
background = {
anchors = (
{
name = top;
pos = (478,643);
}
);
shapes = (
{
closed = 1;
nodes = (
(412,-2,o),
(611,13,o),
(734,106,c),
(866,220,o),
(898,348,o),
(787,498,c),
(698,576,o),
(604,652,o),
(299,651,cs),
(163,652,o),
(74,644,o),
(76,619,c),
(76,421,o),
(76,222,o),
(76,24,c),
(91,6,o),
(133,-2,o),
(199,-2,cs)
);
},
{
closed = 1;
nodes = (
(146,238,o),
(145,428,o),
(158,609,c),
(515,633,o),
(757,574,o),
(781,326,c),
(766,137,o),
(608,22,o),
(157,42,c)
);
}
);
};
layerId = "1C3422F9-BFDE-4FE8-A46C-291A8D4071B9";
shapes = (
{
closed = 1;
nodes = (
(412,-2,o),
(611,13,o),
(734,106,c),
(866,220,o),
(898,348,o),
(787,498,c),
(698,576,o),
(604,652,o),
(299,651,cs),
(163,652,o),
(74,644,o),
(76,619,c),
(76,421,o),
(76,222,o),
(76,24,c),
(91,6,o),
(133,-2,o),
(199,-2,cs)
);
},
{
closed = 1;
nodes = (
(146,238,o),
(145,428,o),
(158,609,c),
(515,633,o),
(757,574,o),
(781,326,c),
(766,137,o),
(608,22,o),
(157,42,c)
);
}
);
width = 930;
},
{
anchors = (
{
name = top;
pos = (319,643);
}
);
background = {
anchors = (
{
name = top;
pos = (319,643);
}
);
shapes = (
{
closed = 1;
nodes = (
(308,-9,o),
(448,8,o),
(530,101,c),
(625,214,o),
(640,343,o),
(566,493,c),
(506,571,o),
(436,652,o),
(233,651,c),
(114,651,o),
(43,635,o),
(40,564,c),
(27,413,o),
(29,252,o),
(40,85,c),
(53,41,o),
(90,2,o),
(166,-2,cs)
);
},
{
closed = 1;
nodes = (
(221,285,o),
(221,386,o),
(225,483,c),
(333,496,o),
(406,464,o),
(413,332,c),
(408,231,o),
(361,169,o),
(224,180,c)
);
}
);
};
layerId = "EE7B1B97-935D-491C-911D-EA8B82785AFC";
shapes = (
{
closed = 1;
nodes = (
(308,-9,o),
(448,8,o),
(530,101,c),
(625,214,o),
(640,343,o),
(566,493,c),
(506,571,o),
(436,652,o),
(233,651,c),
(114,651,o),
(43,635,o),
(40,564,c),
(27,413,o),
(29,252,o),
(40,85,c),
(53,41,o),
(90,2,o),
(166,-2,cs)
);
},
{
closed = 1;
nodes = (
(221,285,o),
(221,386,o),
(225,483,c),
(333,496,o),
(406,464,o),
(413,332,c),
(408,231,o),
(361,169,o),
(224,180,c)
);
}
);
width = 643;
},
{
anchors = (
{
name = top;
pos = (319,643);
}
);
background = {
anchors = (
{
name = top;
pos = (319,643);
}
);
shapes = (
{
closed = 1;
nodes = (
(275,-2,o),
(408,13,o),
(490,106,c),
(578,220,o),
(599,348,o),
(525,498,c),
(466,576,o),
(403,652,o),
(200,651,cs),
(109,652,o),
(50,644,o),
(51,619,c),
(51,421,o),
(51,222,o),
(51,24,c),
(61,6,o),
(89,-2,o),
(133,-2,cs)
);
},
{
closed = 1;
nodes = (
(98,238,o),
(97,428,o),
(106,609,c),
(344,633,o),
(505,574,o),
(521,326,c),
(511,137,o),
(406,22,o),
(105,42,c)
);
}
);
};
layerId = "6B947F8E-B64D-4F43-8779-746217178CEC";
shapes = (
{
closed = 1;
nodes = (
(275,-2,o),
(408,13,o),
(490,106,c),
(578,220,o),
(599,348,o),
(525,498,c),
(466,576,o),
(403,652,o),
(200,651,cs),
(109,652,o),
(50,644,o),
(51,619,c),
(51,421,o),
(51,222,o),
(51,24,c),
(61,6,o),
(89,-2,o),
(133,-2,cs)
);
},
{
closed = 1;
nodes = (
(98,238,o),
(97,428,o),
(106,609,c),
(344,633,o),
(505,574,o),
(521,326,c),
(511,137,o),
(406,22,o),
(105,42,c)
);
}
);
width = 621;
}
);
unicode = 68;
},
{
glyphname = Dcaron;
kernLeft = H1;
kernRight = C;
lastChange = "2024-07-18 12:46:04 +0000";
layers = (
{
background = {
anchors = (
{
name = top;
pos = (478,643);
}
);
shapes = (
{
closed = 1;
nodes = (
(461,-9,o),
(671,8,o),
(794,101,c),
(937,214,o),
(959,343,o),
(848,493,c),
(758,571,o),
(653,652,o),
(349,651,c),
(170,651,o),
(64,635,o),
(59,564,c),
(40,413,o),
(43,252,o),
(59,85,c),
(79,41,o),
(134,2,o),
(248,-2,cs)
);
},
{
closed = 1;
nodes = (
(331,285,o),
(331,386,o),
(337,483,c),
(499,496,o),
(608,464,o),
(619,332,c),
(611,231,o),
(541,169,o),
(335,180,c)
);
},
{
closed = 1;
nodes = (
(695,757,o),
(730,795,o),
(658,829,cs),
(608,853,o),
(554,836,o),
(554,836,c),
(532,824,o),
(500,808,o),
(478,794,c),
(415,827,l),
(415,827,o),
(338,852,o),
(284,821,cs),
(208,777,o),
(293,730,o),
(293,730,c),
(413,679,l),
(461,653,o),
(542,658,o),
(569,673,c),
(635,705,o),
(658,721,o),
(695,757,c)
);
}
);
};
layerId = "1EECF98D-35CB-4836-8875-A967ACEC66D2";
shapes = (
{
alignment = -1;
ref = D;
},
{
alignment = -1;
pos = (207,183);
ref = caron;
}
);
width = 964;
},
{
background = {
anchors = (
{
name = top;
pos = (478,643);
}
);
shapes = (
{
closed = 1;
nodes = (
(412,-2,o),
(611,13,o),
(734,106,c),
(866,220,o),
(898,348,o),
(787,498,c),
(698,576,o),
(604,652,o),
(299,651,cs),
(163,652,o),
(74,644,o),
(76,619,c),
(76,421,o),
(76,222,o),
(76,24,c),
(91,6,o),
(133,-2,o),
(199,-2,cs)
);
},
{
closed = 1;
nodes = (
(146,238,o),
(145,428,o),
(158,609,c),
(515,633,o),
(757,574,o),
(781,326,c),
(766,137,o),
(608,22,o),
(157,42,c)
);
},
{
closed = 1;
nodes = (
(686,803,o),
(700,817,o),
(682,825,cs),
(664,832,o),
(647,822,o),
(647,822,c),
(569,766,o),
(521,733,o),
(479,722,c),
(326,798,l),
(326,798,o),
(299,808,o),
(287,796,cs),
(275,785,o),
(290,774,o),
(290,774,c),
(446,700,l),
(478,687,o),
(506,689,o),
(532,703,cs),
(593,736,o),
(649,769,o),
(686,803,c)
);
}
);
};
layerId = "1C3422F9-BFDE-4FE8-A46C-291A8D4071B9";
shapes = (
{
alignment = -1;
ref = D;
},
{
alignment = -1;
pos = (207,183);
ref = caron;
}
);
width = 930;
},
{
background = {
anchors = (
{
name = top;
pos = (319,643);
}
);
shapes = (
{
closed = 1;
nodes = (
(308,-9,o),
(448,8,o),
(530,101,c),
(625,214,o),
(640,343,o),
(566,493,c),
(506,571,o),
(436,652,o),
(233,651,c),
(114,651,o),
(43,635,o),
(40,564,c),
(27,413,o),
(29,252,o),
(40,85,c),
(53,41,o),
(90,2,o),
(166,-2,cs)
);
},
{
closed = 1;
nodes = (
(221,285,o),
(221,386,o),
(225,483,c),
(333,496,o),
(406,464,o),
(413,332,c),
(408,231,o),
(361,169,o),
(224,180,c)
);
},
{
closed = 1;
nodes = (
(464,757,o),
(487,795,o),
(439,829,cs),
(406,853,o),
(370,836,o),
(370,836,c),
(355,824,o),
(334,808,o),
(319,794,c),
(277,827,l),
(277,827,o),
(226,852,o),
(190,821,cs),
(139,777,o),
(196,730,o),
(196,730,c),
(276,679,l),
(308,653,o),
(362,658,o),
(380,673,c),
(424,705,o),
(439,721,o),
(464,757,c)
);
}
);
};
layerId = "EE7B1B97-935D-491C-911D-EA8B82785AFC";
shapes = (
{
alignment = -1;
ref = D;
},
{
alignment = -1;
pos = (138,183);
ref = caron;
}
);
width = 643;
},
{
background = {
anchors = (
{
name = top;
pos = (319,643);
}
);
shapes = (
{
closed = 1;
nodes = (
(275,-2,o),
(408,13,o),
(490,106,c),
(578,220,o),
(599,348,o),
(525,498,c),
(466,576,o),
(403,652,o),
(200,651,cs),
(109,652,o),
(50,644,o),
(51,619,c),
(51,421,o),
(51,222,o),
(51,24,c),
(61,6,o),
(89,-2,o),
(133,-2,cs)
);
},
{
closed = 1;
nodes = (
(98,238,o),
(97,428,o),
(106,609,c),
(344,633,o),
(505,574,o),
(521,326,c),
(511,137,o),
(406,22,o),
(105,42,c)
);
},
{
closed = 1;
nodes = (
(458,803,o),
(467,817,o),
(455,825,cs),
(443,832,o),
(432,822,o),
(432,822,c),
(380,766,o),
(348,733,o),
(320,722,c),
(218,798,l),
(218,798,o),
(200,808,o),
(192,796,cs),
(184,785,o),
(194,774,o),
(194,774,c),
(298,700,l),
(319,687,o),
(338,689,o),
(355,703,cs),
(396,736,o),
(433,769,o),
(458,803,c)
);
}
);
};
layerId = "6B947F8E-B64D-4F43-8779-746217178CEC";
shapes = (
{
alignment = -1;
ref = D;
},
{
alignment = -1;
pos = (138,183);
ref = caron;
}
);
width = 621;
}
);
unicode = 270;
},
{
color = (153,255,154,255);
glyphname = Dcroat;
kernLeft = H1;
kernRight = C;
lastChange = "2024-07-18 13:22:01 +0000";
layers = (
{
anchors = (
{
name = top;
pos = (478,643);
}
);
background = {
anchors = (
{
name = top;
pos = (478,643);
}
);
shapes = (
{
closed = 1;
nodes = (
(758,571,o),
(653,652,o),
(349,651,c),
(170,651,o),
(64,635,o),
(59,564,c),
(40,413,o),
(43,252,o),
(59,85,c),
(79,41,o),
(134,2,o),
(248,-2,cs),
(461,-9,o),
(671,8,o),
(794,101,c),
(937,214,o),
(959,343,o),
(848,493,c)
);
},
{
closed = 1;
nodes = (
(331,285,o),
(331,386,o),
(337,483,c),
(499,496,o),
(608,464,o),
(619,332,c),
(611,231,o),
(541,169,o),
(335,180,c)
);
},
{
closed = 1;
nodes = (
(-7,379,o),
(-72,366,o),
(-45,313,cs),
(-22,263,o),
(63,268,o),
(63,268,c),
(206,274,o),
(263,271,o),
(438,263,c),
(438,263,o),
(528,267,o),
(528,327,cs),
(528,373,o),
(433,394,o),
(433,394,c),
(266,412,o),
(90,394,o),
(-7,379,c)
);
}
);
};
layerId = "1EECF98D-35CB-4836-8875-A967ACEC66D2";
shapes = (
{
closed = 1;
nodes = (
(461,-9,o),
(671,8,o),
(794,101,c),
(937,214,o),
(959,343,o),
(848,493,c),
(758,571,o),
(653,652,o),
(349,651,c),
(170,651,o),
(64,635,o),
(59,564,c),
(40,413,o),
(43,252,o),
(59,85,c),
(79,41,o),
(134,2,o),
(248,-2,cs)
);
},
{
closed = 1;
nodes = (
(438,263,o),
(528,267,o),
(528,327,cs),
(528,373,o),
(433,394,o),
(433,394,c),
(266,412,o),
(90,394,o),
(-7,379,c),
(-7,379,o),
(-72,366,o),
(-45,313,cs),
(-22,263,o),
(63,268,o),
(63,268,c),
(206,274,o),
(263,271,o),
(438,263,c)
);
},
{
closed = 1;
nodes = (
(331,285,o),
(331,386,o),
(337,483,c),
(499,496,o),
(608,464,o),
(619,332,c),
(611,231,o),
(541,169,o),
(335,180,c)
);
}
);
width = 964;
},
{
anchors = (
{
name = top;
pos = (478,643);
}
);
background = {
anchors = (
{
name = top;
pos = (478,643);
}
);
shapes = (
{
closed = 1;
nodes = (
(698,576,o),
(604,652,o),
(299,651,cs),
(163,652,o),
(74,644,o),
(76,619,c),
(76,421,o),
(76,222,o),
(76,24,c),
(91,6,o),
(133,-2,o),
(199,-2,cs),
(412,-2,o),
(611,13,o),
(734,106,c),
(866,220,o),
(898,348,o),
(787,498,c)
);
},
{
closed = 1;
nodes = (
(146,238,o),
(145,428,o),
(158,609,c),
(515,633,o),
(757,574,o),
(781,326,c),
(766,137,o),
(608,22,o),
(157,42,c)
);
},
{
closed = 1;
nodes = (
(-66,332,o),
(-96,326,o),
(-89,311,c),
(-83,295,o),
(-48,298,o),
(-48,298,c),
(150,309,o),
(204,309,o),
(414,300,c),
(414,300,o),
(447,298,o),
(452,316,cs),
(456,334,o),
(413,340,o),
(413,340,c),
(194,353,o),
(134,352,o),
(-66,332,c)
);
}
);
};
layerId = "1C3422F9-BFDE-4FE8-A46C-291A8D4071B9";
shapes = (
{
closed = 1;
nodes = (
(412,-2,o),
(611,13,o),
(734,106,c),
(866,220,o),
(898,348,o),
(787,498,c),
(698,576,o),
(604,652,o),
(299,651,cs),
(163,652,o),
(74,644,o),
(76,619,c),
(76,421,o),
(76,222,o),
(76,24,c),
(91,6,o),
(133,-2,o),
(199,-2,cs)
);
},
{
closed = 1;
nodes = (
(150,309,o),
(204,309,o),
(414,300,c),
(414,300,o),
(447,298,o),
(452,316,cs),
(456,334,o),
(413,340,o),
(413,340,c),
(194,353,o),
(134,352,o),
(-66,332,c),
(-66,332,o),
(-96,326,o),
(-89,311,c),
(-83,295,o),
(-48,298,o),
(-48,298,c)
);
},
{
closed = 1;
nodes = (
(146,238,o),
(145,428,o),
(158,609,c),
(515,633,o),
(757,574,o),
(781,326,c),
(766,137,o),
(608,22,o),
(157,42,c)
);
}
);
width = 930;
},
{
anchors = (
{
name = top;
pos = (319,643);
}
);
background = {
anchors = (
{
name = top;
pos = (319,643);
}
);
shapes = (
{
closed = 1;
nodes = (
(506,571,o),
(436,652,o),
(233,651,c),
(114,651,o),
(43,635,o),
(40,564,c),
(27,413,o),
(29,252,o),
(40,85,c),
(53,41,o),
(90,2,o),
(166,-2,cs),
(308,-9,o),
(448,8,o),
(530,101,c),
(625,214,o),
(640,343,o),
(566,493,c)
);
},
{
closed = 1;
nodes = (
(221,285,o),
(221,386,o),
(225,483,c),
(333,496,o),
(406,464,o),
(413,332,c),
(408,231,o),
(361,169,o),
(224,180,c)
);
},
{
closed = 1;
nodes = (
(-17,371,o),
(-60,358,o),
(-43,306,cs),
(-27,257,o),
(28,262,o),
(28,262,c),
(122,268,o),
(159,265,o),
(273,257,c),
(273,257,o),
(332,261,o),
(332,320,cs),
(332,364,o),
(270,386,o),
(270,386,c),
(161,403,o),
(46,386,o),
(-17,371,c)
);
}
);
};
layerId = "EE7B1B97-935D-491C-911D-EA8B82785AFC";
shapes = (
{
closed = 1;
nodes = (
(308,-9,o),
(448,8,o),
(530,101,c),
(625,214,o),
(640,343,o),
(566,493,c),
(506,571,o),
(436,652,o),
(233,651,c),
(114,651,o),
(43,635,o),
(40,564,c),
(27,413,o),
(29,252,o),
(40,85,c),
(53,41,o),
(90,2,o),
(166,-2,cs)
);
},
{
closed = 1;
nodes = (
(273,257,o),
(332,261,o),
(332,320,cs),
(332,364,o),
(270,386,o),
(270,386,c),
(161,403,o),
(46,386,o),
(-17,371,c),
(-17,371,o),
(-60,358,o),
(-43,306,cs),
(-27,257,o),
(28,262,o),
(28,262,c),
(122,268,o),
(159,265,o),
(273,257,c)
);
},
{
closed = 1;
nodes = (
(221,285,o),
(221,386,o),
(225,483,c),
(333,496,o),
(406,464,o),
(413,332,c),
(408,231,o),
(361,169,o),
(224,180,c)
);
}
);
width = 643;
},
{
anchors = (
{
name = top;
pos = (319,643);
}
);
background = {
anchors = (
{
name = top;
pos = (319,643);
}
);
shapes = (
{
closed = 1;
nodes = (
(466,576,o),
(403,652,o),
(200,651,cs),
(109,652,o),
(50,644,o),
(51,619,c),
(51,421,o),
(51,222,o),
(51,24,c),
(61,6,o),
(89,-2,o),
(133,-2,cs),
(275,-2,o),
(408,13,o),
(490,106,c),
(578,220,o),
(599,348,o),
(525,498,c)
);
},
{
closed = 1;
nodes = (
(98,238,o),
(97,428,o),
(106,609,c),
(344,633,o),
(505,574,o),
(521,326,c),
(511,137,o),
(406,22,o),
(105,42,c)
);
},
{
closed = 1;
nodes = (
(-61,333,o),
(-81,327,o),
(-76,312,c),
(-72,296,o),
(-49,299,o),
(-49,299,c),
(83,310,o),
(119,310,o),
(259,301,c),
(259,301,o),
(281,299,o),
(284,317,cs),
(287,335,o),
(258,341,o),
(258,341,c),
(112,354,o),
(72,353,o),
(-61,333,c)
);
}
);
};
layerId = "6B947F8E-B64D-4F43-8779-746217178CEC";
shapes = (
{
closed = 1;
nodes = (
(275,-2,o),
(408,13,o),
(490,106,c),
(578,220,o),
(599,348,o),
(525,498,c),
(466,576,o),
(403,652,o),
(200,651,cs),
(109,652,o),
(50,644,o),
(51,619,c),
(51,421,o),
(51,222,o),
(51,24,c),
(61,6,o),
(89,-2,o),
(133,-2,cs)
);
},
{
closed = 1;
nodes = (
(83,310,o),
(119,310,o),
(259,301,c),
(259,301,o),
(281,299,o),
(284,317,cs),
(287,335,o),
(258,341,o),
(258,341,c),
(112,354,o),
(72,353,o),
(-61,333,c),
(-61,333,o),
(-81,327,o),
(-76,312,c),
(-72,296,o),
(-49,299,o),
(-49,299,c)
);
},
{
closed = 1;
nodes = (
(98,238,o),
(97,428,o),
(106,609,c),
(344,633,o),
(505,574,o),
(521,326,c),
(511,137,o),
(406,22,o),
(105,42,c)
);
}
);
width = 621;
}
);
unicode = 272;
},
{
glyphname = Eth;
kernLeft = H1;
kernRight = C;
lastChange = "2024-07-18 12:46:04 +0000";
layers = (
{
anchors = (
{
name = top;
pos = (478,643);
}
);
background = {
anchors = (
{
name = top;
pos = (478,643);
}
);
shapes = (
{
closed = 1;
nodes = (
(461,-9,o),
(671,8,o),
(794,101,c),
(937,214,o),
(959,343,o),
(848,493,c),
(758,571,o),
(653,652,o),
(349,651,c),
(170,651,o),
(64,635,o),
(59,564,c),
(40,413,o),
(43,252,o),
(59,85,c),
(79,41,o),
(134,2,o),
(248,-2,cs)
);
},
{
closed = 1;
nodes = (
(331,285,o),
(331,386,o),
(337,483,c),
(499,496,o),
(608,464,o),
(619,332,c),
(611,231,o),
(541,169,o),
(335,180,c)
);
},
{
closed = 1;
nodes = (
(-7,379,o),
(-72,366,o),
(-45,313,cs),
(-22,263,o),
(63,268,o),
(63,268,c),
(206,274,o),
(263,271,o),
(438,263,c),
(438,263,o),
(529,267,o),
(529,327,cs),
(529,373,o),
(433,394,o),
(433,394,c),
(266,412,o),
(90,394,o),
(-7,379,c)
);
}
);
};
layerId = "1EECF98D-35CB-4836-8875-A967ACEC66D2";
shapes = (
{
alignment = -1;
ref = D;
},
{
alignment = -1;
pos = (-89,68);
ref = hyphen;
scale = (0.83,0.83);
}
);
width = 964;
},
{
anchors = (
{
name = top;
pos = (478,643);
}
);
background = {
anchors = (
{
name = top;
pos = (478,643);
}
);
shapes = (
{
closed = 1;
nodes = (
(412,-2,o),
(611,13,o),
(734,106,c),
(866,220,o),
(898,348,o),
(787,498,c),
(698,576,o),
(604,652,o),
(299,651,cs),
(163,652,o),
(74,644,o),
(76,619,c),
(76,421,o),
(76,222,o),
(76,24,c),
(91,6,o),
(133,-2,o),
(199,-2,cs)
);
},
{
closed = 1;
nodes = (
(146,238,o),
(145,428,o),
(158,609,c),
(515,633,o),
(757,574,o),
(781,326,c),
(766,137,o),
(608,22,o),
(157,42,c)
);
},
{
closed = 1;
nodes = (
(-66,332,o),
(-96,326,o),
(-88,311,c),
(-82,295,o),
(-48,298,o),
(-48,298,c),
(150,309,o),
(204,309,o),
(414,300,c),
(414,300,o),
(447,298,o),
(452,316,cs),
(456,334,o),
(413,340,o),
(413,340,c),
(194,353,o),
(134,352,o),
(-66,332,c)
);
}
);
};
layerId = "1C3422F9-BFDE-4FE8-A46C-291A8D4071B9";
shapes = (
{
alignment = -1;
ref = D;
},
{
alignment = -1;
pos = (-165,4);
ref = hyphen;
}
);
width = 930;
},
{
anchors = (
{
name = top;
pos = (319,643);
}
);
background = {
anchors = (
{
name = top;
pos = (319,643);
}
);
shapes = (
{
closed = 1;
nodes = (
(308,-9,o),
(448,8,o),
(530,101,c),
(625,214,o),
(640,343,o),
(566,493,c),
(506,571,o),
(436,652,o),
(233,651,c),
(114,651,o),
(43,635,o),
(40,564,c),
(27,413,o),
(29,252,o),
(40,85,c),
(53,41,o),
(90,2,o),
(166,-2,cs)
);
},
{
closed = 1;
nodes = (
(221,285,o),
(221,386,o),
(225,483,c),
(333,496,o),
(406,464,o),
(413,332,c),
(408,231,o),
(361,169,o),
(224,180,c)
);
},
{
closed = 1;
nodes = (
(-17,371,o),
(-60,358,o),
(-43,306,cs),
(-27,257,o),
(28,262,o),
(28,262,c),
(122,268,o),
(159,265,o),
(273,257,c),
(273,257,o),
(332,261,o),
(332,320,cs),
(332,364,o),
(270,386,o),
(270,386,c),
(161,403,o),
(46,386,o),
(-17,371,c)
);
}
);
};
layerId = "EE7B1B97-935D-491C-911D-EA8B82785AFC";
shapes = (
{
alignment = -1;
ref = D;
},
{
alignment = -1;
pos = (-71,66);
ref = hyphen;
scale = (0.813,0.813);
}
);
width = 643;
},
{
anchors = (
{
name = top;
pos = (319,643);
}
);
background = {
anchors = (
{
name = top;
pos = (319,643);
}
);
shapes = (
{
closed = 1;
nodes = (
(275,-2,o),
(408,13,o),
(490,106,c),
(578,220,o),
(599,348,o),
(525,498,c),
(466,576,o),
(403,652,o),
(200,651,cs),
(109,652,o),
(50,644,o),
(51,619,c),
(51,421,o),
(51,222,o),
(51,24,c),
(61,6,o),
(89,-2,o),
(133,-2,cs)
);
},
{
closed = 1;
nodes = (
(98,238,o),
(97,428,o),
(106,609,c),
(344,633,o),
(505,574,o),
(521,326,c),
(511,137,o),
(406,22,o),
(105,42,c)
);
},
{
closed = 1;
nodes = (
(-61,333,o),
(-81,327,o),
(-76,312,c),
(-72,296,o),
(-49,299,o),
(-49,299,c),
(83,310,o),
(119,310,o),
(259,301,c),
(259,301,o),
(281,299,o),
(284,317,cs),
(287,335,o),
(258,341,o),
(258,341,c),
(112,354,o),
(72,353,o),
(-61,333,c)
);
}
);
};
layerId = "6B947F8E-B64D-4F43-8779-746217178CEC";
shapes = (
{
alignment = -1;
ref = D;
},
{
alignment = -1;
pos = (-127,5);
ref = hyphen;
}
);
width = 621;
}
);
unicode = 208;
},
{
glyphname = E;
kernLeft = H1;
kernRight = E;
lastChange = "2024-07-18 13:22:01 +0000";
layers = (
{
anchors = (
{
name = bottom;
pos = (627,82);
},
{
name = top;
pos = (432,643);
}
);
associatedMasterId = "6B947F8E-B64D-4F43-8779-746217178CEC";
layerId = "FC2E0489-11A5-440C-8B4C-71CFB6149F63";
name = "#instance";
shapes = (
{
closed = 1;
nodes = (
(71,613,o),
(101,644,o),
(180,650,c),
(578,657,l),
(578,657,o),
(759,660,o),
(764,570,c),
(767,498,o),
(653,493,o),
(653,493,c),
(335,503,l),
(326,332,o),
(327,321,o),
(330,167,c),
(480,183,o),
(443,178,o),
(590,198,c),
(590,198,o),
(738,202,o),
(765,134,c),
(798,56,o),
(698,40,o),
(698,40,c),
(515,13,o),
(422,-3,o),
(227,2,c),
(57,13,o),
(62,90,o),
(57,113,c),
(44,303,o),
(36,385,o),
(65,595,c)
);
},
{
closed = 1;
nodes = (
(96,415,l),
(515,426,l),
(515,426,o),
(653,410,o),
(653,339,cs),
(653,263,o),
(542,262,o),
(542,262,c),
(113,251,l)
);
}
);
width = 817;
},
{
anchors = (
{
name = bottom;
pos = (627,82);
},
{
name = top;
pos = (432,643);
}
);
background = {
anchors = (
{
name = bottom;
pos = (627,82);
},
{
name = top;
pos = (432,643);
}
);
shapes = (
{
closed = 1;
nodes = (
(71,613,o),
(101,644,o),
(180,650,c),
(578,657,l),
(578,657,o),
(759,660,o),
(764,570,cs),
(767,498,o),
(653,493,o),
(653,493,c),
(335,503,l),
(326,332,o),
(327,321,o),
(330,167,c),
(480,183,o),
(443,178,o),
(590,198,c),
(590,198,o),
(738,202,o),
(765,134,cs),
(798,56,o),
(698,40,o),
(698,40,c),
(515,13,o),
(422,-3,o),
(227,2,c),
(57,13,o),
(62,90,o),
(57,113,c),
(44,303,o),
(36,385,o),
(65,595,c)
);
},
{
closed = 1;
nodes = (
(96,415,l),
(515,426,l),
(515,426,o),
(653,410,o),
(653,339,cs),
(653,263,o),
(542,262,o),
(542,262,c),
(113,251,l)
);
}
);
};
layerId = "1EECF98D-35CB-4836-8875-A967ACEC66D2";
shapes = (
{
closed = 1;
nodes = (
(422,-3,o),
(515,13,o),
(698,40,c),
(698,40,o),
(798,56,o),
(765,134,cs),
(738,202,o),
(590,198,o),
(590,198,c),
(443,178,o),
(480,183,o),
(330,167,c),
(327,321,o),
(326,332,o),
(335,503,c),
(653,493,l),
(653,493,o),
(767,498,o),
(764,570,cs),
(759,660,o),
(578,657,o),
(578,657,c),
(180,650,l),
(101,644,o),
(71,613,o),
(65,595,c),
(36,385,o),
(44,303,o),
(57,113,c),
(62,90,o),
(57,13,o),
(227,2,c)
);
},
{
closed = 1;
nodes = (
(542,262,l),
(542,262,o),
(653,263,o),
(653,339,cs),
(653,410,o),
(515,426,o),
(515,426,c),
(96,415,l),
(113,251,l)
);
}
);
width = 817;
},
{
anchors = (
{
name = bottom;
pos = (626,82);
},
{
name = top;
pos = (431,643);
}
);
background = {
anchors = (
{
name = bottom;
pos = (626,82);
},
{
name = top;
pos = (431,643);
}
);
shapes = (
{
closed = 1;
nodes = (
(100,651,o),
(125,659,o),
(170,657,c),
(715,650,l),
(715,650,o),
(755,648,o),
(755,627,c),
(754,606,o),
(716,609,o),
(716,609,c),
(161,623,l),
(136,445,o),
(140,247,o),
(158,40,c),
(374,54,o),
(574,70,o),
(721,91,c),
(721,91,o),
(757,97,o),
(764,76,cs),
(772,56,o),
(746,52,o),
(746,52,c),
(553,26,o),
(362,9,o),
(175,2,c),
(125,1,o),
(97,9,o),
(89,26,c),
(76,221,o),
(65,418,o),
(94,633,c)
);
},
{
closed = 1;
nodes = (
(119,359,l),
(538,370,l),
(538,370,o),
(599,371,o),
(599,346,cs),
(599,326,o),
(547,327,o),
(547,327,c),
(119,316,l)
);
}
);
};
layerId = "1C3422F9-BFDE-4FE8-A46C-291A8D4071B9";
shapes = (
{
closed = 1;
nodes = (
(362,9,o),
(553,26,o),
(746,52,c),
(746,52,o),
(772,56,o),
(764,76,cs),
(757,97,o),
(721,91,o),
(721,91,c),
(574,70,o),
(374,54,o),
(158,40,c),
(140,247,o),
(136,445,o),
(161,623,c),
(716,609,l),
(716,609,o),
(754,606,o),
(755,627,c),
(755,648,o),
(715,650,o),
(715,650,c),
(170,657,l),
(125,659,o),
(100,651,o),
(94,633,c),
(65,418,o),
(76,221,o),
(89,26,c),
(97,9,o),
(125,1,o),
(175,2,c)
);
},
{
closed = 1;
nodes = (
(547,327,l),
(547,327,o),
(599,326,o),
(599,346,cs),
(599,371,o),
(538,370,o),
(538,370,c),
(119,359,l),
(119,316,l)
);
}
);
width = 841;
},
{
anchors = (
{
name = bottom;
pos = (418,82);
},
{
name = top;
pos = (288,643);
}
);
background = {
anchors = (
{
name = bottom;
pos = (418,82);
},
{
name = top;
pos = (288,643);
}
);
shapes = (
{
closed = 1;
nodes = (
(47,613,o),
(67,644,o),
(120,650,c),
(385,657,l),
(385,657,o),
(506,660,o),
(509,570,cs),
(511,498,o),
(435,493,o),
(435,493,c),
(223,503,l),
(217,332,o),
(218,321,o),
(220,167,c),
(320,183,o),
(295,178,o),
(393,198,c),
(393,198,o),
(492,202,o),
(510,134,cs),
(532,56,o),
(465,40,o),
(465,40,c),
(343,13,o),
(281,-3,o),
(151,2,c),
(38,13,o),
(41,90,o),
(38,113,c),
(29,303,o),
(24,385,o),
(43,595,c)
);
},
{
closed = 1;
nodes = (
(64,415,l),
(343,426,l),
(343,426,o),
(435,410,o),
(435,339,cs),
(435,263,o),
(361,262,o),
(361,262,c),
(75,251,l)
);
}
);
};
layerId = "EE7B1B97-935D-491C-911D-EA8B82785AFC";
shapes = (
{
closed = 1;
nodes = (
(281,-3,o),
(343,13,o),
(465,40,c),
(465,40,o),
(532,56,o),
(510,134,cs),
(492,202,o),
(393,198,o),
(393,198,c),
(295,178,o),
(320,183,o),
(220,167,c),
(218,321,o),
(217,332,o),
(223,503,c),
(435,493,l),
(435,493,o),
(511,498,o),
(509,570,cs),
(506,660,o),
(385,657,o),
(385,657,c),
(120,650,l),
(67,644,o),
(47,613,o),
(43,595,c),
(24,385,o),
(29,303,o),
(38,113,c),
(41,90,o),
(38,13,o),
(151,2,c)
);
},
{
closed = 1;
nodes = (
(361,262,l),
(361,262,o),
(435,263,o),
(435,339,cs),
(435,410,o),
(343,426,o),
(343,426,c),
(64,415,l),
(75,251,l)
);
}
);
width = 545;
},
{
anchors = (
{
name = bottom;
pos = (418,82);
},
{
name = top;
pos = (288,643);
}
);
background = {
anchors = (
{
name = bottom;
pos = (418,82);
},
{
name = top;
pos = (288,643);
}
);
shapes = (
{
closed = 1;
nodes = (
(67,651,o),
(84,659,o),
(114,657,c),
(477,650,l),
(477,650,o),
(504,648,o),
(504,627,c),
(503,606,o),
(478,609,o),
(478,609,c),
(108,623,l),
(91,445,o),
(94,247,o),
(106,40,c),
(250,54,o),
(383,70,o),
(481,91,c),
(481,91,o),
(505,97,o),
(510,76,cs),
(515,56,o),
(498,52,o),
(498,52,c),
(369,26,o),
(242,9,o),
(117,2,c),
(84,1,o),
(65,9,o),
(60,26,c),
(51,221,o),
(44,418,o),
(63,633,c)
);
},
{
closed = 1;
nodes = (
(80,359,l),
(359,370,l),
(359,370,o),
(400,371,o),
(400,346,cs),
(400,326,o),
(365,327,o),
(365,327,c),
(80,316,l)
);
}
);
};
layerId = "6B947F8E-B64D-4F43-8779-746217178CEC";
shapes = (
{
closed = 1;
nodes = (
(242,9,o),
(369,26,o),
(498,52,c),
(498,52,o),
(515,56,o),
(510,76,cs),
(505,97,o),
(481,91,o),
(481,91,c),
(383,70,o),
(250,54,o),
(106,40,c),
(94,247,o),
(91,445,o),
(108,623,c),
(478,609,l),
(478,609,o),
(503,606,o),
(504,627,c),
(504,648,o),
(477,650,o),
(477,650,c),
(114,657,l),
(84,659,o),
(67,651,o),
(63,633,c),
(44,418,o),
(51,221,o),
(60,26,c),
(65,9,o),
(84,1,o),
(117,2,c)
);
},
{
closed = 1;
nodes = (
(365,327,l),
(365,327,o),
(400,326,o),
(400,346,cs),
(400,371,o),
(359,370,o),
(359,370,c),
(80,359,l),
(80,316,l)
);
}
);
width = 561;
}
);
unicode = 69;
},
{
glyphname = Eacute;
kernLeft = H1;
kernRight = E;
lastChange = "2024-07-18 12:46:04 +0000";
layers = (
{
anchors = (
{
name = bottom;
pos = (627,82);
}
);
background = {
anchors = (
{
name = bottom;
pos = (627,82);
},
{
name = top;
pos = (432,643);
}
);
shapes = (
{
closed = 1;
nodes = (
(71,613,o),
(101,644,o),
(180,650,c),
(578,657,l),
(578,657,o),
(759,660,o),
(764,570,cs),
(767,498,o),
(653,493,o),
(653,493,c),
(335,503,l),
(326,332,o),
(327,321,o),
(330,167,c),
(480,183,o),
(443,178,o),
(590,198,c),
(590,198,o),
(738,202,o),
(765,134,cs),
(798,56,o),
(698,40,o),
(698,40,c),
(515,13,o),
(422,-3,o),
(227,2,c),
(57,13,o),
(62,90,o),
(57,113,c),
(44,303,o),
(36,385,o),
(65,595,c)
);
},
{
closed = 1;
nodes = (
(96,415,l),
(515,426,l),
(515,426,o),
(653,410,o),
(653,339,cs),
(653,263,o),
(542,262,o),
(542,262,c),
(113,251,l)
);
},
{
closed = 1;
nodes = (
(495,832,o),
(579,843,o),
(612,809,cs),
(649,769,o),
(594,738,o),
(594,738,c),
(531,695,o),
(409,674,o),
(367,669,c),
(367,669,o),
(283,660,o),
(255,695,cs),
(205,757,o),
(310,792,o),
(310,792,c),
(408,822,o),
(457,828,o),
(495,832,c)
);
}
);
};
layerId = "1EECF98D-35CB-4836-8875-A967ACEC66D2";
shapes = (
{
alignment = -1;
ref = E;
},
{
alignment = -1;
pos = (196,183);
ref = acute;
}
);
width = 817;
},
{
anchors = (
{
name = bottom;
pos = (626,82);
}
);
background = {
anchors = (
{
name = bottom;
pos = (626,82);
},
{
name = top;
pos = (431,643);
}
);
shapes = (
{
closed = 1;
nodes = (
(100,651,o),
(125,659,o),
(170,657,c),
(715,650,l),
(715,650,o),
(755,648,o),
(755,627,c),
(754,606,o),
(716,609,o),
(716,609,c),
(161,623,l),
(136,445,o),
(140,247,o),
(158,40,c),
(374,54,o),
(574,70,o),
(721,91,c),
(721,91,o),
(757,97,o),
(764,76,cs),
(772,56,o),
(746,52,o),
(746,52,c),
(553,26,o),
(362,9,o),
(175,2,c),
(125,1,o),
(97,9,o),
(89,26,c),
(76,221,o),
(65,418,o),
(94,633,c)
);
},
{
closed = 1;
nodes = (
(119,359,l),
(538,370,l),
(538,370,o),
(599,371,o),
(599,346,cs),
(599,326,o),
(547,327,o),
(547,327,c),
(119,316,l)
);
},
{
closed = 1;
nodes = (
(555,811,o),
(576,820,o),
(588,806,cs),
(600,792,o),
(578,785,o),
(578,785,c),
(494,750,o),
(399,718,o),
(294,689,c),
(294,689,o),
(269,682,o),
(258,696,cs),
(249,709,o),
(273,720,o),
(273,720,c),
(371,749,o),
(465,780,o),
(555,811,c)
);
}
);
};
layerId = "1C3422F9-BFDE-4FE8-A46C-291A8D4071B9";
shapes = (
{
alignment = -1;
ref = E;
},
{
alignment = -1;
pos = (180,183);
ref = acute;
}
);
width = 841;
},
{
anchors = (
{
name = bottom;
pos = (418,82);
}
);
background = {
anchors = (
{
name = bottom;
pos = (418,82);
},
{
name = top;
pos = (288,643);
}
);
shapes = (
{
closed = 1;
nodes = (
(47,613,o),
(67,644,o),
(120,650,c),
(385,657,l),
(385,657,o),
(506,660,o),
(509,570,cs),
(511,498,o),
(435,493,o),
(435,493,c),
(223,503,l),
(217,332,o),
(218,321,o),
(220,167,c),
(320,183,o),
(295,178,o),
(393,198,c),
(393,198,o),
(492,202,o),
(510,134,cs),
(532,56,o),
(465,40,o),
(465,40,c),
(343,13,o),
(281,-3,o),
(151,2,c),
(38,13,o),
(41,90,o),
(38,113,c),
(29,303,o),
(24,385,o),
(43,595,c)
);
},
{
closed = 1;
nodes = (
(64,415,l),
(343,426,l),
(343,426,o),
(435,410,o),
(435,339,cs),
(435,263,o),
(361,262,o),
(361,262,c),
(75,251,l)
);
},
{
closed = 1;
nodes = (
(330,832,o),
(386,843,o),
(408,809,cs),
(433,769,o),
(396,738,o),
(396,738,c),
(354,695,o),
(273,674,o),
(245,669,c),
(245,669,o),
(189,660,o),
(170,695,cs),
(137,757,o),
(207,792,o),
(207,792,c),
(272,822,o),
(305,828,o),
(330,832,c)
);
}
);
};
layerId = "EE7B1B97-935D-491C-911D-EA8B82785AFC";
shapes = (
{
alignment = -1;
ref = E;
},
{
alignment = -1;
pos = (131,183);
ref = acute;
}
);
width = 545;
},
{
anchors = (
{
name = bottom;
pos = (418,82);
}
);
background = {
anchors = (
{
name = bottom;
pos = (418,82);
},
{
name = top;
pos = (288,643);
}
);
shapes = (
{
closed = 1;
nodes = (
(67,651,o),
(84,659,o),
(114,657,c),
(477,650,l),
(477,650,o),
(504,648,o),
(504,627,c),
(503,606,o),
(478,609,o),
(478,609,c),
(108,623,l),
(91,445,o),
(94,247,o),
(106,40,c),
(250,54,o),
(383,70,o),
(481,91,c),
(481,91,o),
(505,97,o),
(510,76,cs),
(515,56,o),
(498,52,o),
(498,52,c),
(369,26,o),
(242,9,o),
(117,2,c),
(84,1,o),
(65,9,o),
(60,26,c),
(51,221,o),
(44,418,o),
(63,633,c)
);
},
{
closed = 1;
nodes = (
(80,359,l),
(359,370,l),
(359,370,o),
(400,371,o),
(400,346,cs),
(400,326,o),
(365,327,o),
(365,327,c),
(80,316,l)
);
},
{
closed = 1;
nodes = (
(371,811,o),
(385,820,o),
(393,806,cs),
(401,792,o),
(386,785,o),
(386,785,c),
(330,750,o),
(267,718,o),
(197,689,c),
(197,689,o),
(180,682,o),
(173,696,cs),
(167,709,o),
(183,720,o),
(183,720,c),
(248,749,o),
(311,780,o),
(371,811,c)
);
}
);
};
layerId = "6B947F8E-B64D-4F43-8779-746217178CEC";
shapes = (
{
alignment = -1;
ref = E;
},
{
alignment = -1;
pos = (121,183);
ref = acute;
}
);
width = 561;
}
);
unicode = 201;
},
{
glyphname = Ebreve;
kernLeft = H1;
kernRight = E;
lastChange = "2024-07-18 12:46:04 +0000";
layers = (
{
anchors = (
{
name = bottom;
pos = (627,82);
}
);
background = {
anchors = (
{
name = bottom;
pos = (627,82);
},
{
name = top;
pos = (432,643);
}
);
shapes = (
{
closed = 1;
nodes = (
(71,613,o),
(101,644,o),
(180,650,c),
(578,657,l),
(578,657,o),
(759,660,o),
(764,570,cs),
(767,498,o),
(653,493,o),
(653,493,c),
(335,503,l),
(326,332,o),
(327,321,o),
(330,167,c),
(480,183,o),
(443,178,o),
(590,198,c),
(590,198,o),
(738,202,o),
(765,134,cs),
(798,56,o),
(698,40,o),
(698,40,c),
(515,13,o),
(422,-3,o),
(227,2,c),
(57,13,o),
(62,90,o),
(57,113,c),
(44,303,o),
(36,385,o),
(65,595,c)
);
},
{
closed = 1;
nodes = (
(96,415,l),
(515,426,l),
(515,426,o),
(653,410,o),
(653,339,cs),
(653,263,o),
(542,262,o),
(542,262,c),
(113,251,l)
);
},
{
closed = 1;
nodes = (
(228,857,o),
(262,882,o),
(322,875,cs),
(409,866,o),
(415,818,o),
(415,818,c),
(417,813,o),
(417,808,o),
(415,802,c),
(415,796,o),
(421,793,o),
(436,797,cs),
(448,800,o),
(445,807,o),
(445,811,cs),
(445,816,o),
(447,825,o),
(451,834,c),
(451,834,o),
(472,870,o),
(549,870,cs),
(640,869,o),
(675,822,o),
(675,822,c),
(687,800,o),
(682,768,o),
(673,752,c),
(634,703,o),
(574,670,o),
(471,667,c),
(408,661,o),
(297,675,o),
(241,717,c),
(180,756,o),
(172,824,o),
(228,857,c)
);
}
);
};
layerId = "1EECF98D-35CB-4836-8875-A967ACEC66D2";
shapes = (
{
alignment = -1;
ref = E;
},
{
alignment = -1;
pos = (145,183);
ref = breve;
}
);
width = 817;
},
{
anchors = (
{
name = bottom;
pos = (626,82);
}
);
background = {
anchors = (
{
name = bottom;
pos = (626,82);
},
{
name = top;
pos = (431,643);
}
);
shapes = (
{
closed = 1;
nodes = (
(100,651,o),
(125,659,o),
(170,657,c),
(715,650,l),
(715,650,o),
(755,648,o),
(755,627,c),
(754,606,o),
(716,609,o),
(716,609,c),
(161,623,l),
(136,445,o),
(140,247,o),
(158,40,c),
(374,54,o),
(574,70,o),
(721,91,c),
(721,91,o),
(757,97,o),
(764,76,cs),
(772,56,o),
(746,52,o),
(746,52,c),
(553,26,o),
(362,9,o),
(175,2,c),
(125,1,o),
(97,9,o),
(89,26,c),
(76,221,o),
(65,418,o),
(94,633,c)
);
},
{
closed = 1;
nodes = (
(119,359,l),
(538,370,l),
(538,370,o),
(599,371,o),
(599,346,cs),
(599,326,o),
(547,327,o),
(547,327,c),
(119,316,l)
);
},
{
closed = 1;
nodes = (
(258,852,o),
(281,862,o),
(299,853,cs),
(314,845,o),
(297,834,o),
(297,834,c),
(263,801,o),
(269,775,o),
(300,751,cs),
(335,725,o),
(410,715,o),
(479,719,c),
(533,721,o),
(600,742,o),
(627,777,cs),
(635,788,o),
(638,800,o),
(636,816,c),
(636,816,o),
(633,827,o),
(659,829,cs),
(684,831,o),
(693,814,o),
(693,814,c),
(698,801,o),
(696,787,o),
(687,771,c),
(650,722,o),
(588,689,o),
(485,687,c),
(423,681,o),
(311,695,o),
(257,736,c),
(212,766,o),
(203,818,o),
(258,852,c)
);
}
);
};
layerId = "1C3422F9-BFDE-4FE8-A46C-291A8D4071B9";
shapes = (
{
alignment = -1;
ref = E;
},
{
alignment = -1;
pos = (144,183);
ref = breve;
}
);
width = 841;
},
{
anchors = (
{
name = bottom;
pos = (418,82);
}
);
background = {
anchors = (
{
name = bottom;
pos = (418,82);
},
{
name = top;
pos = (288,643);
}
);
shapes = (
{
closed = 1;
nodes = (
(47,613,o),
(67,644,o),
(120,650,c),
(385,657,l),
(385,657,o),
(506,660,o),
(509,570,cs),
(511,498,o),
(435,493,o),
(435,493,c),
(223,503,l),
(217,332,o),
(218,321,o),
(220,167,c),
(320,183,o),
(295,178,o),
(393,198,c),
(393,198,o),
(492,202,o),
(510,134,cs),
(532,56,o),
(465,40,o),
(465,40,c),
(343,13,o),
(281,-3,o),
(151,2,c),
(38,13,o),
(41,90,o),
(38,113,c),
(29,303,o),
(24,385,o),
(43,595,c)
);
},
{
closed = 1;
nodes = (
(64,415,l),
(343,426,l),
(343,426,o),
(435,410,o),
(435,339,cs),
(435,263,o),
(361,262,o),
(361,262,c),
(75,251,l)
);
},
{
closed = 1;
nodes = (
(152,857,o),
(175,882,o),
(215,875,cs),
(273,866,o),
(277,818,o),
(277,818,c),
(278,813,o),
(278,808,o),
(277,802,c),
(277,796,o),
(281,793,o),
(291,797,cs),
(299,800,o),
(297,807,o),
(297,811,cs),
(297,816,o),
(298,825,o),
(301,834,c),
(301,834,o),
(315,870,o),
(366,870,cs),
(427,869,o),
(450,822,o),
(450,822,c),
(458,800,o),
(455,768,o),
(449,752,c),
(423,703,o),
(383,670,o),
(314,667,c),
(272,661,o),
(198,675,o),
(161,717,c),
(120,756,o),
(115,824,o),
(152,857,c)
);
}
);
};
layerId = "EE7B1B97-935D-491C-911D-EA8B82785AFC";
shapes = (
{
alignment = -1;
ref = E;
},
{
alignment = -1;
pos = (97,183);
ref = breve;
}
);
width = 545;
},
{
anchors = (
{
name = bottom;
pos = (418,82);
}
);
background = {
anchors = (
{
name = bottom;
pos = (418,82);
},
{
name = top;
pos = (288,643);
}
);
shapes = (
{
closed = 1;
nodes = (
(67,651,o),
(84,659,o),
(114,657,c),
(477,650,l),
(477,650,o),
(504,648,o),
(504,627,c),
(503,606,o),
(478,609,o),
(478,609,c),
(108,623,l),
(91,445,o),
(94,247,o),
(106,40,c),
(250,54,o),
(383,70,o),
(481,91,c),
(481,91,o),
(505,97,o),
(510,76,cs),
(515,56,o),
(498,52,o),
(498,52,c),
(369,26,o),
(242,9,o),
(117,2,c),
(84,1,o),
(65,9,o),
(60,26,c),
(51,221,o),
(44,418,o),
(63,633,c)
);
},
{
closed = 1;
nodes = (
(80,359,l),
(359,370,l),
(359,370,o),
(400,371,o),
(400,346,cs),
(400,326,o),
(365,327,o),
(365,327,c),
(80,316,l)
);
},
{
closed = 1;
nodes = (
(173,852,o),
(188,862,o),
(200,853,cs),
(210,845,o),
(199,834,o),
(199,834,c),
(176,801,o),
(180,775,o),
(201,751,cs),
(224,725,o),
(274,715,o),
(320,719,c),
(356,721,o),
(401,742,o),
(419,777,cs),
(424,788,o),
(426,800,o),
(425,816,c),
(425,816,o),
(423,827,o),
(440,829,cs),
(457,831,o),
(463,814,o),
(463,814,c),
(466,801,o),
(465,787,o),
(459,771,c),
(434,722,o),
(393,689,o),
(324,687,c),
(283,681,o),
(208,695,o),
(172,736,c),
(142,766,o),
(136,818,o),
(173,852,c)
);
}
);
};
layerId = "6B947F8E-B64D-4F43-8779-746217178CEC";
shapes = (
{
alignment = -1;
ref = E;
},
{
alignment = -1;
pos = (97,183);
ref = breve;
}
);
width = 561;
}
);
unicode = 276;
},
{
glyphname = Ecaron;
kernLeft = H1;
kernRight = E;
lastChange = "2024-07-18 12:46:04 +0000";
layers = (
{
anchors = (
{
name = bottom;
pos = (627,82);
}
);
background = {
anchors = (
{
name = bottom;
pos = (627,82);
},
{
name = top;
pos = (432,643);
}
);
shapes = (
{
closed = 1;
nodes = (
(71,613,o),
(101,644,o),
(180,650,c),
(578,657,l),
(578,657,o),
(759,660,o),
(764,570,cs),
(767,498,o),
(653,493,o),
(653,493,c),
(335,503,l),
(326,332,o),
(327,321,o),
(330,167,c),
(480,183,o),
(443,178,o),
(590,198,c),
(590,198,o),
(738,202,o),
(765,134,cs),
(798,56,o),
(698,40,o),
(698,40,c),
(515,13,o),
(422,-3,o),
(227,2,c),
(57,13,o),
(62,90,o),
(57,113,c),
(44,303,o),
(36,385,o),
(65,595,c)
);
},
{
closed = 1;
nodes = (
(96,415,l),
(515,426,l),
(515,426,o),
(653,410,o),
(653,339,cs),
(653,263,o),
(542,262,o),
(542,262,c),
(113,251,l)
);
},
{
closed = 1;
nodes = (
(649,757,o),
(684,795,o),
(612,829,cs),
(562,853,o),
(508,836,o),
(508,836,c),
(486,824,o),
(454,808,o),
(432,794,c),
(369,827,l),
(369,827,o),
(292,852,o),
(238,821,cs),
(162,777,o),
(247,730,o),
(247,730,c),
(367,679,l),
(415,653,o),
(496,658,o),
(523,673,c),
(589,705,o),
(612,721,o),
(649,757,c)
);
}
);
};
layerId = "1EECF98D-35CB-4836-8875-A967ACEC66D2";
shapes = (
{
alignment = -1;
ref = E;
},
{
alignment = -1;
pos = (161,183);
ref = caron;
}
);
width = 817;
},
{
anchors = (
{
name = bottom;
pos = (626,82);
}
);
background = {
anchors = (
{
name = bottom;
pos = (626,82);
},
{
name = top;
pos = (431,643);
}
);
shapes = (
{
closed = 1;
nodes = (
(100,651,o),
(125,659,o),
(170,657,c),
(715,650,l),
(715,650,o),
(755,648,o),
(755,627,c),
(754,606,o),
(716,609,o),
(716,609,c),
(161,623,l),
(136,445,o),
(140,247,o),
(158,40,c),
(374,54,o),
(574,70,o),
(721,91,c),
(721,91,o),
(757,97,o),
(764,76,cs),
(772,56,o),
(746,52,o),
(746,52,c),
(553,26,o),
(362,9,o),
(175,2,c),
(125,1,o),
(97,9,o),
(89,26,c),
(76,221,o),
(65,418,o),
(94,633,c)
);
},
{
closed = 1;
nodes = (
(119,359,l),
(538,370,l),
(538,370,o),
(599,371,o),
(599,346,cs),
(599,326,o),
(547,327,o),
(547,327,c),
(119,316,l)
);
},
{
closed = 1;
nodes = (
(639,803,o),
(653,817,o),
(635,825,cs),
(617,832,o),
(600,822,o),
(600,822,c),
(522,766,o),
(474,733,o),
(432,722,c),
(279,798,l),
(279,798,o),
(252,808,o),
(240,796,cs),
(228,785,o),
(243,774,o),
(243,774,c),
(399,700,l),
(431,687,o),
(459,689,o),
(485,703,cs),
(546,736,o),
(602,769,o),
(639,803,c)
);
}
);
};
layerId = "1C3422F9-BFDE-4FE8-A46C-291A8D4071B9";
shapes = (
{
alignment = -1;
ref = E;
},
{
alignment = -1;
pos = (160,183);
ref = caron;
}
);
width = 841;
},
{
anchors = (
{
name = bottom;
pos = (418,82);
}
);
background = {
anchors = (
{
name = bottom;
pos = (418,82);
},
{
name = top;
pos = (288,643);
}
);
shapes = (
{
closed = 1;
nodes = (
(47,613,o),
(67,644,o),
(120,650,c),
(385,657,l),
(385,657,o),
(506,660,o),
(509,570,cs),
(511,498,o),
(435,493,o),
(435,493,c),
(223,503,l),
(217,332,o),
(218,321,o),
(220,167,c),
(320,183,o),
(295,178,o),
(393,198,c),
(393,198,o),
(492,202,o),
(510,134,cs),
(532,56,o),
(465,40,o),
(465,40,c),
(343,13,o),
(281,-3,o),
(151,2,c),
(38,13,o),
(41,90,o),
(38,113,c),
(29,303,o),
(24,385,o),
(43,595,c)
);
},
{
closed = 1;
nodes = (
(64,415,l),
(343,426,l),
(343,426,o),
(435,410,o),
(435,339,cs),
(435,263,o),
(361,262,o),
(361,262,c),
(75,251,l)
);
},
{
closed = 1;
nodes = (
(433,757,o),
(456,795,o),
(408,829,cs),
(375,853,o),
(339,836,o),
(339,836,c),
(324,824,o),
(303,808,o),
(288,794,c),
(246,827,l),
(246,827,o),
(195,852,o),
(159,821,cs),
(108,777,o),
(165,730,o),
(165,730,c),
(245,679,l),
(277,653,o),
(331,658,o),
(349,673,c),
(393,705,o),
(408,721,o),
(433,757,c)
);
}
);
};
layerId = "EE7B1B97-935D-491C-911D-EA8B82785AFC";
shapes = (
{
alignment = -1;
ref = E;
},
{
alignment = -1;
pos = (107,183);
ref = caron;
}
);
width = 545;
},
{
anchors = (
{
name = bottom;
pos = (418,82);
}
);
background = {
anchors = (
{
name = bottom;
pos = (418,82);
},
{
name = top;
pos = (288,643);
}
);
shapes = (
{
closed = 1;
nodes = (
(67,651,o),
(84,659,o),
(114,657,c),
(477,650,l),
(477,650,o),
(504,648,o),
(504,627,c),
(503,606,o),
(478,609,o),
(478,609,c),
(108,623,l),
(91,445,o),
(94,247,o),
(106,40,c),
(250,54,o),
(383,70,o),
(481,91,c),
(481,91,o),
(505,97,o),
(510,76,cs),
(515,56,o),
(498,52,o),
(498,52,c),
(369,26,o),
(242,9,o),
(117,2,c),
(84,1,o),
(65,9,o),
(60,26,c),
(51,221,o),
(44,418,o),
(63,633,c)
);
},
{
closed = 1;
nodes = (
(80,359,l),
(359,370,l),
(359,370,o),
(400,371,o),
(400,346,cs),
(400,326,o),
(365,327,o),
(365,327,c),
(80,316,l)
);
},
{
closed = 1;
nodes = (
(427,803,o),
(436,817,o),
(424,825,cs),
(412,832,o),
(401,822,o),
(401,822,c),
(349,766,o),
(317,733,o),
(289,722,c),
(187,798,l),
(187,798,o),
(169,808,o),
(161,796,cs),
(153,785,o),
(163,774,o),
(163,774,c),
(267,700,l),
(288,687,o),
(307,689,o),
(324,703,cs),
(365,736,o),
(402,769,o),
(427,803,c)
);
}
);
};
layerId = "6B947F8E-B64D-4F43-8779-746217178CEC";
shapes = (
{
alignment = -1;
ref = E;
},
{
alignment = -1;
pos = (107,183);
ref = caron;
}
);
width = 561;
}
);
unicode = 282;
},
{
glyphname = Ecircumflex;
kernLeft = H1;
kernRight = E;
lastChange = "2024-07-18 12:46:04 +0000";
layers = (
{
anchors = (
{
name = bottom;
pos = (627,82);
}
);
background = {
anchors = (
{
name = bottom;
pos = (627,82);
},
{
name = top;
pos = (432,643);
}
);
shapes = (
{
closed = 1;
nodes = (
(71,613,o),
(101,644,o),
(180,650,c),
(578,657,l),
(578,657,o),
(759,660,o),
(764,570,cs),
(767,498,o),
(653,493,o),
(653,493,c),
(335,503,l),
(326,332,o),
(327,321,o),
(330,167,c),
(480,183,o),
(443,178,o),
(590,198,c),
(590,198,o),
(738,202,o),
(765,134,cs),
(798,56,o),
(698,40,o),
(698,40,c),
(515,13,o),
(422,-3,o),
(227,2,c),
(57,13,o),
(62,90,o),
(57,113,c),
(44,303,o),
(36,385,o),
(65,595,c)
);
},
{
closed = 1;
nodes = (
(96,415,l),
(515,426,l),
(515,426,o),
(653,410,o),
(653,339,cs),
(653,263,o),
(542,262,o),
(542,262,c),
(113,251,l)
);
},
{
closed = 1;
nodes = (
(214,753,o),
(181,715,o),
(252,681,cs),
(303,657,o),
(357,674,o),
(357,674,c),
(379,686,o),
(409,703,o),
(433,716,c),
(495,683,l),
(495,683,o),
(573,658,o),
(625,689,cs),
(702,733,o),
(618,780,o),
(618,780,c),
(496,832,l),
(448,857,o),
(369,852,o),
(342,837,c),
(276,805,o),
(253,789,o),
(214,753,c)
);
}
);
};
layerId = "1EECF98D-35CB-4836-8875-A967ACEC66D2";
shapes = (
{
alignment = -1;
ref = E;
},
{
alignment = -1;
pos = (161,183);
ref = circumflex;
}
);
width = 817;
},
{
anchors = (
{
name = bottom;
pos = (626,82);
}
);
background = {
anchors = (
{
name = bottom;
pos = (626,82);
},
{
name = top;
pos = (431,643);
}
);
shapes = (
{
closed = 1;
nodes = (
(100,651,o),
(125,659,o),
(170,657,c),
(715,650,l),
(715,650,o),
(755,648,o),
(755,627,c),
(754,606,o),
(716,609,o),
(716,609,c),
(161,623,l),
(136,445,o),
(140,247,o),
(158,40,c),
(374,54,o),
(574,70,o),
(721,91,c),
(721,91,o),
(757,97,o),
(764,76,cs),
(772,56,o),
(746,52,o),
(746,52,c),
(553,26,o),
(362,9,o),
(175,2,c),
(125,1,o),
(97,9,o),
(89,26,c),
(76,221,o),
(65,418,o),
(94,633,c)
);
},
{
closed = 1;
nodes = (
(119,359,l),
(538,370,l),
(538,370,o),
(599,371,o),
(599,346,cs),
(599,326,o),
(547,327,o),
(547,327,c),
(119,316,l)
);
},
{
closed = 1;
nodes = (
(240,714,o),
(227,700,o),
(245,693,cs),
(263,685,o),
(279,695,o),
(279,695,c),
(357,751,o),
(405,784,o),
(447,795,c),
(600,720,l),
(600,720,o),
(627,709,o),
(639,721,cs),
(651,733,o),
(636,743,o),
(636,743,c),
(480,817,l),
(449,831,o),
(420,828,o),
(395,814,cs),
(333,782,o),
(278,749,o),
(240,714,c)
);
}
);
};
layerId = "1C3422F9-BFDE-4FE8-A46C-291A8D4071B9";
shapes = (
{
alignment = -1;
ref = E;
},
{
alignment = -1;
pos = (160,183);
ref = circumflex;
}
);
width = 841;
},
{
anchors = (
{
name = bottom;
pos = (418,82);
}
);
background = {
anchors = (
{
name = bottom;
pos = (418,82);
},
{
name = top;
pos = (288,643);
}
);
shapes = (
{
closed = 1;
nodes = (
(47,613,o),
(67,644,o),
(120,650,c),
(385,657,l),
(385,657,o),
(506,660,o),
(509,570,cs),
(511,498,o),
(435,493,o),
(435,493,c),
(223,503,l),
(217,332,o),
(218,321,o),
(220,167,c),
(320,183,o),
(295,178,o),
(393,198,c),
(393,198,o),
(492,202,o),
(510,134,cs),
(532,56,o),
(465,40,o),
(465,40,c),
(343,13,o),
(281,-3,o),
(151,2,c),
(38,13,o),
(41,90,o),
(38,113,c),
(29,303,o),
(24,385,o),
(43,595,c)
);
},
{
closed = 1;
nodes = (
(64,415,l),
(343,426,l),
(343,426,o),
(435,410,o),
(435,339,cs),
(435,263,o),
(361,262,o),
(361,262,c),
(75,251,l)
);
},
{
closed = 1;
nodes = (
(143,753,o),
(121,715,o),
(168,681,cs),
(202,657,o),
(238,674,o),
(238,674,c),
(253,686,o),
(273,703,o),
(289,716,c),
(330,683,l),
(330,683,o),
(382,658,o),
(417,689,cs),
(468,733,o),
(412,780,o),
(412,780,c),
(331,832,l),
(299,857,o),
(246,852,o),
(228,837,c),
(184,805,o),
(169,789,o),
(143,753,c)
);
}
);
};
layerId = "EE7B1B97-935D-491C-911D-EA8B82785AFC";
shapes = (
{
alignment = -1;
ref = E;
},
{
alignment = -1;
pos = (107,183);
ref = circumflex;
}
);
width = 545;
},
{
anchors = (
{
name = bottom;
pos = (418,82);
}
);
background = {
anchors = (
{
name = bottom;
pos = (418,82);
},
{
name = top;
pos = (288,643);
}
);
shapes = (
{
closed = 1;
nodes = (
(67,651,o),
(84,659,o),
(114,657,c),
(477,650,l),
(477,650,o),
(504,648,o),
(504,627,c),
(503,606,o),
(478,609,o),
(478,609,c),
(108,623,l),
(91,445,o),
(94,247,o),
(106,40,c),
(250,54,o),
(383,70,o),
(481,91,c),
(481,91,o),
(505,97,o),
(510,76,cs),
(515,56,o),
(498,52,o),
(498,52,c),
(369,26,o),
(242,9,o),
(117,2,c),
(84,1,o),
(65,9,o),
(60,26,c),
(51,221,o),
(44,418,o),
(63,633,c)
);
},
{
closed = 1;
nodes = (
(80,359,l),
(359,370,l),
(359,370,o),
(400,371,o),
(400,346,cs),
(400,326,o),
(365,327,o),
(365,327,c),
(80,316,l)
);
},
{
closed = 1;
nodes = (
(161,714,o),
(152,700,o),
(164,693,cs),
(176,685,o),
(187,695,o),
(187,695,c),
(239,751,o),
(271,784,o),
(299,795,c),
(401,720,l),
(401,720,o),
(419,709,o),
(427,721,cs),
(435,733,o),
(425,743,o),
(425,743,c),
(321,817,l),
(300,831,o),
(281,828,o),
(264,814,cs),
(223,782,o),
(186,749,o),
(161,714,c)
);
}
);
};
layerId = "6B947F8E-B64D-4F43-8779-746217178CEC";
shapes = (
{
alignment = -1;
ref = E;
},
{
alignment = -1;
pos = (107,183);
ref = circumflex;
}
);
width = 561;
}
);
unicode = 202;
},
{
glyphname = Edieresis;
kernLeft = H1;
kernRight = E;
lastChange = "2024-07-18 12:46:04 +0000";
layers = (
{
anchors = (
{
name = bottom;
pos = (627,82);
}
);
background = {
anchors = (
{
name = bottom;
pos = (627,82);
},
{
name = top;
pos = (432,643);
}
);
shapes = (
{
closed = 1;
nodes = (
(71,613,o),
(101,644,o),
(180,650,c),
(578,657,l),
(578,657,o),
(759,660,o),
(764,570,cs),
(767,498,o),
(653,493,o),
(653,493,c),
(335,503,l),
(326,332,o),
(327,321,o),
(330,167,c),
(480,183,o),
(443,178,o),
(590,198,c),
(590,198,o),
(738,202,o),
(765,134,cs),
(798,56,o),
(698,40,o),
(698,40,c),
(515,13,o),
(422,-3,o),
(227,2,c),
(57,13,o),
(62,90,o),
(57,113,c),
(44,303,o),
(36,385,o),
(65,595,c)
);
},
{
closed = 1;
nodes = (
(96,415,l),
(515,426,l),
(515,426,o),
(653,410,o),
(653,339,cs),
(653,263,o),
(542,262,o),
(542,262,c),
(113,251,l)
);
},
{
closed = 1;
nodes = (
(431,683,o),
(363,661,o),
(278,661,cs),
(194,661,o),
(126,699,o),
(126,747,cs),
(126,795,o),
(194,834,o),
(278,834,cs),
(363,834,o),
(431,795,o),
(431,747,cs)
);
},
{
closed = 1;
nodes = (
(747,683,o),
(680,661,o),
(596,661,cs),
(512,661,o),
(443,699,o),
(443,747,cs),
(443,795,o),
(512,834,o),
(596,834,cs),
(680,834,o),
(747,795,o),
(747,747,cs)
);
}
);
};
layerId = "1EECF98D-35CB-4836-8875-A967ACEC66D2";
shapes = (
{
alignment = -1;
ref = E;
},
{
alignment = -1;
pos = (81,183);
ref = dieresis;
}
);
width = 817;
},
{
anchors = (
{
name = bottom;
pos = (626,82);
}
);
background = {
anchors = (
{
name = bottom;
pos = (626,82);
},
{
name = top;
pos = (431,643);
}
);
shapes = (
{
closed = 1;
nodes = (
(100,651,o),
(125,659,o),
(170,657,c),
(715,650,l),
(715,650,o),
(755,648,o),
(755,627,c),
(754,606,o),
(716,609,o),
(716,609,c),
(161,623,l),
(136,445,o),
(140,247,o),
(158,40,c),
(374,54,o),
(574,70,o),
(721,91,c),
(721,91,o),
(757,97,o),
(764,76,cs),
(772,56,o),
(746,52,o),
(746,52,c),
(553,26,o),
(362,9,o),
(175,2,c),
(125,1,o),
(97,9,o),
(89,26,c),
(76,221,o),
(65,418,o),
(94,633,c)
);
},
{
closed = 1;
nodes = (
(119,359,l),
(538,370,l),
(538,370,o),
(599,371,o),
(599,346,cs),
(599,326,o),
(547,327,o),
(547,327,c),
(119,316,l)
);
},
{
closed = 1;
nodes = (
(310,728,o),
(287,715,o),
(260,715,cs),
(233,715,o),
(212,728,o),
(212,744,cs),
(212,759,o),
(233,772,o),
(260,772,cs),
(287,772,o),
(310,759,o),
(310,744,cs)
);
},
{
closed = 1;
nodes = (
(626,728,o),
(604,715,o),
(578,715,cs),
(551,715,o),
(529,728,o),
(529,744,cs),
(529,759,o),
(551,772,o),
(578,772,cs),
(604,772,o),
(626,759,o),
(626,744,cs)
);
}
);
};
layerId = "1C3422F9-BFDE-4FE8-A46C-291A8D4071B9";
shapes = (
{
alignment = -1;
ref = E;
},
{
alignment = -1;
pos = (137,183);
ref = dieresis;
}
);
width = 841;
},
{
anchors = (
{
name = bottom;
pos = (418,82);
}
);
background = {
anchors = (
{
name = bottom;
pos = (418,82);
},
{
name = top;
pos = (288,643);
}
);
shapes = (
{
closed = 1;
nodes = (
(47,613,o),
(67,644,o),
(120,650,c),
(385,657,l),
(385,657,o),
(506,660,o),
(509,570,cs),
(511,498,o),
(435,493,o),
(435,493,c),
(223,503,l),
(217,332,o),
(218,321,o),
(220,167,c),
(320,183,o),
(295,178,o),
(393,198,c),
(393,198,o),
(492,202,o),
(510,134,cs),
(532,56,o),
(465,40,o),
(465,40,c),
(343,13,o),
(281,-3,o),
(151,2,c),
(38,13,o),
(41,90,o),
(38,113,c),
(29,303,o),
(24,385,o),
(43,595,c)
);
},
{
closed = 1;
nodes = (
(64,415,l),
(343,426,l),
(343,426,o),
(435,410,o),
(435,339,cs),
(435,263,o),
(361,262,o),
(361,262,c),
(75,251,l)
);
},
{
closed = 1;
nodes = (
(287,683,o),
(242,661,o),
(185,661,cs),
(129,661,o),
(84,699,o),
(84,747,cs),
(84,795,o),
(129,834,o),
(185,834,cs),
(242,834,o),
(287,795,o),
(287,747,cs)
);
},
{
closed = 1;
nodes = (
(498,683,o),
(453,661,o),
(397,661,cs),
(341,661,o),
(295,699,o),
(295,747,cs),
(295,795,o),
(341,834,o),
(397,834,cs),
(453,834,o),
(498,795,o),
(498,747,cs)
);
}
);
};
layerId = "EE7B1B97-935D-491C-911D-EA8B82785AFC";
shapes = (
{
alignment = -1;
ref = E;
},
{
alignment = -1;
pos = (54,183);
ref = dieresis;
}
);
width = 545;
},
{
anchors = (
{
name = bottom;
pos = (418,82);
}
);
background = {
anchors = (
{
name = bottom;
pos = (418,82);
},
{
name = top;
pos = (288,643);
}
);
shapes = (
{
closed = 1;
nodes = (
(67,651,o),
(84,659,o),
(114,657,c),
(477,650,l),
(477,650,o),
(504,648,o),
(504,627,c),
(503,606,o),
(478,609,o),
(478,609,c),
(108,623,l),
(91,445,o),
(94,247,o),
(106,40,c),
(250,54,o),
(383,70,o),
(481,91,c),
(481,91,o),
(505,97,o),
(510,76,cs),
(515,56,o),
(498,52,o),
(498,52,c),
(369,26,o),
(242,9,o),
(117,2,c),
(84,1,o),
(65,9,o),
(60,26,c),
(51,221,o),
(44,418,o),
(63,633,c)
);
},
{
closed = 1;
nodes = (
(80,359,l),
(359,370,l),
(359,370,o),
(400,371,o),
(400,346,cs),
(400,326,o),
(365,327,o),
(365,327,c),
(80,316,l)
);
},
{
closed = 1;
nodes = (
(207,728,o),
(192,715,o),
(174,715,cs),
(156,715,o),
(142,728,o),
(142,744,cs),
(142,759,o),
(156,772,o),
(174,772,cs),
(192,772,o),
(207,759,o),
(207,744,cs)
);
},
{
closed = 1;
nodes = (
(418,728,o),
(403,715,o),
(386,715,cs),
(368,715,o),
(353,728,o),
(353,744,cs),
(353,759,o),
(368,772,o),
(386,772,cs),
(403,772,o),
(418,759,o),
(418,744,cs)
);
}
);
};
layerId = "6B947F8E-B64D-4F43-8779-746217178CEC";
shapes = (
{
alignment = -1;
ref = E;
},
{
alignment = -1;
pos = (92,183);
ref = dieresis;
}
);
width = 561;
}
);
unicode = 203;
},
{
glyphname = Edotaccent;
kernLeft = H1;
kernRight = E;
lastChange = "2024-07-18 12:46:04 +0000";
layers = (
{
anchors = (
{
name = bottom;
pos = (627,82);
}
);
background = {
anchors = (
{
name = bottom;
pos = (627,82);
},
{
name = top;
pos = (432,643);
}
);
shapes = (
{
closed = 1;
nodes = (
(71,613,o),
(101,644,o),
(180,650,c),
(578,657,l),
(578,657,o),
(759,660,o),
(764,570,cs),
(767,498,o),
(653,493,o),
(653,493,c),
(335,503,l),
(326,332,o),
(327,321,o),
(330,167,c),
(480,183,o),
(443,178,o),
(590,198,c),
(590,198,o),
(738,202,o),
(765,134,cs),
(798,56,o),
(698,40,o),
(698,40,c),
(515,13,o),
(422,-3,o),
(227,2,c),
(57,13,o),
(62,90,o),
(57,113,c),
(44,303,o),
(36,385,o),
(65,595,c)
);
},
{
closed = 1;
nodes = (
(96,415,l),
(515,426,l),
(515,426,o),
(653,410,o),
(653,339,cs),
(653,263,o),
(542,262,o),
(542,262,c),
(113,251,l)
);
},
{
closed = 1;
nodes = (
(585,687,o),
(517,664,o),
(432,664,cs),
(348,664,o),
(280,703,o),
(280,751,cs),
(280,799,o),
(348,838,o),
(432,838,cs),
(517,838,o),
(585,799,o),
(585,751,cs)
);
}
);
};
layerId = "1EECF98D-35CB-4836-8875-A967ACEC66D2";
shapes = (
{
alignment = -1;
ref = E;
},
{
alignment = -1;
pos = (205,183);
ref = dotaccent;
}
);
width = 817;
},
{
anchors = (
{
name = bottom;
pos = (626,82);
}
);
background = {
anchors = (
{
name = bottom;
pos = (626,82);
},
{
name = top;
pos = (431,643);
}
);
shapes = (
{
closed = 1;
nodes = (
(100,651,o),
(125,659,o),
(170,657,c),
(715,650,l),
(715,650,o),
(755,648,o),
(755,627,c),
(754,606,o),
(716,609,o),
(716,609,c),
(161,623,l),
(136,445,o),
(140,247,o),
(158,40,c),
(374,54,o),
(574,70,o),
(721,91,c),
(721,91,o),
(757,97,o),
(764,76,cs),
(772,56,o),
(746,52,o),
(746,52,c),
(553,26,o),
(362,9,o),
(175,2,c),
(125,1,o),
(97,9,o),
(89,26,c),
(76,221,o),
(65,418,o),
(94,633,c)
);
},
{
closed = 1;
nodes = (
(119,359,l),
(538,370,l),
(538,370,o),
(599,371,o),
(599,346,cs),
(599,326,o),
(547,327,o),
(547,327,c),
(119,316,l)
);
},
{
closed = 1;
nodes = (
(482,732,o),
(459,719,o),
(432,719,cs),
(405,719,o),
(384,732,o),
(384,747,cs),
(384,763,o),
(405,776,o),
(432,776,cs),
(459,776,o),
(482,763,o),
(482,747,cs)
);
}
);
};
layerId = "1C3422F9-BFDE-4FE8-A46C-291A8D4071B9";
shapes = (
{
alignment = -1;
ref = E;
},
{
alignment = -1;
pos = (309,183);
ref = dotaccent;
}
);
width = 841;
},
{
anchors = (
{
name = bottom;
pos = (418,82);
}
);
background = {
anchors = (
{
name = bottom;
pos = (418,82);
},
{
name = top;
pos = (288,643);
}
);
shapes = (
{
closed = 1;
nodes = (
(47,613,o),
(67,644,o),
(120,650,c),
(385,657,l),
(385,657,o),
(506,660,o),
(509,570,cs),
(511,498,o),
(435,493,o),
(435,493,c),
(223,503,l),
(217,332,o),
(218,321,o),
(220,167,c),
(320,183,o),
(295,178,o),
(393,198,c),
(393,198,o),
(492,202,o),
(510,134,cs),
(532,56,o),
(465,40,o),
(465,40,c),
(343,13,o),
(281,-3,o),
(151,2,c),
(38,13,o),
(41,90,o),
(38,113,c),
(29,303,o),
(24,385,o),
(43,595,c)
);
},
{
closed = 1;
nodes = (
(64,415,l),
(343,426,l),
(343,426,o),
(435,410,o),
(435,339,cs),
(435,263,o),
(361,262,o),
(361,262,c),
(75,251,l)
);
},
{
closed = 1;
nodes = (
(390,687,o),
(345,664,o),
(288,664,cs),
(232,664,o),
(187,703,o),
(187,751,cs),
(187,799,o),
(232,838,o),
(288,838,cs),
(345,838,o),
(390,799,o),
(390,751,cs)
);
}
);
};
layerId = "EE7B1B97-935D-491C-911D-EA8B82785AFC";
shapes = (
{
alignment = -1;
ref = E;
},
{
alignment = -1;
pos = (137,183);
ref = dotaccent;
}
);
width = 545;
},
{
anchors = (
{
name = bottom;
pos = (418,82);
}
);
background = {
anchors = (
{
name = bottom;
pos = (418,82);
},
{
name = top;
pos = (288,643);
}
);
shapes = (
{
closed = 1;
nodes = (
(67,651,o),
(84,659,o),
(114,657,c),
(477,650,l),
(477,650,o),
(504,648,o),
(504,627,c),
(503,606,o),
(478,609,o),
(478,609,c),
(108,623,l),
(91,445,o),
(94,247,o),
(106,40,c),
(250,54,o),
(383,70,o),
(481,91,c),
(481,91,o),
(505,97,o),
(510,76,cs),
(515,56,o),
(498,52,o),
(498,52,c),
(369,26,o),
(242,9,o),
(117,2,c),
(84,1,o),
(65,9,o),
(60,26,c),
(51,221,o),
(44,418,o),
(63,633,c)
);
},
{
closed = 1;
nodes = (
(80,359,l),
(359,370,l),
(359,370,o),
(400,371,o),
(400,346,cs),
(400,326,o),
(365,327,o),
(365,327,c),
(80,316,l)
);
},
{
closed = 1;
nodes = (
(322,732,o),
(307,719,o),
(289,719,cs),
(271,719,o),
(257,732,o),
(257,747,cs),
(257,763,o),
(271,776,o),
(289,776,cs),
(307,776,o),
(322,763,o),
(322,747,cs)
);
}
);
};
layerId = "6B947F8E-B64D-4F43-8779-746217178CEC";
shapes = (
{
alignment = -1;
ref = E;
},
{
alignment = -1;
pos = (207,183);
ref = dotaccent;
}
);
width = 561;
}
);
unicode = 278;
},
{
glyphname = Egrave;
kernLeft = H1;
kernRight = E;
lastChange = "2024-07-18 12:46:04 +0000";
layers = (
{
anchors = (
{
name = bottom;
pos = (627,82);
}
);
background = {
anchors = (
{
name = bottom;
pos = (627,82);
},
{
name = top;
pos = (432,643);
}
);
shapes = (
{
closed = 1;
nodes = (
(71,613,o),
(101,644,o),
(180,650,c),
(578,657,l),
(578,657,o),
(759,660,o),
(764,570,cs),
(767,498,o),
(653,493,o),
(653,493,c),
(335,503,l),
(326,332,o),
(327,321,o),
(330,167,c),
(480,183,o),
(443,178,o),
(590,198,c),
(590,198,o),
(738,202,o),
(765,134,cs),
(798,56,o),
(698,40,o),
(698,40,c),
(515,13,o),
(422,-3,o),
(227,2,c),
(57,13,o),
(62,90,o),
(57,113,c),
(44,303,o),
(36,385,o),
(65,595,c)
);
},
{
closed = 1;
nodes = (
(96,415,l),
(515,426,l),
(515,426,o),
(653,410,o),
(653,339,cs),
(653,263,o),
(542,262,o),
(542,262,c),
(113,251,l)
);
},
{
closed = 1;
nodes = (
(369,837,o),
(287,848,o),
(254,813,cs),
(216,774,o),
(270,742,o),
(270,742,c),
(335,700,o),
(455,678,o),
(497,674,c),
(497,674,o),
(581,664,o),
(609,700,cs),
(660,761,o),
(555,797,o),
(555,797,c),
(456,826,o),
(408,832,o),
(369,837,c)
);
}
);
};
layerId = "1EECF98D-35CB-4836-8875-A967ACEC66D2";
shapes = (
{
alignment = -1;
ref = E;
},
{
alignment = -1;
pos = (195,183);
ref = grave;
}
);
width = 817;
},
{
anchors = (
{
name = bottom;
pos = (626,82);
}
);
background = {
anchors = (
{
name = bottom;
pos = (626,82);
},
{
name = top;
pos = (431,643);
}
);
shapes = (
{
closed = 1;
nodes = (
(100,651,o),
(125,659,o),
(170,657,c),
(715,650,l),
(715,650,o),
(755,648,o),
(755,627,c),
(754,606,o),
(716,609,o),
(716,609,c),
(161,623,l),
(136,445,o),
(140,247,o),
(158,40,c),
(374,54,o),
(574,70,o),
(721,91,c),
(721,91,o),
(757,97,o),
(764,76,cs),
(772,56,o),
(746,52,o),
(746,52,c),
(553,26,o),
(362,9,o),
(175,2,c),
(125,1,o),
(97,9,o),
(89,26,c),
(76,221,o),
(65,418,o),
(94,633,c)
);
},
{
closed = 1;
nodes = (
(119,359,l),
(538,370,l),
(538,370,o),
(599,371,o),
(599,346,cs),
(599,326,o),
(547,327,o),
(547,327,c),
(119,316,l)
);
},
{
closed = 1;
nodes = (
(308,815,o),
(286,825,o),
(274,811,cs),
(262,797,o),
(286,790,o),
(286,790,c),
(370,755,o),
(464,723,o),
(568,693,c),
(568,693,o),
(595,687,o),
(604,700,cs),
(613,714,o),
(590,724,o),
(590,724,c),
(491,754,o),
(398,784,o),
(308,815,c)
);
}
);
};
layerId = "1C3422F9-BFDE-4FE8-A46C-291A8D4071B9";
shapes = (
{
alignment = -1;
ref = E;
},
{
alignment = -1;
pos = (195,183);
ref = grave;
}
);
width = 841;
},
{
anchors = (
{
name = bottom;
pos = (418,82);
}
);
background = {
anchors = (
{
name = bottom;
pos = (418,82);
},
{
name = top;
pos = (288,643);
}
);
shapes = (
{
closed = 1;
nodes = (
(47,613,o),
(67,644,o),
(120,650,c),
(385,657,l),
(385,657,o),
(506,660,o),
(509,570,cs),
(511,498,o),
(435,493,o),
(435,493,c),
(223,503,l),
(217,332,o),
(218,321,o),
(220,167,c),
(320,183,o),
(295,178,o),
(393,198,c),
(393,198,o),
(492,202,o),
(510,134,cs),
(532,56,o),
(465,40,o),
(465,40,c),
(343,13,o),
(281,-3,o),
(151,2,c),
(38,13,o),
(41,90,o),
(38,113,c),
(29,303,o),
(24,385,o),
(43,595,c)
);
},
{
closed = 1;
nodes = (
(64,415,l),
(343,426,l),
(343,426,o),
(435,410,o),
(435,339,cs),
(435,263,o),
(361,262,o),
(361,262,c),
(75,251,l)
);
},
{
closed = 1;
nodes = (
(246,837,o),
(191,848,o),
(169,813,cs),
(144,774,o),
(180,742,o),
(180,742,c),
(223,700,o),
(303,678,o),
(331,674,c),
(331,674,o),
(387,664,o),
(406,700,cs),
(440,761,o),
(370,797,o),
(370,797,c),
(304,826,o),
(272,832,o),
(246,837,c)
);
}
);
};
layerId = "EE7B1B97-935D-491C-911D-EA8B82785AFC";
shapes = (
{
alignment = -1;
ref = E;
},
{
alignment = -1;
pos = (130,183);
ref = grave;
}
);
width = 545;
},
{
anchors = (
{
name = bottom;
pos = (418,82);
}
);
background = {
anchors = (
{
name = bottom;
pos = (418,82);
},
{
name = top;
pos = (288,643);
}
);
shapes = (
{
closed = 1;
nodes = (
(67,651,o),
(84,659,o),
(114,657,c),
(477,650,l),
(477,650,o),
(504,648,o),
(504,627,c),
(503,606,o),
(478,609,o),
(478,609,c),
(108,623,l),
(91,445,o),
(94,247,o),
(106,40,c),
(250,54,o),
(383,70,o),
(481,91,c),
(481,91,o),
(505,97,o),
(510,76,cs),
(515,56,o),
(498,52,o),
(498,52,c),
(369,26,o),
(242,9,o),
(117,2,c),
(84,1,o),
(65,9,o),
(60,26,c),
(51,221,o),
(44,418,o),
(63,633,c)
);
},
{
closed = 1;
nodes = (
(80,359,l),
(359,370,l),
(359,370,o),
(400,371,o),
(400,346,cs),
(400,326,o),
(365,327,o),
(365,327,c),
(80,316,l)
);
},
{
closed = 1;
nodes = (
(206,815,o),
(191,825,o),
(183,811,cs),
(175,797,o),
(191,790,o),
(191,790,c),
(247,755,o),
(310,723,o),
(379,693,c),
(379,693,o),
(397,687,o),
(403,700,cs),
(409,714,o),
(394,724,o),
(394,724,c),
(328,754,o),
(266,784,o),
(206,815,c)
);
}
);
};
layerId = "6B947F8E-B64D-4F43-8779-746217178CEC";
shapes = (
{
alignment = -1;
ref = E;
},
{
alignment = -1;
pos = (130,183);
ref = grave;
}
);
width = 561;
}
);
unicode = 200;
},
{
glyphname = Emacron;
kernLeft = H1;
kernRight = E;
lastChange = "2024-07-18 12:46:04 +0000";
layers = (
{
anchors = (
{
name = bottom;
pos = (627,82);
}
);
background = {
anchors = (
{
name = bottom;
pos = (627,82);
},
{
name = top;
pos = (432,643);
}
);
shapes = (
{
closed = 1;
nodes = (
(71,613,o),
(101,644,o),
(180,650,c),
(578,657,l),
(578,657,o),
(759,660,o),
(764,570,cs),
(767,498,o),
(653,493,o),
(653,493,c),
(335,503,l),
(326,332,o),
(327,321,o),
(330,167,c),
(480,183,o),
(443,178,o),
(590,198,c),
(590,198,o),
(738,202,o),
(765,134,cs),
(798,56,o),
(698,40,o),
(698,40,c),
(515,13,o),
(422,-3,o),
(227,2,c),
(57,13,o),
(62,90,o),
(57,113,c),
(44,303,o),
(36,385,o),
(65,595,c)
);
},
{
closed = 1;
nodes = (
(96,415,l),
(515,426,l),
(515,426,o),
(653,410,o),
(653,339,cs),
(653,263,o),
(542,262,o),
(542,262,c),
(113,251,l)
);
},
{
closed = 1;
nodes = (
(196,807,o),
(118,791,o),
(150,728,cs),
(178,668,o),
(280,673,o),
(280,673,c),
(453,680,o),
(402,677,o),
(612,668,c),
(612,668,o),
(721,672,o),
(721,744,cs),
(721,799,o),
(606,826,o),
(606,826,c),
(405,848,o),
(313,825,o),
(196,807,c)
);
}
);
};
layerId = "1EECF98D-35CB-4836-8875-A967ACEC66D2";
shapes = (
{
alignment = -1;
ref = E;
},
{
alignment = -1;
pos = (67,183);
ref = macron;
}
);
width = 817;
},
{
anchors = (
{
name = bottom;
pos = (626,82);
}
);
background = {
anchors = (
{
name = bottom;
pos = (626,82);
},
{
name = top;
pos = (431,643);
}
);
shapes = (
{
closed = 1;
nodes = (
(100,651,o),
(125,659,o),
(170,657,c),
(715,650,l),
(715,650,o),
(755,648,o),
(755,627,c),
(754,606,o),
(716,609,o),
(716,609,c),
(161,623,l),
(136,445,o),
(140,247,o),
(158,40,c),
(374,54,o),
(574,70,o),
(721,91,c),
(721,91,o),
(757,97,o),
(764,76,cs),
(772,56,o),
(746,52,o),
(746,52,c),
(553,26,o),
(362,9,o),
(175,2,c),
(125,1,o),
(97,9,o),
(89,26,c),
(76,221,o),
(65,418,o),
(94,633,c)
);
},
{
closed = 1;
nodes = (
(119,359,l),
(538,370,l),
(538,370,o),
(599,371,o),
(599,346,cs),
(599,326,o),
(547,327,o),
(547,327,c),
(119,316,l)
);
},
{
closed = 1;
nodes = (
(165,760,o),
(135,755,o),
(143,739,cs),
(149,724,o),
(183,726,o),
(183,726,c),
(381,737,o),
(465,737,o),
(675,728,c),
(675,728,o),
(708,726,o),
(713,744,cs),
(717,762,o),
(674,768,o),
(674,768,c),
(455,781,o),
(365,780,o),
(165,760,c)
);
}
);
};
layerId = "1C3422F9-BFDE-4FE8-A46C-291A8D4071B9";
shapes = (
{
alignment = -1;
ref = E;
},
{
alignment = -1;
pos = (66,183);
ref = macron;
}
);
width = 841;
},
{
anchors = (
{
name = bottom;
pos = (418,82);
}
);
background = {
anchors = (
{
name = bottom;
pos = (418,82);
},
{
name = top;
pos = (288,643);
}
);
shapes = (
{
closed = 1;
nodes = (
(47,613,o),
(67,644,o),
(120,650,c),
(385,657,l),
(385,657,o),
(506,660,o),
(509,570,cs),
(511,498,o),
(435,493,o),
(435,493,c),
(223,503,l),
(217,332,o),
(218,321,o),
(220,167,c),
(320,183,o),
(295,178,o),
(393,198,c),
(393,198,o),
(492,202,o),
(510,134,cs),
(532,56,o),
(465,40,o),
(465,40,c),
(343,13,o),
(281,-3,o),
(151,2,c),
(38,13,o),
(41,90,o),
(38,113,c),
(29,303,o),
(24,385,o),
(43,595,c)
);
},
{
closed = 1;
nodes = (
(64,415,l),
(343,426,l),
(343,426,o),
(435,410,o),
(435,339,cs),
(435,263,o),
(361,262,o),
(361,262,c),
(75,251,l)
);
},
{
closed = 1;
nodes = (
(131,807,o),
(79,791,o),
(100,728,cs),
(119,668,o),
(187,673,o),
(187,673,c),
(302,680,o),
(268,677,o),
(408,668,c),
(408,668,o),
(481,672,o),
(481,744,cs),
(481,799,o),
(404,826,o),
(404,826,c),
(270,848,o),
(209,825,o),
(131,807,c)
);
}
);
};
layerId = "EE7B1B97-935D-491C-911D-EA8B82785AFC";
shapes = (
{
alignment = -1;
ref = E;
},
{
alignment = -1;
pos = (45,183);
ref = macron;
}
);
width = 545;
},
{
anchors = (
{
name = bottom;
pos = (418,82);
}
);
background = {
anchors = (
{
name = bottom;
pos = (418,82);
},
{
name = top;
pos = (288,643);
}
);
shapes = (
{
closed = 1;
nodes = (
(67,651,o),
(84,659,o),
(114,657,c),
(477,650,l),
(477,650,o),
(504,648,o),
(504,627,c),
(503,606,o),
(478,609,o),
(478,609,c),
(108,623,l),
(91,445,o),
(94,247,o),
(106,40,c),
(250,54,o),
(383,70,o),
(481,91,c),
(481,91,o),
(505,97,o),
(510,76,cs),
(515,56,o),
(498,52,o),
(498,52,c),
(369,26,o),
(242,9,o),
(117,2,c),
(84,1,o),
(65,9,o),
(60,26,c),
(51,221,o),
(44,418,o),
(63,633,c)
);
},
{
closed = 1;
nodes = (
(80,359,l),
(359,370,l),
(359,370,o),
(400,371,o),
(400,346,cs),
(400,326,o),
(365,327,o),
(365,327,c),
(80,316,l)
);
},
{
closed = 1;
nodes = (
(111,760,o),
(91,755,o),
(96,739,cs),
(100,724,o),
(123,726,o),
(123,726,c),
(255,737,o),
(311,737,o),
(451,728,c),
(451,728,o),
(473,726,o),
(476,744,cs),
(479,762,o),
(450,768,o),
(450,768,c),
(304,781,o),
(244,780,o),
(111,760,c)
);
}
);
};
layerId = "6B947F8E-B64D-4F43-8779-746217178CEC";
shapes = (
{
alignment = -1;
ref = E;
},
{
alignment = -1;
pos = (45,183);
ref = macron;
}
);
width = 561;
}
);
unicode = 274;
},
{
glyphname = Eogonek;
kernLeft = H1;
kernRight = E;
lastChange = "2024-07-18 12:46:04 +0000";
layers = (
{
anchors = (
{
name = bottom;
pos = (627,82);
},
{
name = top;
pos = (432,643);
}
);
background = {
anchors = (
{
name = bottom;
pos = (627,82);
},
{
name = top;
pos = (432,643);
}
);
shapes = (
{
closed = 1;
nodes = (
(71,613,o),
(101,644,o),
(180,650,c),
(578,657,l),
(578,657,o),
(759,660,o),
(764,570,cs),
(767,498,o),
(653,493,o),
(653,493,c),
(335,503,l),
(326,332,o),
(327,321,o),
(330,167,c),
(480,183,o),
(443,178,o),
(590,198,c),
(590,198,o),
(738,202,o),
(765,134,cs),
(798,56,o),
(698,40,o),
(698,40,c),
(515,13,o),
(422,-3,o),
(227,2,c),
(57,13,o),
(62,90,o),
(57,113,c),
(44,303,o),
(36,385,o),
(65,595,c)
);
},
{
closed = 1;
nodes = (
(96,415,l),
(515,426,l),
(515,426,o),
(653,410,o),
(653,339,cs),
(653,263,o),
(542,262,o),
(542,262,c),
(113,251,l)
);
},
{
closed = 1;
nodes = (
(569,96,o),
(626,113,o),
(671,90,cs),
(724,62,o),
(680,29,o),
(680,29,c),
(649,7,o),
(638,2,o),
(628,-15,c),
(628,-17,o),
(613,-40,o),
(629,-36,cs),
(655,-29,o),
(671,-23,o),
(688,-16,c),
(688,-16,o),
(721,-1,o),
(764,-18,cs),
(809,-35,o),
(782,-69,o),
(782,-69,c),
(751,-99,o),
(703,-127,o),
(638,-126,c),
(496,-131,o),
(440,-64,o),
(440,-21,c),
(442,6,o),
(455,60,o),
(569,96,c)
);
}
);
};
layerId = "1EECF98D-35CB-4836-8875-A967ACEC66D2";
shapes = (
{
alignment = -1;
ref = E;
},
{
alignment = -1;
pos = (395,83);
ref = ogonek;
}
);
width = 817;
},
{
anchors = (
{
name = bottom;
pos = (626,82);
},
{
name = top;
pos = (431,643);
}
);
background = {
anchors = (
{
name = bottom;
pos = (626,82);
},
{
name = top;
pos = (431,643);
}
);
shapes = (
{
closed = 1;
nodes = (
(100,651,o),
(125,659,o),
(170,657,c),
(715,650,l),
(715,650,o),
(755,648,o),
(755,627,c),
(754,606,o),
(716,609,o),
(716,609,c),
(161,623,l),
(136,445,o),
(140,247,o),
(158,40,c),
(374,54,o),
(574,70,o),
(721,91,c),
(721,91,o),
(757,97,o),
(764,76,cs),
(772,56,o),
(746,52,o),
(746,52,c),
(553,26,o),
(362,9,o),
(175,2,c),
(125,1,o),
(97,9,o),
(89,26,c),
(76,221,o),
(65,418,o),
(94,633,c)
);
},
{
closed = 1;
nodes = (
(119,359,l),
(538,370,l),
(538,370,o),
(599,371,o),
(599,346,cs),
(599,326,o),
(547,327,o),
(547,327,c),
(119,316,l)
);
},
{
closed = 1;
nodes = (
(626,60,o),
(659,72,o),
(669,62,cs),
(680,53,o),
(662,43,o),
(662,43,c),
(602,10,o),
(555,-28,o),
(548,-68,c),
(546,-116,o),
(585,-133,o),
(650,-131,c),
(701,-121,o),
(735,-103,o),
(764,-85,c),
(764,-85,o),
(771,-78,o),
(786,-84,cs),
(801,-90,o),
(795,-97,o),
(795,-97,c),
(753,-138,o),
(707,-157,o),
(656,-161,cs),
(552,-168,o),
(489,-126,o),
(489,-67,c),
(491,-31,o),
(519,19,o),
(626,60,c)
);
}
);
};
layerId = "1C3422F9-BFDE-4FE8-A46C-291A8D4071B9";
shapes = (
{
alignment = -1;
ref = E;
},
{
alignment = -1;
pos = (414,48);
ref = ogonek;
}
);
width = 841;
},
{
anchors = (
{
name = bottom;
pos = (418,82);
},
{
name = top;
pos = (288,643);
}
);
background = {
anchors = (
{
name = bottom;
pos = (418,82);
},
{
name = top;
pos = (288,643);
}
);
shapes = (
{
closed = 1;
nodes = (
(47,613,o),
(67,644,o),
(120,650,c),
(385,657,l),
(385,657,o),
(506,660,o),
(509,570,cs),
(511,498,o),
(435,493,o),
(435,493,c),
(223,503,l),
(217,332,o),
(218,321,o),
(220,167,c),
(320,183,o),
(295,178,o),
(393,198,c),
(393,198,o),
(492,202,o),
(510,134,cs),
(532,56,o),
(465,40,o),
(465,40,c),
(343,13,o),
(281,-3,o),
(151,2,c),
(38,13,o),
(41,90,o),
(38,113,c),
(29,303,o),
(24,385,o),
(43,595,c)
);
},
{
closed = 1;
nodes = (
(64,415,l),
(343,426,l),
(343,426,o),
(435,410,o),
(435,339,cs),
(435,263,o),
(361,262,o),
(361,262,c),
(75,251,l)
);
},
{
closed = 1;
nodes = (
(377,86,o),
(415,103,o),
(445,80,cs),
(480,52,o),
(451,19,o),
(451,19,c),
(430,-3,o),
(423,-8,o),
(416,-25,c),
(416,-27,o),
(406,-50,o),
(417,-46,cs),
(434,-39,o),
(445,-33,o),
(456,-26,c),
(456,-26,o),
(478,-11,o),
(507,-28,cs),
(537,-45,o),
(519,-79,o),
(519,-79,c),
(498,-109,o),
(466,-137,o),
(423,-136,c),
(328,-141,o),
(291,-74,o),
(291,-31,c),
(292,-4,o),
(301,50,o),
(377,86,c)
);
}
);
};
layerId = "EE7B1B97-935D-491C-911D-EA8B82785AFC";
shapes = (
{
alignment = -1;
ref = E;
},
{
alignment = -1;
pos = (261,73);
ref = ogonek;
}
);
width = 545;
},
{
anchors = (
{
name = bottom;
pos = (418,82);
},
{
name = top;
pos = (288,643);
}
);
background = {
anchors = (
{
name = bottom;
pos = (418,82);
},
{
name = top;
pos = (288,643);
}
);
shapes = (
{
closed = 1;
nodes = (
(67,651,o),
(84,659,o),
(114,657,c),
(477,650,l),
(477,650,o),
(504,648,o),
(504,627,c),
(503,606,o),
(478,609,o),
(478,609,c),
(108,623,l),
(91,445,o),
(94,247,o),
(106,40,c),
(250,54,o),
(383,70,o),
(481,91,c),
(481,91,o),
(505,97,o),
(510,76,cs),
(515,56,o),
(498,52,o),
(498,52,c),
(369,26,o),
(242,9,o),
(117,2,c),
(84,1,o),
(65,9,o),
(60,26,c),
(51,221,o),
(44,418,o),
(63,633,c)
);
},
{
closed = 1;
nodes = (
(80,359,l),
(359,370,l),
(359,370,o),
(400,371,o),
(400,346,cs),
(400,326,o),
(365,327,o),
(365,327,c),
(80,316,l)
);
},
{
closed = 1;
nodes = (
(418,60,o),
(440,72,o),
(447,62,cs),
(454,53,o),
(442,43,o),
(442,43,c),
(402,10,o),
(371,-28,o),
(366,-68,c),
(365,-116,o),
(391,-133,o),
(434,-131,c),
(468,-121,o),
(491,-103,o),
(510,-85,c),
(510,-85,o),
(515,-78,o),
(525,-84,cs),
(535,-90,o),
(531,-97,o),
(531,-97,c),
(503,-138,o),
(472,-157,o),
(438,-161,cs),
(369,-168,o),
(327,-126,o),
(327,-67,c),
(328,-31,o),
(347,19,o),
(418,60,c)
);
}
);
};
layerId = "6B947F8E-B64D-4F43-8779-746217178CEC";
shapes = (
{
alignment = -1;
ref = E;
},
{
alignment = -1;
pos = (277,48);
ref = ogonek;
}
);
width = 561;
}
);
unicode = 280;
},
{
glyphname = F;
kernLeft = H1;
kernRight = F;
lastChange = "2024-07-18 13:22:01 +0000";
layers = (
{
associatedMasterId = "6B947F8E-B64D-4F43-8779-746217178CEC";
layerId = "FC2E0489-11A5-440C-8B4C-71CFB6149F63";
name = "#instance";
shapes = (
{
closed = 1;
nodes = (
(44,295,o),
(36.5,376,o),
(63.5,591,cs),
(68,620,o),
(107,659,o),
(152,657,c),
(608,657,l),
(608,657,o),
(765.5,649,o),
(765.5,567,cs),
(765.5,497,o),
(660.5,492,o),
(660.5,492,c),
(335,501,l),
(329,339,o),
(329,277,o),
(338,79,c),
(338,79,o),
(341,2,o),
(212,5,c),
(75.5,7,o),
(59,100,o),
(59,100,c)
);
},
{
closed = 1;
nodes = (
(96.5,415,l),
(515,426,l),
(515,426,o),
(653,410,o),
(653,339,cs),
(653,263,o),
(542,262,o),
(542,262,c),
(113,251,l)
);
}
);
width = 811;
},
{
background = {
shapes = (
{
closed = 1;
nodes = (
(44,295,o),
(36.5,376,o),
(63.5,591,c),
(68,620,o),
(107,659,o),
(152,657,c),
(608,657,l),
(608,657,o),
(765.5,649,o),
(765.5,567,cs),
(765.5,497,o),
(660.5,492,o),
(660.5,492,c),
(335,501,l),
(329,339,o),
(329,277,o),
(338,79,c),
(338,79,o),
(341,2,o),
(212,5,cs),
(75.5,7,o),
(59,100,o),
(59,100,c)
);
},
{
closed = 1;
nodes = (
(96.5,415,l),
(515,426,l),
(515,426,o),
(653,410,o),
(653,339,cs),
(653,263,o),
(542,262,o),
(542,262,c),
(113,251,l)
);
}
);
};
layerId = "1EECF98D-35CB-4836-8875-A967ACEC66D2";
shapes = (
{
closed = 1;
nodes = (
(341,2,o),
(338,79,o),
(338,79,c),
(329,277,o),
(329,339,o),
(335,501,c),
(660.5,492,l),
(660.5,492,o),
(765.5,497,o),
(765.5,567,cs),
(765.5,649,o),
(608,657,o),
(608,657,c),
(152,657,l),
(107,659,o),
(68,620,o),
(63.5,591,c),
(36.5,376,o),
(44,295,o),
(59,100,c),
(59,100,o),
(75.5,7,o),
(212,5,cs)
);
},
{
closed = 1;
nodes = (
(542,262,l),
(542,262,o),
(653,263,o),
(653,339,cs),
(653,410,o),
(515,426,o),
(515,426,c),
(96.5,415,l),
(113,251,l)
);
}
);
width = 811;
},
{
background = {
shapes = (
{
closed = 1;
nodes = (
(75.5,221,o),
(65,418,o),
(93.5,633,c),
(99.5,651,o),
(125,659,o),
(170,657,c),
(714.5,650,l),
(714.5,650,o),
(755,648,o),
(755,627,c),
(753.5,606,o),
(716,609,o),
(716,609,c),
(161,623,l),
(135.5,445,o),
(140,247,o),
(158,40,c),
(158,40,o),
(167,9,o),
(131,7,cs),
(96.5,5,o),
(89,26,o),
(89,26,c)
);
},
{
closed = 1;
nodes = (
(119,359,l),
(537.5,370,l),
(537.5,370,o),
(599,371,o),
(599,346,cs),
(599,326,o),
(546.5,327,o),
(546.5,327,c),
(119,316,l)
);
}
);
};
layerId = "1C3422F9-BFDE-4FE8-A46C-291A8D4071B9";
shapes = (
{
closed = 1;
nodes = (
(167,9,o),
(158,40,o),
(158,40,c),
(140,247,o),
(135.5,445,o),
(161,623,c),
(716,609,l),
(716,609,o),
(753.5,606,o),
(755,627,c),
(755,648,o),
(714.5,650,o),
(714.5,650,c),
(170,657,l),
(125,659,o),
(99.5,651,o),
(93.5,633,c),
(65,418,o),
(75.5,221,o),
(89,26,c),
(89,26,o),
(96.5,5,o),
(131,7,cs)
);
},
{
closed = 1;
nodes = (
(546.5,327,l),
(546.5,327,o),
(599,326,o),
(599,346,cs),
(599,371,o),
(537.5,370,o),
(537.5,370,c),
(119,359,l),
(119,316,l)
);
}
);
width = 830;
},
{
background = {
shapes = (
{
closed = 1;
nodes = (
(30,295,o),
(25,376,o),
(43,591,c),
(46,620,o),
(72,659,o),
(102,657,c),
(406,657,l),
(406,657,o),
(511,649,o),
(511,567,cs),
(511,497,o),
(441,492,o),
(441,492,c),
(224,501,l),
(220,339,o),
(220,277,o),
(226,79,c),
(226,79,o),
(228,2,o),
(142,5,cs),
(51,7,o),
(40,100,o),
(40,100,c)
);
},
{
closed = 1;
nodes = (
(65,415,l),
(344,426,l),
(344,426,o),
(436,410,o),
(436,339,cs),
(436,263,o),
(362,262,o),
(362,262,c),
(76,251,l)
);
}
);
};
layerId = "EE7B1B97-935D-491C-911D-EA8B82785AFC";
shapes = (
{
closed = 1;
nodes = (
(228,2,o),
(226,79,o),
(226,79,c),
(220,277,o),
(220,339,o),
(224,501,c),
(441,492,l),
(441,492,o),
(511,497,o),
(511,567,cs),
(511,649,o),
(406,657,o),
(406,657,c),
(102,657,l),
(72,659,o),
(46,620,o),
(43,591,c),
(25,376,o),
(30,295,o),
(40,100,c),
(40,100,o),
(51,7,o),
(142,5,cs)
);
},
{
closed = 1;
nodes = (
(362,262,l),
(362,262,o),
(436,263,o),
(436,339,cs),
(436,410,o),
(344,426,o),
(344,426,c),
(65,415,l),
(76,251,l)
);
}
);
width = 541;
},
{
background = {
shapes = (
{
closed = 1;
nodes = (
(51,221,o),
(44,418,o),
(63,633,c),
(67,651,o),
(84,659,o),
(114,657,c),
(477,650,l),
(477,650,o),
(504,648,o),
(504,627,c),
(503,606,o),
(478,609,o),
(478,609,c),
(108,623,l),
(91,445,o),
(94,247,o),
(106,40,c),
(106,40,o),
(112,9,o),
(88,7,cs),
(65,5,o),
(60,26,o),
(60,26,c)
);
},
{
closed = 1;
nodes = (
(80,359,l),
(359,370,l),
(359,370,o),
(400,371,o),
(400,346,cs),
(400,326,o),
(365,327,o),
(365,327,c),
(80,316,l)
);
}
);
};
layerId = "6B947F8E-B64D-4F43-8779-746217178CEC";
shapes = (
{
closed = 1;
nodes = (
(112,9,o),
(106,40,o),
(106,40,c),
(94,247,o),
(91,445,o),
(108,623,c),
(478,609,l),
(478,609,o),
(503,606,o),
(504,627,c),
(504,648,o),
(477,650,o),
(477,650,c),
(114,657,l),
(84,659,o),
(67,651,o),
(63,633,c),
(44,418,o),
(51,221,o),
(60,26,c),
(60,26,o),
(65,5,o),
(88,7,cs)
);
},
{
closed = 1;
nodes = (
(365,327,l),
(365,327,o),
(400,326,o),
(400,346,cs),
(400,371,o),
(359,370,o),
(359,370,c),
(80,359,l),
(80,316,l)
);
}
);
width = 554;
}
);
unicode = 70;
},
{
glyphname = G;
kernLeft = C2;
kernRight = C;
lastChange = "2024-07-19 09:05:34 +0000";
layers = (
{
anchors = (
{
name = bottom;
pos = (494,12);
},
{
name = top;
pos = (524,643);
}
);
associatedMasterId = "6B947F8E-B64D-4F43-8779-746217178CEC";
layerId = "FC2E0489-11A5-440C-8B4C-71CFB6149F63";
name = "#instance";
shapes = (
{
closed = 1;
nodes = (
(633,411,o),
(660,350,o),
(744,344,cs),
(812,340,o),
(837,377,o),
(837,377,c),
(893,456,o),
(830,569,o),
(704,617,c),
(576,662,o),
(435,663,o),
(291,605,c),
(111,524,o),
(68,421,o),
(45,299,c),
(45,125,o),
(189,41,o),
(314,12,c),
(480,-36,o),
(690,-3,o),
(791,62,c),
(917,138,o),
(843,227,o),
(755,267,c),
(695,292,o),
(587,327,o),
(494,318,c),
(494,318,o),
(440,318,o),
(429,280,cs),
(417,237,o),
(483,217,o),
(483,217,c),
(524,207,o),
(575,197,o),
(608,189,c),
(617,179,o),
(572,168,o),
(521,160,c),
(467,155,o),
(420,157,o),
(380,173,c),
(347,190,o),
(329,234,o),
(336,289,c),
(354,373,o),
(398,409,o),
(447,448,c),
(510,488,o),
(588,500,o),
(608,501,c),
(623,465,o),
(633,423,o),
(633,411,c)
);
}
);
width = 904;
},
{
anchors = (
{
name = bottom;
pos = (494,12);
},
{
name = top;
pos = (524,643);
}
);
background = {
anchors = (
{
name = bottom;
pos = (494,12);
},
{
name = top;
pos = (524,643);
}
);
shapes = (
{
closed = 1;
nodes = (
(633,411,o),
(660,350,o),
(744,344,cs),
(812,340,o),
(837,377,o),
(837,377,c),
(893,456,o),
(830,569,o),
(704,617,c),
(576,662,o),
(435,663,o),
(291,605,c),
(111,524,o),
(68,421,o),
(45,299,c),
(45,125,o),
(189,41,o),
(314,12,c),
(480,-36,o),
(690,-3,o),
(791,62,c),
(917,138,o),
(843,227,o),
(755,267,c),
(695,292,o),
(587,327,o),
(494,318,c),
(494,318,o),
(440,318,o),
(429,280,cs),
(417,237,o),
(483,217,o),
(483,217,c),
(524,207,o),
(575,197,o),
(608,189,c),
(617,179,o),
(572,168,o),
(521,160,c),
(467,155,o),
(420,157,o),
(380,173,c),
(347,190,o),
(329,234,o),
(336,289,c),
(354,373,o),
(398,409,o),
(447,448,c),
(510,488,o),
(588,500,o),
(608,501,c),
(623,465,o),
(633,423,o),
(633,411,c)
);
}
);
};
layerId = "1EECF98D-35CB-4836-8875-A967ACEC66D2";
shapes = (
{
closed = 1;
nodes = (
(480,-36,o),
(690,-3,o),
(791,62,c),
(917,138,o),
(843,227,o),
(755,267,c),
(695,292,o),
(587,327,o),
(494,318,c),
(494,318,o),
(440,318,o),
(429,280,cs),
(417,237,o),
(483,217,o),
(483,217,c),
(524,207,o),
(575,197,o),
(608,189,c),
(617,179,o),
(572,168,o),
(521,160,c),
(467,155,o),
(420,157,o),
(380,173,c),
(347,190,o),
(329,234,o),
(336,289,c),
(354,373,o),
(398,409,o),
(447,448,c),
(510,488,o),
(588,500,o),
(608,501,c),
(623,465,o),
(633,423,o),
(633,411,c),
(633,411,o),
(660,350,o),
(744,344,cs),
(812,340,o),
(837,377,o),
(837,377,c),
(893,456,o),
(830,569,o),
(704,617,c),
(576,662,o),
(435,663,o),
(291,605,c),
(111,524,o),
(68,421,o),
(45,299,c),
(45,125,o),
(189,41,o),
(314,12,c)
);
}
);
width = 904;
},
{
anchors = (
{
name = bottom;
pos = (494,12);
},
{
name = top;
pos = (524,643);
}
);
background = {
anchors = (
{
name = bottom;
pos = (494,12);
},
{
name = top;
pos = (524,643);
}
);
shapes = (
{
closed = 1;
nodes = (
(816,417,o),
(816,403,o),
(836,399,cs),
(855,395,o),
(866,404,o),
(866,404,c),
(888,480,o),
(899,556,o),
(767,617,c),
(639,662,o),
(506,663,o),
(362,605,c),
(182,524,o),
(99,418,o),
(77,296,c),
(63,139,o),
(159,41,o),
(384,12,c),
(561,-13,o),
(737,9,o),
(833,71,c),
(891,125,o),
(864,174,o),
(776,220,c),
(714,244,o),
(642,259,o),
(557,264,c),
(557,264,o),
(539,259,o),
(536,248,cs),
(533,236,o),
(543,225,o),
(543,225,c),
(639,216,o),
(708,196,o),
(761,169,c),
(803,132,o),
(800,102,o),
(753,77,c),
(591,24,o),
(456,43,o),
(303,79,c),
(191,126,o),
(135,200,o),
(158,320,c),
(194,451,o),
(300,535,o),
(479,592,cs),
(612,635,o),
(764,598,o),
(809,520,c),
(824,485,o),
(827,453,o),
(816,417,c)
);
}
);
};
layerId = "1C3422F9-BFDE-4FE8-A46C-291A8D4071B9";
shapes = (
{
closed = 1;
nodes = (
(561,-13,o),
(737,9,o),
(833,71,c),
(891,125,o),
(864,174,o),
(776,220,c),
(714,244,o),
(642,259,o),
(557,264,c),
(557,264,o),
(539,259,o),
(536,248,cs),
(533,236,o),
(543,225,o),
(543,225,c),
(639,216,o),
(708,196,o),
(761,169,c),
(803,132,o),
(800,102,o),
(753,77,c),
(591,24,o),
(456,43,o),
(303,79,c),
(191,126,o),
(135,200,o),
(158,320,c),
(194,451,o),
(300,535,o),
(479,592,cs),
(612,635,o),
(764,598,o),
(809,520,c),
(824,485,o),
(827,453,o),
(816,417,c),
(816,417,o),
(816,403,o),
(836,399,cs),
(855,395,o),
(866,404,o),
(866,404,c),
(888,480,o),
(899,556,o),
(767,617,c),
(639,662,o),
(506,663,o),
(362,605,c),
(182,524,o),
(99,418,o),
(77,296,c),
(63,139,o),
(159,41,o),
(384,12,c)
);
}
);
width = 955;
},
{
anchors = (
{
name = bottom;
pos = (329,12);
},
{
name = top;
pos = (349,643);
}
);
background = {
anchors = (
{
name = bottom;
pos = (329,12);
},
{
name = top;
pos = (349,643);
}
);
shapes = (
{
closed = 1;
nodes = (
(422,411,o),
(440,350,o),
(496,344,cs),
(541,340,o),
(558,377,o),
(558,377,c),
(595,456,o),
(553,569,o),
(469,617,c),
(384,662,o),
(290,663,o),
(194,605,c),
(74,524,o),
(45,421,o),
(30,299,c),
(30,125,o),
(126,41,o),
(209,12,c),
(320,-36,o),
(460,-3,o),
(527,62,c),
(611,138,o),
(562,227,o),
(503,267,c),
(463,292,o),
(391,327,o),
(329,318,c),
(329,318,o),
(293,318,o),
(286,280,cs),
(278,237,o),
(322,217,o),
(322,217,c),
(349,207,o),
(383,197,o),
(405,189,c),
(411,179,o),
(381,168,o),
(347,160,c),
(311,155,o),
(280,157,o),
(253,173,c),
(231,190,o),
(219,234,o),
(224,289,c),
(236,373,o),
(265,409,o),
(298,448,c),
(340,488,o),
(392,500,o),
(405,501,c),
(415,465,o),
(422,423,o),
(422,411,c)
);
}
);
};
layerId = "EE7B1B97-935D-491C-911D-EA8B82785AFC";
shapes = (
{
closed = 1;
nodes = (
(320,-36,o),
(460,-3,o),
(527,62,c),
(611,138,o),
(562,227,o),
(503,267,c),
(463,292,o),
(391,327,o),
(329,318,c),
(329,318,o),
(293,318,o),
(286,280,cs),
(278,237,o),
(322,217,o),
(322,217,c),
(349,207,o),
(383,197,o),
(405,189,c),
(411,179,o),
(381,168,o),
(347,160,c),
(311,155,o),
(280,157,o),
(253,173,c),
(231,190,o),
(219,234,o),
(224,289,c),
(236,373,o),
(265,409,o),
(298,448,c),
(340,488,o),
(392,500,o),
(405,501,c),
(415,465,o),
(422,423,o),
(422,411,c),
(422,411,o),
(440,350,o),
(496,344,cs),
(541,340,o),
(558,377,o),
(558,377,c),
(595,456,o),
(553,569,o),
(469,617,c),
(384,662,o),
(290,663,o),
(194,605,c),
(74,524,o),
(45,421,o),
(30,299,c),
(30,125,o),
(126,41,o),
(209,12,c)
);
}
);
width = 602;
},
{
anchors = (
{
name = bottom;
pos = (329,12);
},
{
name = top;
pos = (349,643);
}
);
background = {
anchors = (
{
name = bottom;
pos = (329,12);
},
{
name = top;
pos = (349,643);
}
);
shapes = (
{
closed = 1;
nodes = (
(544,417,o),
(544,403,o),
(557,399,cs),
(570,395,o),
(577,404,o),
(577,404,c),
(592,480,o),
(599,556,o),
(511,617,c),
(426,662,o),
(337,663,o),
(241,605,c),
(121,524,o),
(66,418,o),
(51,296,c),
(42,139,o),
(106,41,o),
(256,12,c),
(374,-13,o),
(491,9,o),
(555,71,c),
(594,125,o),
(576,174,o),
(517,220,c),
(476,244,o),
(428,259,o),
(371,264,c),
(371,264,o),
(359,259,o),
(357,248,cs),
(355,236,o),
(362,225,o),
(362,225,c),
(426,216,o),
(472,196,o),
(507,169,c),
(535,132,o),
(533,102,o),
(502,77,c),
(394,24,o),
(304,43,o),
(202,79,c),
(127,126,o),
(90,200,o),
(105,320,c),
(129,451,o),
(200,535,o),
(319,592,cs),
(408,635,o),
(509,598,o),
(539,520,c),
(549,485,o),
(551,453,o),
(544,417,c)
);
}
);
};
layerId = "6B947F8E-B64D-4F43-8779-746217178CEC";
shapes = (
{
closed = 1;
nodes = (
(374,-13,o),
(491,9,o),
(555,71,c),
(594,125,o),
(576,174,o),
(517,220,c),
(476,244,o),
(428,259,o),
(371,264,c),
(371,264,o),
(359,259,o),
(357,248,cs),
(355,236,o),
(362,225,o),
(362,225,c),
(426,216,o),
(472,196,o),
(507,169,c),
(535,132,o),
(533,102,o),
(502,77,c),
(394,24,o),
(304,43,o),
(202,79,c),
(127,126,o),
(90,200,o),
(105,320,c),
(129,451,o),
(200,535,o),
(319,592,cs),
(408,635,o),
(509,598,o),
(539,520,c),
(549,485,o),
(551,453,o),
(544,417,c),
(544,417,o),
(544,403,o),
(557,399,cs),
(570,395,o),
(577,404,o),
(577,404,c),
(592,480,o),
(599,556,o),
(511,617,c),
(426,662,o),
(337,663,o),
(241,605,c),
(121,524,o),
(66,418,o),
(51,296,c),
(42,139,o),
(106,41,o),
(256,12,c)
);
}
);
width = 637;
}
);
unicode = 71;
},
